999
dxflib 2.0.4.8
  0
SECTION
  2
HEADER
  9
$ACADVER
  1
AC1015
  9
$HANDSEED
  5
FFFF
  9
$CLAYER
  8
0
  9
$DIMASZ
 40
2.5
  9
$DIMGAP
 40
0.625
  9
$DIMEXO
 40
0.625
  9
$INSUNITS
 70
4
  9
$DIMTXT
 40
2.5
  9
$DIMSTYLE
  2
Standard
  9
$PLIMMAX
 10
210.0
 20
297.0
  9
$PLIMMIN
 10
0.0
 20
0.0
  9
$DIMEXE
 40
1.25
  0
ENDSEC
  0
SECTION
  2
TABLES
  0
TABLE
  2
VPORT
  5
8
100
AcDbSymbolTable
 70
1
  0
VPORT
  5
30
100
AcDbSymbolTableRecord
100
AcDbViewportTableRecord
  2
*Active
 70
0
 10
0.0
 20
0.0
 11
1.0
 21
1.0
 12
286.3055555555554861
 22
148.5
 13
0.0
 23
0.0
 14
10.0
 24
10.0
 15
10.0
 25
10.0
 16
0.0
 26
0.0
 36
1.0
 17
0.0
 27
0.0
 37
0.0
 40
297.0
 41
1.92798353909465
 42
50.0
 43
0.0
 44
0.0
 50
0.0
 51
0.0
 71
0
 72
100
 73
1
 74
3
 75
1
 76
1
 77
0
 78
0
281
0
 65
1
110
0.0
120
0.0
130
0.0
111
1.0
121
0.0
131
0.0
112
0.0
122
1.0
132
0.0
 79
0
146
0.0
  0
ENDTAB
  0
TABLE
  2
LTYPE
  5
5
100
AcDbSymbolTable
 70
21
  0
LTYPE
  5
14
100
AcDbSymbolTableRecord
100
AcDbLinetypeTableRecord
  2
ByBlock
 70
0
  3

 72
65
 73
0
 40
0.0
  0
LTYPE
  5
15
100
AcDbSymbolTableRecord
100
AcDbLinetypeTableRecord
  2
ByLayer
 70
0
  3

 72
65
 73
0
 40
0.0
  0
LTYPE
  5
16
100
AcDbSymbolTableRecord
100
AcDbLinetypeTableRecord
  2
CONTINUOUS
 70
0
  3
Solid line
 72
65
 73
0
 40
0.0
  0
LTYPE
  5
31
100
AcDbSymbolTableRecord
100
AcDbLinetypeTableRecord
  2
DOT
 70
0
  3
Dot . . . . . . . . . . . . . . . . . . . . . .
 72
65
 73
2
 40
6.3499999999999996
 49
0.0
 74
0
 49
-6.3499999999999996
 74
0
  0
LTYPE
  5
32
100
AcDbSymbolTableRecord
100
AcDbLinetypeTableRecord
  2
DOT2
 70
0
  3
Dot (.5x) .....................................
 72
65
 73
2
 40
3.1749999999999998
 49
0.0
 74
0
 49
-3.1749999999999998
 74
0
  0
LTYPE
  5
33
100
AcDbSymbolTableRecord
100
AcDbLinetypeTableRecord
  2
DOTX2
 70
0
  3
Dot (2x) .  .  .  .  .  .  .  .  .  .  .  .  .
 72
65
 73
2
 40
12.6999999999999993
 49
0.0
 74
0
 49
-12.6999999999999993
 74
0
  0
LTYPE
  5
34
100
AcDbSymbolTableRecord
100
AcDbLinetypeTableRecord
  2
DASHED
 70
0
  3
Dashed __ __ __ __ __ __ __ __ __ __ __ __ __ _
 72
65
 73
2
 40
19.0500000000000007
 49
12.6999999999999993
 74
0
 49
-6.3499999999999996
 74
0
  0
LTYPE
  5
35
100
AcDbSymbolTableRecord
100
AcDbLinetypeTableRecord
  2
DASHED2
 70
0
  3
Dashed (.5x) _ _ _ _ _ _ _ _ _ _ _ _ _ _ _ _ _
 72
65
 73
2
 40
9.5250000000000004
 49
6.3499999999999996
 74
0
 49
-3.1749999999999998
 74
0
  0
LTYPE
  5
36
100
AcDbSymbolTableRecord
100
AcDbLinetypeTableRecord
  2
DASHEDX2
 70
0
  3
Dashed (2x) ____  ____  ____  ____  ____  ___
 72
65
 73
2
 40
38.1000000000000014
 49
25.3999999999999986
 74
0
 49
-12.6999999999999993
 74
0
  0
LTYPE
  5
37
100
AcDbSymbolTableRecord
100
AcDbLinetypeTableRecord
  2
DASHDOT
 70
0
  3
Dash dot __ . __ . __ . __ . __ . __ . __ . __
 72
65
 73
4
 40
25.3999999999999986
 49
12.6999999999999993
 74
0
 49
-6.3499999999999996
 74
0
 49
0.0
 74
0
 49
-6.3499999999999996
 74
0
  0
LTYPE
  5
38
100
AcDbSymbolTableRecord
100
AcDbLinetypeTableRecord
  2
DASHDOT2
 70
0
  3
Dash dot (.5x) _._._._._._._._._._._._._._._.
 72
65
 73
4
 40
12.6999999999999993
 49
6.3499999999999996
 74
0
 49
-3.1749999999999998
 74
0
 49
0.0
 74
0
 49
-3.1749999999999998
 74
0
  0
LTYPE
  5
39
100
AcDbSymbolTableRecord
100
AcDbLinetypeTableRecord
  2
DASHDOTX2
 70
0
  3
Dash dot (2x) ____  .  ____  .  ____  .  ___
 72
65
 73
4
 40
50.7999999999999972
 49
25.3999999999999986
 74
0
 49
-12.6999999999999993
 74
0
 49
0.0
 74
0
 49
-12.6999999999999993
 74
0
  0
LTYPE
  5
3A
100
AcDbSymbolTableRecord
100
AcDbLinetypeTableRecord
  2
DIVIDE
 70
0
  3
Divide ____ . . ____ . . ____ . . ____ . . ____
 72
65
 73
6
 40
31.75
 49
12.6999999999999993
 74
0
 49
-6.3499999999999996
 74
0
 49
0.0
 74
0
 49
-6.3499999999999996
 74
0
 49
0.0
 74
0
 49
-6.3499999999999996
 74
0
  0
LTYPE
  5
3B
100
AcDbSymbolTableRecord
100
AcDbLinetypeTableRecord
  2
DIVIDE2
 70
0
  3
Divide (.5x) __..__..__..__..__..__..__..__.._
 72
65
 73
6
 40
15.875
 49
6.3499999999999996
 74
0
 49
-3.1749999999999998
 74
0
 49
0.0
 74
0
 49
-3.1749999999999998
 74
0
 49
0.0
 74
0
 49
-3.1749999999999998
 74
0
  0
LTYPE
  5
3C
100
AcDbSymbolTableRecord
100
AcDbLinetypeTableRecord
  2
DIVIDEX2
 70
0
  3
Divide (2x) ________  .  .  ________  .  .  _
 72
65
 73
6
 40
63.5
 49
25.3999999999999986
 74
0
 49
-12.6999999999999993
 74
0
 49
0.0
 74
0
 49
-12.6999999999999993
 74
0
 49
0.0
 74
0
 49
-12.6999999999999993
 74
0
  0
LTYPE
  5
3D
100
AcDbSymbolTableRecord
100
AcDbLinetypeTableRecord
  2
CENTER
 70
0
  3
Center ____ _ ____ _ ____ _ ____ _ ____ _ ____
 72
65
 73
4
 40
50.7999999999999972
 49
31.75
 74
0
 49
-6.3499999999999996
 74
0
 49
6.3499999999999996
 74
0
 49
-6.3499999999999996
 74
0
  0
LTYPE
  5
3E
100
AcDbSymbolTableRecord
100
AcDbLinetypeTableRecord
  2
CENTER2
 70
0
  3
Center (.5x) ___ _ ___ _ ___ _ ___ _ ___ _ ___
 72
65
 73
4
 40
28.5749999999999993
 49
19.0500000000000007
 74
0
 49
-3.1749999999999998
 74
0
 49
3.1749999999999998
 74
0
 49
-3.1749999999999998
 74
0
  0
LTYPE
  5
3F
100
AcDbSymbolTableRecord
100
AcDbLinetypeTableRecord
  2
CENTERX2
 70
0
  3
Center (2x) ________  __  ________  __  _____
 72
65
 73
4
 40
101.5999999999999943
 49
63.5
 74
0
 49
-12.6999999999999993
 74
0
 49
12.6999999999999993
 74
0
 49
-12.6999999999999993
 74
0
  0
LTYPE
  5
40
100
AcDbSymbolTableRecord
100
AcDbLinetypeTableRecord
  2
BORDER
 70
0
  3
Border __ __ . __ __ . __ __ . __ __ . __ __ .
 72
65
 73
6
 40
44.4500000000000028
 49
12.6999999999999993
 74
0
 49
-6.3499999999999996
 74
0
 49
12.6999999999999993
 74
0
 49
-6.3499999999999996
 74
0
 49
0.0
 74
0
 49
-6.3499999999999996
 74
0
  0
LTYPE
  5
41
100
AcDbSymbolTableRecord
100
AcDbLinetypeTableRecord
  2
BORDER2
 70
0
  3
Border (.5x) __.__.__.__.__.__.__.__.__.__.__.
 72
65
 73
6
 40
22.2250000000000014
 49
6.3499999999999996
 74
0
 49
-3.1749999999999998
 74
0
 49
6.3499999999999996
 74
0
 49
-3.1749999999999998
 74
0
 49
0.0
 74
0
 49
-3.1749999999999998
 74
0
  0
LTYPE
  5
42
100
AcDbSymbolTableRecord
100
AcDbLinetypeTableRecord
  2
BORDERX2
 70
0
  3
Border (2x) ____  ____  .  ____  ____  .  ___
 72
65
 73
6
 40
88.9000000000000057
 49
25.3999999999999986
 74
0
 49
-12.6999999999999993
 74
0
 49
25.3999999999999986
 74
0
 49
-12.6999999999999993
 74
0
 49
0.0
 74
0
 49
-12.6999999999999993
 74
0
  0
ENDTAB
  0
TABLE
  2
LAYER
  5
2
100
AcDbSymbolTable
 70
1
  0
LAYER
  5
10
100
AcDbSymbolTableRecord
100
AcDbLayerTableRecord
  2
0
 70
0
 62
7
  6
CONTINUOUS
370
25
390
F
  0
ENDTAB
  0
TABLE
  2
STYLE
  5
3
100
AcDbSymbolTable
 70
1
  0
STYLE
  5
11
100
AcDbSymbolTableRecord
100
AcDbTextStyleTableRecord
  2
Standard
 70
0
 40
0.0
 41
0.75
 50
0.0
 71
0
 42
2.5
  3
txt
  4

  0
ENDTAB
  0
TABLE
  2
VIEW
  5
6
100
AcDbSymbolTable
 70
0
  0
ENDTAB
  0
TABLE
  2
UCS
  5
7
100
AcDbSymbolTable
 70
0
  0
ENDTAB
  0
TABLE
  2
APPID
  5
9
100
AcDbSymbolTable
 70
1
  0
APPID
  5
12
100
AcDbSymbolTableRecord
100
AcDbRegAppTableRecord
  2
ACAD
 70
0
  0
ENDTAB
  0
TABLE
  2
DIMSTYLE
  5
A
100
AcDbSymbolTable
 70
1
100
AcDbDimStyleTable
 71
0
  0
DIMSTYLE
105
27
100
AcDbSymbolTableRecord
100
AcDbDimStyleTableRecord
  2
Standard
 41
2.5
 42
0.625
 43
3.75
 44
1.25
 70
0
 73
0
 74
0
 77
1
 78
8
140
2.5
141
2.5
143
0.03937007874016
147
0.625
171
3
172
1
271
2
272
2
274
3
278
44
283
0
284
8
340
11
  0
ENDTAB
  0
TABLE
  2
BLOCK_RECORD
  5
1
100
AcDbSymbolTable
 70
1
  0
BLOCK_RECORD
  5
1F
100
AcDbSymbolTableRecord
100
AcDbBlockTableRecord
  2
*Model_Space
340
22
  0
BLOCK_RECORD
  5
1B
100
AcDbSymbolTableRecord
100
AcDbBlockTableRecord
  2
*Paper_Space
340
1E
  0
BLOCK_RECORD
  5
23
100
AcDbSymbolTableRecord
100
AcDbBlockTableRecord
  2
*Paper_Space0
340
26
  0
ENDTAB
  0
ENDSEC
  0
SECTION
  2
BLOCKS
  0
BLOCK
  5
20
100
AcDbEntity
  8
0
100
AcDbBlockBegin
  2
*Model_Space
 70
0
 10
0.0
 20
0.0
 30
0.0
  3
*Model_Space
  1

  0
ENDBLK
  5
21
100
AcDbEntity
  8
0
100
AcDbBlockEnd
  0
BLOCK
  5
1C
100
AcDbEntity
 67
1
  8
0
100
AcDbBlockBegin
  2
*Paper_Space
 70
0
 10
0.0
 20
0.0
 30
0.0
  3
*Paper_Space
  1

  0
ENDBLK
  5
1D
100
AcDbEntity
 67
1
  8
0
100
AcDbBlockEnd
  0
BLOCK
  5
24
100
AcDbEntity
  8
0
100
AcDbBlockBegin
  2
*Paper_Space0
 70
0
 10
0.0
 20
0.0
 30
0.0
  3
*Paper_Space0
  1

  0
ENDBLK
  5
25
100
AcDbEntity
  8
0
100
AcDbBlockEnd
  0
ENDSEC
  0
SECTION
  2
ENTITIES
  0
LINE
  5
43
100
AcDbEntity
100
AcDbLine
  8
0
 62
256
370
-1
  6
ByLayer
 10
747.7043309323922813
 20
190.264966615968774
 30
0.0
 11
747.7043309323922813
 21
210.264966615968774
 31
0.0
  0
LINE
  5
44
100
AcDbEntity
100
AcDbLine
  8
0
 62
256
370
-1
  6
ByLayer
 10
757.7043309323922813
 20
190.264966615968774
 30
0.0
 11
757.7043309323922813
 21
210.264966615968774
 31
0.0
  0
LINE
  5
45
100
AcDbEntity
100
AcDbLine
  8
0
 62
256
370
-1
  6
ByLayer
 10
761.7043309323922813
 20
190.2649666159686603
 30
0.0
 11
761.7043309323922813
 21
210.2649666159688877
 31
0.0
  0
LINE
  5
46
100
AcDbEntity
100
AcDbLine
  8
0
 62
256
370
-1
  6
ByLayer
 10
743.7043309323922813
 20
190.264966615968774
 30
0.0
 11
743.7043309323922813
 21
210.264966615968774
 31
0.0
  0
LINE
  5
47
100
AcDbEntity
100
AcDbLine
  8
0
 62
256
370
-1
  6
ByLayer
 10
747.7043309323922813
 20
190.264966615968774
 30
0.0
 11
757.7043309323922813
 21
190.264966615968774
 31
0.0
  0
LINE
  5
48
100
AcDbEntity
100
AcDbLine
  8
0
 62
256
370
-1
  6
ByLayer
 10
747.7043309323922813
 20
210.264966615968774
 30
0.0
 11
757.7043309323922813
 21
210.264966615968774
 31
0.0
  0
LINE
  5
49
100
AcDbEntity
100
AcDbLine
  8
0
 62
256
370
-1
  6
ByLayer
 10
747.7043309323922813
 20
214.264966615968774
 30
0.0
 11
757.7043309323922813
 21
214.264966615968774
 31
0.0
  0
LINE
  5
4A
100
AcDbEntity
100
AcDbLine
  8
0
 62
256
370
-1
  6
ByLayer
 10
747.7043309323922813
 20
186.264966615968774
 30
0.0
 11
757.7043309323922813
 21
186.2649666159686603
 31
0.0
  0
LINE
  5
4B
100
AcDbEntity
100
AcDbLine
  8
0
 62
256
370
-1
  6
ByLayer
 10
747.7043309323922813
 20
234.264966615968774
 30
0.0
 11
757.7043309323922813
 21
234.264966615968774
 31
0.0
  0
LINE
  5
4C
100
AcDbEntity
100
AcDbLine
  8
0
 62
256
370
-1
  6
ByLayer
 10
747.7043309323922813
 20
166.264966615968774
 30
0.0
 11
757.7043309323920539
 21
166.264966615968774
 31
0.0
  0
LINE
  5
4D
100
AcDbEntity
100
AcDbLine
  8
0
 62
256
370
-1
  6
ByLayer
 10
757.7043309323920539
 20
166.264966615968774
 30
0.0
 11
757.7043309323922813
 21
186.2649666159686603
 31
0.0
  0
LINE
  5
4E
100
AcDbEntity
100
AcDbLine
  8
0
 62
256
370
-1
  6
ByLayer
 10
747.7043309323922813
 20
166.264966615968774
 30
0.0
 11
747.7043309323922813
 21
186.264966615968774
 31
0.0
  0
LINE
  5
4F
100
AcDbEntity
100
AcDbLine
  8
0
 62
256
370
-1
  6
ByLayer
 10
747.7043309323922813
 20
214.264966615968774
 30
0.0
 11
747.7043309323922813
 21
234.264966615968774
 31
0.0
  0
LINE
  5
50
100
AcDbEntity
100
AcDbLine
  8
0
 62
256
370
-1
  6
ByLayer
 10
757.7043309323922813
 20
214.264966615968774
 30
0.0
 11
757.7043309323922813
 21
234.264966615968774
 31
0.0
  0
LINE
  5
51
100
AcDbEntity
100
AcDbLine
  8
0
 62
256
370
-1
  6
ByLayer
 10
743.7043309323922813
 20
166.264966615968774
 30
0.0
 11
743.7043309323920539
 21
186.2649666159688877
 31
0.0
  0
LINE
  5
52
100
AcDbEntity
100
AcDbLine
  8
0
 62
256
370
-1
  6
ByLayer
 10
761.7043309323922813
 20
166.264966615968774
 30
0.0
 11
761.7043309323922813
 21
186.264966615968774
 31
0.0
  0
LINE
  5
53
100
AcDbEntity
100
AcDbLine
  8
0
 62
256
370
-1
  6
ByLayer
 10
761.7043309323922813
 20
214.264966615968774
 30
0.0
 11
761.7043309323922813
 21
234.264966615968774
 31
0.0
  0
LINE
  5
54
100
AcDbEntity
100
AcDbLine
  8
0
 62
256
370
-1
  6
ByLayer
 10
743.7043309323922813
 20
214.264966615968774
 30
0.0
 11
743.7043309323922813
 21
234.264966615968774
 31
0.0
  0
LINE
  5
55
100
AcDbEntity
100
AcDbLine
  8
0
 62
256
370
-1
  6
ByLayer
 10
771.7043309323922813
 20
166.264966615968774
 30
0.0
 11
771.7043309323922813
 21
186.264966615968774
 31
0.0
  0
LINE
  5
56
100
AcDbEntity
100
AcDbLine
  8
0
 62
256
370
-1
  6
ByLayer
 10
771.7043309323922813
 20
190.2649666159686603
 30
0.0
 11
771.7043309323922813
 21
210.264966615968774
 31
0.0
  0
LINE
  5
57
100
AcDbEntity
100
AcDbLine
  8
0
 62
256
370
-1
  6
ByLayer
 10
771.7043309323922813
 20
214.264966615968774
 30
0.0
 11
771.7043309323922813
 21
234.264966615968774
 31
0.0
  0
LINE
  5
58
100
AcDbEntity
100
AcDbLine
  8
0
 62
256
370
-1
  6
ByLayer
 10
733.7043309323920539
 20
166.264966615968774
 30
0.0
 11
733.7043309323922813
 21
186.264966615968774
 31
0.0
  0
LINE
  5
59
100
AcDbEntity
100
AcDbLine
  8
0
 62
256
370
-1
  6
ByLayer
 10
733.7043309323922813
 20
190.264966615968774
 30
0.0
 11
733.7043309323922813
 21
210.264966615968774
 31
0.0
  0
LINE
  5
5A
100
AcDbEntity
100
AcDbLine
  8
0
 62
256
370
-1
  6
ByLayer
 10
733.7043309323922813
 20
214.264966615968774
 30
0.0
 11
733.7043309323922813
 21
234.264966615968774
 31
0.0
  0
LINE
  5
5B
100
AcDbEntity
100
AcDbLine
  8
0
 62
256
370
-1
  6
ByLayer
 10
761.7043309323922813
 20
166.264966615968774
 30
0.0
 11
771.7043309323922813
 21
166.264966615968774
 31
0.0
  0
LINE
  5
5C
100
AcDbEntity
100
AcDbLine
  8
0
 62
256
370
-1
  6
ByLayer
 10
733.7043309323920539
 20
166.264966615968774
 30
0.0
 11
743.7043309323922813
 21
166.264966615968774
 31
0.0
  0
LINE
  5
5D
100
AcDbEntity
100
AcDbLine
  8
0
 62
256
370
-1
  6
ByLayer
 10
733.7043309323922813
 20
186.264966615968774
 30
0.0
 11
743.7043309323920539
 21
186.2649666159688877
 31
0.0
  0
LINE
  5
5E
100
AcDbEntity
100
AcDbLine
  8
0
 62
256
370
-1
  6
ByLayer
 10
761.7043309323922813
 20
186.264966615968774
 30
0.0
 11
771.7043309323922813
 21
186.264966615968774
 31
0.0
  0
LINE
  5
5F
100
AcDbEntity
100
AcDbLine
  8
0
 62
256
370
-1
  6
ByLayer
 10
733.7043309323922813
 20
190.264966615968774
 30
0.0
 11
743.7043309323922813
 21
190.264966615968774
 31
0.0
  0
LINE
  5
60
100
AcDbEntity
100
AcDbLine
  8
0
 62
256
370
-1
  6
ByLayer
 10
761.7043309323922813
 20
190.2649666159686603
 30
0.0
 11
771.7043309323922813
 21
190.2649666159686603
 31
0.0
  0
LINE
  5
61
100
AcDbEntity
100
AcDbLine
  8
0
 62
256
370
-1
  6
ByLayer
 10
733.7043309323922813
 20
210.264966615968774
 30
0.0
 11
743.7043309323922813
 21
210.264966615968774
 31
0.0
  0
LINE
  5
62
100
AcDbEntity
100
AcDbLine
  8
0
 62
256
370
-1
  6
ByLayer
 10
761.7043309323922813
 20
210.2649666159688877
 30
0.0
 11
771.7043309323922813
 21
210.264966615968774
 31
0.0
  0
LINE
  5
63
100
AcDbEntity
100
AcDbLine
  8
0
 62
256
370
-1
  6
ByLayer
 10
733.7043309323922813
 20
214.264966615968774
 30
0.0
 11
743.7043309323922813
 21
214.264966615968774
 31
0.0
  0
LINE
  5
64
100
AcDbEntity
100
AcDbLine
  8
0
 62
256
370
-1
  6
ByLayer
 10
761.7043309323922813
 20
214.264966615968774
 30
0.0
 11
771.7043309323922813
 21
214.264966615968774
 31
0.0
  0
LINE
  5
65
100
AcDbEntity
100
AcDbLine
  8
0
 62
256
370
-1
  6
ByLayer
 10
733.7043309323922813
 20
234.264966615968774
 30
0.0
 11
743.7043309323922813
 21
234.264966615968774
 31
0.0
  0
LINE
  5
66
100
AcDbEntity
100
AcDbLine
  8
0
 62
256
370
-1
  6
ByLayer
 10
761.7043309323922813
 20
234.264966615968774
 30
0.0
 11
771.7043309323922813
 21
234.264966615968774
 31
0.0
  0
LINE
  5
67
100
AcDbEntity
100
AcDbLine
  8
0
 62
256
370
-1
  6
ByLayer
 10
775.7043309323920539
 20
190.1905646165511143
 30
0.0
 11
775.7043309323922813
 21
210.1905646165511143
 31
0.0
  0
LINE
  5
68
100
AcDbEntity
100
AcDbLine
  8
0
 62
256
370
-1
  6
ByLayer
 10
785.7043309323922813
 20
190.1905646165511143
 30
0.0
 11
785.7043309323922813
 21
210.1905646165511143
 31
0.0
  0
LINE
  5
69
100
AcDbEntity
100
AcDbLine
  8
0
 62
256
370
-1
  6
ByLayer
 10
789.7043309323920539
 20
190.1905646165511143
 30
0.0
 11
789.7043309323922813
 21
210.1905646165511143
 31
0.0
  0
LINE
  5
6A
100
AcDbEntity
100
AcDbLine
  8
0
 62
256
370
-1
  6
ByLayer
 10
771.7043309323922813
 20
190.1905646165511143
 30
0.0
 11
771.7043309323922813
 21
210.1905646165511143
 31
0.0
  0
LINE
  5
6B
100
AcDbEntity
100
AcDbLine
  8
0
 62
256
370
-1
  6
ByLayer
 10
775.7043309323920539
 20
190.1905646165511143
 30
0.0
 11
785.7043309323922813
 21
190.1905646165511143
 31
0.0
  0
LINE
  5
6C
100
AcDbEntity
100
AcDbLine
  8
0
 62
256
370
-1
  6
ByLayer
 10
775.7043309323922813
 20
210.1905646165511143
 30
0.0
 11
785.7043309323922813
 21
210.1905646165511143
 31
0.0
  0
LINE
  5
6D
100
AcDbEntity
100
AcDbLine
  8
0
 62
256
370
-1
  6
ByLayer
 10
775.7043309323922813
 20
214.1905646165511143
 30
0.0
 11
785.7043309323922813
 21
214.1905646165511143
 31
0.0
  0
LINE
  5
6E
100
AcDbEntity
100
AcDbLine
  8
0
 62
256
370
-1
  6
ByLayer
 10
775.7043309323922813
 20
186.1905646165513417
 30
0.0
 11
785.7043309323922813
 21
186.1905646165511143
 31
0.0
  0
LINE
  5
6F
100
AcDbEntity
100
AcDbLine
  8
0
 62
256
370
-1
  6
ByLayer
 10
775.7043309323922813
 20
234.1905646165511143
 30
0.0
 11
785.7043309323922813
 21
234.1905646165511143
 31
0.0
  0
LINE
  5
70
100
AcDbEntity
100
AcDbLine
  8
0
 62
256
370
-1
  6
ByLayer
 10
775.7043309323920539
 20
166.1905646165511143
 30
0.0
 11
785.7043309323920539
 21
166.1905646165511143
 31
0.0
  0
LINE
  5
71
100
AcDbEntity
100
AcDbLine
  8
0
 62
256
370
-1
  6
ByLayer
 10
785.7043309323920539
 20
166.1905646165511143
 30
0.0
 11
785.7043309323922813
 21
186.1905646165511143
 31
0.0
  0
LINE
  5
72
100
AcDbEntity
100
AcDbLine
  8
0
 62
256
370
-1
  6
ByLayer
 10
775.7043309323920539
 20
166.1905646165511143
 30
0.0
 11
775.7043309323922813
 21
186.1905646165513417
 31
0.0
  0
LINE
  5
73
100
AcDbEntity
100
AcDbLine
  8
0
 62
256
370
-1
  6
ByLayer
 10
775.7043309323922813
 20
214.1905646165511143
 30
0.0
 11
775.7043309323922813
 21
234.1905646165511143
 31
0.0
  0
LINE
  5
74
100
AcDbEntity
100
AcDbLine
  8
0
 62
256
370
-1
  6
ByLayer
 10
785.7043309323922813
 20
214.1905646165511143
 30
0.0
 11
785.7043309323922813
 21
234.1905646165511143
 31
0.0
  0
LINE
  5
75
100
AcDbEntity
100
AcDbLine
  8
0
 62
256
370
-1
  6
ByLayer
 10
771.7043309323922813
 20
166.1905646165511143
 30
0.0
 11
771.7043309323922813
 21
186.1905646165510007
 31
0.0
  0
LINE
  5
76
100
AcDbEntity
100
AcDbLine
  8
0
 62
256
370
-1
  6
ByLayer
 10
789.7043309323920539
 20
166.1905646165510007
 30
0.0
 11
789.7043309323922813
 21
186.1905646165511143
 31
0.0
  0
LINE
  5
77
100
AcDbEntity
100
AcDbLine
  8
0
 62
256
370
-1
  6
ByLayer
 10
789.7043309323922813
 20
214.1905646165510007
 30
0.0
 11
789.7043309323922813
 21
234.1905646165510007
 31
0.0
  0
LINE
  5
78
100
AcDbEntity
100
AcDbLine
  8
0
 62
256
370
-1
  6
ByLayer
 10
771.7043309323922813
 20
214.190564616551228
 30
0.0
 11
771.7043309323922813
 21
234.1905646165511143
 31
0.0
  0
LINE
  5
79
100
AcDbEntity
100
AcDbLine
  8
0
 62
256
370
-1
  6
ByLayer
 10
799.7043309323920539
 20
166.1905646165511143
 30
0.0
 11
799.7043309323922813
 21
186.1905646165511143
 31
0.0
  0
LINE
  5
7A
100
AcDbEntity
100
AcDbLine
  8
0
 62
256
370
-1
  6
ByLayer
 10
799.7043309323922813
 20
190.1905646165511143
 30
0.0
 11
799.7043309323922813
 21
210.1905646165510007
 31
0.0
  0
LINE
  5
7B
100
AcDbEntity
100
AcDbLine
  8
0
 62
256
370
-1
  6
ByLayer
 10
799.7043309323922813
 20
214.1905646165510007
 30
0.0
 11
799.7043309323922813
 21
234.1905646165511143
 31
0.0
  0
LINE
  5
7C
100
AcDbEntity
100
AcDbLine
  8
0
 62
256
370
-1
  6
ByLayer
 10
761.7043309323922813
 20
166.1905646165511143
 30
0.0
 11
761.7043309323922813
 21
186.190564616551228
 31
0.0
  0
LINE
  5
7D
100
AcDbEntity
100
AcDbLine
  8
0
 62
256
370
-1
  6
ByLayer
 10
761.7043309323922813
 20
190.190564616551228
 30
0.0
 11
761.7043309323922813
 21
210.1905646165511143
 31
0.0
  0
LINE
  5
7E
100
AcDbEntity
100
AcDbLine
  8
0
 62
256
370
-1
  6
ByLayer
 10
761.7043309323922813
 20
214.1905646165511143
 30
0.0
 11
761.7043309323922813
 21
234.1905646165511143
 31
0.0
  0
LINE
  5
7F
100
AcDbEntity
100
AcDbLine
  8
0
 62
256
370
-1
  6
ByLayer
 10
789.7043309323920539
 20
166.1905646165510007
 30
0.0
 11
799.7043309323920539
 21
166.1905646165511143
 31
0.0
  0
LINE
  5
80
100
AcDbEntity
100
AcDbLine
  8
0
 62
256
370
-1
  6
ByLayer
 10
761.7043309323922813
 20
166.1905646165511143
 30
0.0
 11
771.7043309323922813
 21
166.1905646165511143
 31
0.0
  0
LINE
  5
81
100
AcDbEntity
100
AcDbLine
  8
0
 62
256
370
-1
  6
ByLayer
 10
761.7043309323922813
 20
186.190564616551228
 30
0.0
 11
771.7043309323922813
 21
186.1905646165510007
 31
0.0
  0
LINE
  5
82
100
AcDbEntity
100
AcDbLine
  8
0
 62
256
370
-1
  6
ByLayer
 10
789.7043309323922813
 20
186.1905646165511143
 30
0.0
 11
799.7043309323922813
 21
186.1905646165511143
 31
0.0
  0
LINE
  5
83
100
AcDbEntity
100
AcDbLine
  8
0
 62
256
370
-1
  6
ByLayer
 10
761.7043309323922813
 20
190.190564616551228
 30
0.0
 11
771.7043309323922813
 21
190.1905646165511143
 31
0.0
  0
LINE
  5
84
100
AcDbEntity
100
AcDbLine
  8
0
 62
256
370
-1
  6
ByLayer
 10
789.7043309323920539
 20
190.1905646165511143
 30
0.0
 11
799.7043309323922813
 21
190.1905646165511143
 31
0.0
  0
LINE
  5
85
100
AcDbEntity
100
AcDbLine
  8
0
 62
256
370
-1
  6
ByLayer
 10
761.7043309323922813
 20
210.1905646165511143
 30
0.0
 11
771.7043309323922813
 21
210.1905646165511143
 31
0.0
  0
LINE
  5
86
100
AcDbEntity
100
AcDbLine
  8
0
 62
256
370
-1
  6
ByLayer
 10
789.7043309323922813
 20
210.1905646165511143
 30
0.0
 11
799.7043309323922813
 21
210.1905646165510007
 31
0.0
  0
LINE
  5
87
100
AcDbEntity
100
AcDbLine
  8
0
 62
256
370
-1
  6
ByLayer
 10
761.7043309323922813
 20
214.1905646165511143
 30
0.0
 11
771.7043309323922813
 21
214.190564616551228
 31
0.0
  0
LINE
  5
88
100
AcDbEntity
100
AcDbLine
  8
0
 62
256
370
-1
  6
ByLayer
 10
789.7043309323922813
 20
214.1905646165510007
 30
0.0
 11
799.7043309323922813
 21
214.1905646165510007
 31
0.0
  0
LINE
  5
89
100
AcDbEntity
100
AcDbLine
  8
0
 62
256
370
-1
  6
ByLayer
 10
761.7043309323922813
 20
234.1905646165511143
 30
0.0
 11
771.7043309323922813
 21
234.1905646165511143
 31
0.0
  0
LINE
  5
8A
100
AcDbEntity
100
AcDbLine
  8
0
 62
256
370
-1
  6
ByLayer
 10
789.7043309323922813
 20
234.1905646165510007
 30
0.0
 11
799.7043309323922813
 21
234.1905646165511143
 31
0.0
  0
LINE
  5
8B
100
AcDbEntity
100
AcDbLine
  8
0
 62
256
370
-1
  6
ByLayer
 10
691.7043309323920539
 20
190.3393686153862063
 30
0.0
 11
691.7043309323920539
 21
210.3393686153862063
 31
0.0
  0
LINE
  5
8C
100
AcDbEntity
100
AcDbLine
  8
0
 62
256
370
-1
  6
ByLayer
 10
701.7043309323920539
 20
190.3393686153862063
 30
0.0
 11
701.7043309323920539
 21
210.3393686153862063
 31
0.0
  0
LINE
  5
8D
100
AcDbEntity
100
AcDbLine
  8
0
 62
256
370
-1
  6
ByLayer
 10
705.7043309323922813
 20
190.33936861538632
 30
0.0
 11
705.7043309323920539
 21
210.3393686153864337
 31
0.0
  0
LINE
  5
8E
100
AcDbEntity
100
AcDbLine
  8
0
 62
256
370
-1
  6
ByLayer
 10
687.7043309323920539
 20
190.3393686153862063
 30
0.0
 11
687.7043309323920539
 21
210.3393686153862063
 31
0.0
  0
LINE
  5
8F
100
AcDbEntity
100
AcDbLine
  8
0
 62
256
370
-1
  6
ByLayer
 10
691.7043309323920539
 20
190.3393686153862063
 30
0.0
 11
701.7043309323920539
 21
190.3393686153862063
 31
0.0
  0
LINE
  5
90
100
AcDbEntity
100
AcDbLine
  8
0
 62
256
370
-1
  6
ByLayer
 10
691.7043309323920539
 20
210.3393686153862063
 30
0.0
 11
701.7043309323920539
 21
210.3393686153862063
 31
0.0
  0
LINE
  5
91
100
AcDbEntity
100
AcDbLine
  8
0
 62
256
370
-1
  6
ByLayer
 10
691.7043309323920539
 20
214.3393686153864337
 30
0.0
 11
701.7043309323920539
 21
214.3393686153864337
 31
0.0
  0
LINE
  5
92
100
AcDbEntity
100
AcDbLine
  8
0
 62
256
370
-1
  6
ByLayer
 10
691.7043309323920539
 20
186.3393686153862063
 30
0.0
 11
701.7043309323920539
 21
186.3393686153862063
 31
0.0
  0
LINE
  5
93
100
AcDbEntity
100
AcDbLine
  8
0
 62
256
370
-1
  6
ByLayer
 10
691.7043309323920539
 20
234.3393686153864337
 30
0.0
 11
701.7043309323920539
 21
234.3393686153864337
 31
0.0
  0
LINE
  5
94
100
AcDbEntity
100
AcDbLine
  8
0
 62
256
370
-1
  6
ByLayer
 10
691.7043309323920539
 20
166.3393686153864337
 30
0.0
 11
701.7043309323920539
 21
166.3393686153864337
 31
0.0
  0
LINE
  5
95
100
AcDbEntity
100
AcDbLine
  8
0
 62
256
370
-1
  6
ByLayer
 10
701.7043309323920539
 20
166.3393686153864337
 30
0.0
 11
701.7043309323920539
 21
186.3393686153862063
 31
0.0
  0
LINE
  5
96
100
AcDbEntity
100
AcDbLine
  8
0
 62
256
370
-1
  6
ByLayer
 10
691.7043309323920539
 20
166.3393686153864337
 30
0.0
 11
691.7043309323920539
 21
186.3393686153862063
 31
0.0
  0
LINE
  5
97
100
AcDbEntity
100
AcDbLine
  8
0
 62
256
370
-1
  6
ByLayer
 10
691.7043309323920539
 20
214.3393686153864337
 30
0.0
 11
691.7043309323920539
 21
234.3393686153864337
 31
0.0
  0
LINE
  5
98
100
AcDbEntity
100
AcDbLine
  8
0
 62
256
370
-1
  6
ByLayer
 10
701.7043309323920539
 20
214.3393686153864337
 30
0.0
 11
701.7043309323920539
 21
234.3393686153864337
 31
0.0
  0
LINE
  5
99
100
AcDbEntity
100
AcDbLine
  8
0
 62
256
370
-1
  6
ByLayer
 10
687.7043309323920539
 20
166.3393686153864337
 30
0.0
 11
687.7043309323920539
 21
186.3393686153864337
 31
0.0
  0
LINE
  5
9A
100
AcDbEntity
100
AcDbLine
  8
0
 62
256
370
-1
  6
ByLayer
 10
705.7043309323920539
 20
166.3393686153864337
 30
0.0
 11
705.7043309323920539
 21
186.3393686153864337
 31
0.0
  0
LINE
  5
9B
100
AcDbEntity
100
AcDbLine
  8
0
 62
256
370
-1
  6
ByLayer
 10
705.7043309323920539
 20
214.3393686153864337
 30
0.0
 11
705.7043309323922813
 21
234.3393686153864337
 31
0.0
  0
LINE
  5
9C
100
AcDbEntity
100
AcDbLine
  8
0
 62
256
370
-1
  6
ByLayer
 10
687.7043309323920539
 20
214.3393686153862063
 30
0.0
 11
687.7043309323920539
 21
234.3393686153862063
 31
0.0
  0
LINE
  5
9D
100
AcDbEntity
100
AcDbLine
  8
0
 62
256
370
-1
  6
ByLayer
 10
715.7043309323920539
 20
166.3393686153864337
 30
0.0
 11
715.7043309323922813
 21
186.3393686153862063
 31
0.0
  0
LINE
  5
9E
100
AcDbEntity
100
AcDbLine
  8
0
 62
256
370
-1
  6
ByLayer
 10
715.7043309323922813
 20
190.3393686153862063
 30
0.0
 11
715.7043309323922813
 21
210.3393686153862063
 31
0.0
  0
LINE
  5
9F
100
AcDbEntity
100
AcDbLine
  8
0
 62
256
370
-1
  6
ByLayer
 10
715.7043309323922813
 20
214.3393686153864337
 30
0.0
 11
715.7043309323922813
 21
234.3393686153864337
 31
0.0
  0
LINE
  5
A0
100
AcDbEntity
100
AcDbLine
  8
0
 62
256
370
-1
  6
ByLayer
 10
677.7043309323920539
 20
166.3393686153864337
 30
0.0
 11
677.7043309323920539
 21
186.3393686153862063
 31
0.0
  0
LINE
  5
A1
100
AcDbEntity
100
AcDbLine
  8
0
 62
256
370
-1
  6
ByLayer
 10
677.7043309323920539
 20
190.3393686153862063
 30
0.0
 11
677.7043309323920539
 21
210.3393686153864337
 31
0.0
  0
LINE
  5
A2
100
AcDbEntity
100
AcDbLine
  8
0
 62
256
370
-1
  6
ByLayer
 10
677.7043309323920539
 20
214.3393686153864337
 30
0.0
 11
677.7043309323922813
 21
234.3393686153862063
 31
0.0
  0
LINE
  5
A3
100
AcDbEntity
100
AcDbLine
  8
0
 62
256
370
-1
  6
ByLayer
 10
705.7043309323920539
 20
166.3393686153864337
 30
0.0
 11
715.7043309323920539
 21
166.3393686153864337
 31
0.0
  0
LINE
  5
A4
100
AcDbEntity
100
AcDbLine
  8
0
 62
256
370
-1
  6
ByLayer
 10
677.7043309323920539
 20
166.3393686153864337
 30
0.0
 11
687.7043309323920539
 21
166.3393686153864337
 31
0.0
  0
LINE
  5
A5
100
AcDbEntity
100
AcDbLine
  8
0
 62
256
370
-1
  6
ByLayer
 10
677.7043309323920539
 20
186.3393686153862063
 30
0.0
 11
687.7043309323920539
 21
186.3393686153864337
 31
0.0
  0
LINE
  5
A6
100
AcDbEntity
100
AcDbLine
  8
0
 62
256
370
-1
  6
ByLayer
 10
705.7043309323920539
 20
186.3393686153864337
 30
0.0
 11
715.7043309323922813
 21
186.3393686153862063
 31
0.0
  0
LINE
  5
A7
100
AcDbEntity
100
AcDbLine
  8
0
 62
256
370
-1
  6
ByLayer
 10
677.7043309323920539
 20
190.3393686153862063
 30
0.0
 11
687.7043309323920539
 21
190.3393686153862063
 31
0.0
  0
LINE
  5
A8
100
AcDbEntity
100
AcDbLine
  8
0
 62
256
370
-1
  6
ByLayer
 10
705.7043309323922813
 20
190.33936861538632
 30
0.0
 11
715.7043309323922813
 21
190.3393686153862063
 31
0.0
  0
LINE
  5
A9
100
AcDbEntity
100
AcDbLine
  8
0
 62
256
370
-1
  6
ByLayer
 10
677.7043309323920539
 20
210.3393686153864337
 30
0.0
 11
687.7043309323920539
 21
210.3393686153862063
 31
0.0
  0
LINE
  5
AA
100
AcDbEntity
100
AcDbLine
  8
0
 62
256
370
-1
  6
ByLayer
 10
705.7043309323920539
 20
210.3393686153864337
 30
0.0
 11
715.7043309323922813
 21
210.3393686153862063
 31
0.0
  0
LINE
  5
AB
100
AcDbEntity
100
AcDbLine
  8
0
 62
256
370
-1
  6
ByLayer
 10
677.7043309323920539
 20
214.3393686153864337
 30
0.0
 11
687.7043309323920539
 21
214.3393686153862063
 31
0.0
  0
LINE
  5
AC
100
AcDbEntity
100
AcDbLine
  8
0
 62
256
370
-1
  6
ByLayer
 10
705.7043309323920539
 20
214.3393686153864337
 30
0.0
 11
715.7043309323922813
 21
214.3393686153864337
 31
0.0
  0
LINE
  5
AD
100
AcDbEntity
100
AcDbLine
  8
0
 62
256
370
-1
  6
ByLayer
 10
677.7043309323922813
 20
234.3393686153862063
 30
0.0
 11
687.7043309323920539
 21
234.3393686153862063
 31
0.0
  0
LINE
  5
AE
100
AcDbEntity
100
AcDbLine
  8
0
 62
256
370
-1
  6
ByLayer
 10
705.7043309323920539
 20
234.3393686153862063
 30
0.0
 11
715.7043309323922813
 21
234.3393686153864337
 31
0.0
  0
LINE
  5
AF
100
AcDbEntity
100
AcDbLine
  8
0
 62
256
370
-1
  6
ByLayer
 10
719.7043309323922813
 20
190.264966615968774
 30
0.0
 11
719.7043309323922813
 21
210.264966615968774
 31
0.0
  0
LINE
  5
B0
100
AcDbEntity
100
AcDbLine
  8
0
 62
256
370
-1
  6
ByLayer
 10
729.7043309323922813
 20
190.264966615968774
 30
0.0
 11
729.7043309323922813
 21
210.264966615968774
 31
0.0
  0
LINE
  5
B1
100
AcDbEntity
100
AcDbLine
  8
0
 62
256
370
-1
  6
ByLayer
 10
733.7043309323922813
 20
190.264966615968774
 30
0.0
 11
733.7043309323922813
 21
210.264966615968774
 31
0.0
  0
LINE
  5
B2
100
AcDbEntity
100
AcDbLine
  8
0
 62
256
370
-1
  6
ByLayer
 10
715.7043309323922813
 20
190.264966615968774
 30
0.0
 11
715.7043309323922813
 21
210.264966615968774
 31
0.0
  0
LINE
  5
B3
100
AcDbEntity
100
AcDbLine
  8
0
 62
256
370
-1
  6
ByLayer
 10
719.7043309323922813
 20
190.264966615968774
 30
0.0
 11
729.7043309323922813
 21
190.264966615968774
 31
0.0
  0
LINE
  5
B4
100
AcDbEntity
100
AcDbLine
  8
0
 62
256
370
-1
  6
ByLayer
 10
719.7043309323922813
 20
210.264966615968774
 30
0.0
 11
729.7043309323922813
 21
210.264966615968774
 31
0.0
  0
LINE
  5
B5
100
AcDbEntity
100
AcDbLine
  8
0
 62
256
370
-1
  6
ByLayer
 10
719.7043309323922813
 20
214.264966615968774
 30
0.0
 11
729.7043309323922813
 21
214.264966615968774
 31
0.0
  0
LINE
  5
B6
100
AcDbEntity
100
AcDbLine
  8
0
 62
256
370
-1
  6
ByLayer
 10
719.7043309323922813
 20
186.264966615968774
 30
0.0
 11
729.7043309323922813
 21
186.264966615968774
 31
0.0
  0
LINE
  5
B7
100
AcDbEntity
100
AcDbLine
  8
0
 62
256
370
-1
  6
ByLayer
 10
719.7043309323922813
 20
234.264966615968774
 30
0.0
 11
729.7043309323922813
 21
234.264966615968774
 31
0.0
  0
LINE
  5
B8
100
AcDbEntity
100
AcDbLine
  8
0
 62
256
370
-1
  6
ByLayer
 10
719.7043309323920539
 20
166.264966615968774
 30
0.0
 11
729.7043309323922813
 21
166.264966615968774
 31
0.0
  0
LINE
  5
B9
100
AcDbEntity
100
AcDbLine
  8
0
 62
256
370
-1
  6
ByLayer
 10
729.7043309323922813
 20
166.264966615968774
 30
0.0
 11
729.7043309323922813
 21
186.264966615968774
 31
0.0
  0
LINE
  5
BA
100
AcDbEntity
100
AcDbLine
  8
0
 62
256
370
-1
  6
ByLayer
 10
719.7043309323920539
 20
166.264966615968774
 30
0.0
 11
719.7043309323922813
 21
186.264966615968774
 31
0.0
  0
LINE
  5
BB
100
AcDbEntity
100
AcDbLine
  8
0
 62
256
370
-1
  6
ByLayer
 10
719.7043309323922813
 20
214.264966615968774
 30
0.0
 11
719.7043309323922813
 21
234.264966615968774
 31
0.0
  0
LINE
  5
BC
100
AcDbEntity
100
AcDbLine
  8
0
 62
256
370
-1
  6
ByLayer
 10
729.7043309323922813
 20
214.264966615968774
 30
0.0
 11
729.7043309323922813
 21
234.264966615968774
 31
0.0
  0
LINE
  5
BD
100
AcDbEntity
100
AcDbLine
  8
0
 62
256
370
-1
  6
ByLayer
 10
715.7043309323922813
 20
166.264966615968774
 30
0.0
 11
715.7043309323922813
 21
186.264966615968774
 31
0.0
  0
LINE
  5
BE
100
AcDbEntity
100
AcDbLine
  8
0
 62
256
370
-1
  6
ByLayer
 10
733.7043309323920539
 20
166.264966615968774
 30
0.0
 11
733.7043309323922813
 21
186.264966615968774
 31
0.0
  0
LINE
  5
BF
100
AcDbEntity
100
AcDbLine
  8
0
 62
256
370
-1
  6
ByLayer
 10
733.7043309323922813
 20
214.264966615968774
 30
0.0
 11
733.7043309323922813
 21
234.264966615968774
 31
0.0
  0
LINE
  5
C0
100
AcDbEntity
100
AcDbLine
  8
0
 62
256
370
-1
  6
ByLayer
 10
715.7043309323922813
 20
214.264966615968774
 30
0.0
 11
715.7043309323922813
 21
234.264966615968774
 31
0.0
  0
LINE
  5
C1
100
AcDbEntity
100
AcDbLine
  8
0
 62
256
370
-1
  6
ByLayer
 10
743.7043309323920539
 20
166.264966615968774
 30
0.0
 11
743.7043309323920539
 21
186.2649666159688877
 31
0.0
  0
LINE
  5
C2
100
AcDbEntity
100
AcDbLine
  8
0
 62
256
370
-1
  6
ByLayer
 10
743.7043309323922813
 20
190.264966615968774
 30
0.0
 11
743.7043309323922813
 21
210.264966615968774
 31
0.0
  0
LINE
  5
C3
100
AcDbEntity
100
AcDbLine
  8
0
 62
256
370
-1
  6
ByLayer
 10
743.7043309323922813
 20
214.264966615968774
 30
0.0
 11
743.7043309323922813
 21
234.264966615968774
 31
0.0
  0
LINE
  5
C4
100
AcDbEntity
100
AcDbLine
  8
0
 62
256
370
-1
  6
ByLayer
 10
705.7043309323920539
 20
166.264966615968774
 30
0.0
 11
705.7043309323920539
 21
186.264966615968774
 31
0.0
  0
LINE
  5
C5
100
AcDbEntity
100
AcDbLine
  8
0
 62
256
370
-1
  6
ByLayer
 10
705.7043309323920539
 20
190.264966615968774
 30
0.0
 11
705.7043309323920539
 21
210.264966615968774
 31
0.0
  0
LINE
  5
C6
100
AcDbEntity
100
AcDbLine
  8
0
 62
256
370
-1
  6
ByLayer
 10
705.7043309323922813
 20
214.264966615968774
 30
0.0
 11
705.7043309323920539
 21
234.264966615968774
 31
0.0
  0
LINE
  5
C7
100
AcDbEntity
100
AcDbLine
  8
0
 62
256
370
-1
  6
ByLayer
 10
733.7043309323920539
 20
166.264966615968774
 30
0.0
 11
743.7043309323920539
 21
166.264966615968774
 31
0.0
  0
LINE
  5
C8
100
AcDbEntity
100
AcDbLine
  8
0
 62
256
370
-1
  6
ByLayer
 10
705.7043309323920539
 20
166.264966615968774
 30
0.0
 11
715.7043309323922813
 21
166.264966615968774
 31
0.0
  0
LINE
  5
C9
100
AcDbEntity
100
AcDbLine
  8
0
 62
256
370
-1
  6
ByLayer
 10
705.7043309323920539
 20
186.264966615968774
 30
0.0
 11
715.7043309323922813
 21
186.264966615968774
 31
0.0
  0
LINE
  5
CA
100
AcDbEntity
100
AcDbLine
  8
0
 62
256
370
-1
  6
ByLayer
 10
733.7043309323920539
 20
186.264966615968774
 30
0.0
 11
743.7043309323920539
 21
186.2649666159688877
 31
0.0
  0
LINE
  5
CB
100
AcDbEntity
100
AcDbLine
  8
0
 62
256
370
-1
  6
ByLayer
 10
705.7043309323920539
 20
190.264966615968774
 30
0.0
 11
715.7043309323922813
 21
190.264966615968774
 31
0.0
  0
LINE
  5
CC
100
AcDbEntity
100
AcDbLine
  8
0
 62
256
370
-1
  6
ByLayer
 10
733.7043309323922813
 20
190.264966615968774
 30
0.0
 11
743.7043309323922813
 21
190.264966615968774
 31
0.0
  0
LINE
  5
CD
100
AcDbEntity
100
AcDbLine
  8
0
 62
256
370
-1
  6
ByLayer
 10
705.7043309323920539
 20
210.264966615968774
 30
0.0
 11
715.7043309323922813
 21
210.264966615968774
 31
0.0
  0
LINE
  5
CE
100
AcDbEntity
100
AcDbLine
  8
0
 62
256
370
-1
  6
ByLayer
 10
733.7043309323922813
 20
210.264966615968774
 30
0.0
 11
743.7043309323922813
 21
210.264966615968774
 31
0.0
  0
LINE
  5
CF
100
AcDbEntity
100
AcDbLine
  8
0
 62
256
370
-1
  6
ByLayer
 10
705.7043309323922813
 20
214.264966615968774
 30
0.0
 11
715.7043309323922813
 21
214.264966615968774
 31
0.0
  0
LINE
  5
D0
100
AcDbEntity
100
AcDbLine
  8
0
 62
256
370
-1
  6
ByLayer
 10
733.7043309323922813
 20
214.264966615968774
 30
0.0
 11
743.7043309323922813
 21
214.264966615968774
 31
0.0
  0
LINE
  5
D1
100
AcDbEntity
100
AcDbLine
  8
0
 62
256
370
-1
  6
ByLayer
 10
705.7043309323920539
 20
234.264966615968774
 30
0.0
 11
715.7043309323922813
 21
234.264966615968774
 31
0.0
  0
LINE
  5
D2
100
AcDbEntity
100
AcDbLine
  8
0
 62
256
370
-1
  6
ByLayer
 10
733.7043309323922813
 20
234.264966615968774
 30
0.0
 11
743.7043309323922813
 21
234.264966615968774
 31
0.0
  0
LINE
  5
D3
100
AcDbEntity
100
AcDbLine
  8
0
 62
256
370
-1
  6
ByLayer
 10
635.7043309323920539
 20
190.413770614803866
 30
0.0
 11
635.7043309323920539
 21
210.413770614803866
 31
0.0
  0
LINE
  5
D4
100
AcDbEntity
100
AcDbLine
  8
0
 62
256
370
-1
  6
ByLayer
 10
645.7043309323922813
 20
190.4137706148037523
 30
0.0
 11
645.7043309323920539
 21
210.413770614803866
 31
0.0
  0
LINE
  5
D5
100
AcDbEntity
100
AcDbLine
  8
0
 62
256
370
-1
  6
ByLayer
 10
649.7043309323920539
 20
190.413770614803866
 30
0.0
 11
649.7043309323922813
 21
210.413770614803866
 31
0.0
  0
LINE
  5
D6
100
AcDbEntity
100
AcDbLine
  8
0
 62
256
370
-1
  6
ByLayer
 10
631.7043309323922813
 20
190.413770614803866
 30
0.0
 11
631.7043309323920539
 21
210.413770614803866
 31
0.0
  0
LINE
  5
D7
100
AcDbEntity
100
AcDbLine
  8
0
 62
256
370
-1
  6
ByLayer
 10
635.7043309323920539
 20
190.413770614803866
 30
0.0
 11
645.7043309323922813
 21
190.4137706148037523
 31
0.0
  0
LINE
  5
D8
100
AcDbEntity
100
AcDbLine
  8
0
 62
256
370
-1
  6
ByLayer
 10
635.7043309323920539
 20
210.413770614803866
 30
0.0
 11
645.7043309323920539
 21
210.413770614803866
 31
0.0
  0
LINE
  5
D9
100
AcDbEntity
100
AcDbLine
  8
0
 62
256
370
-1
  6
ByLayer
 10
635.7043309323920539
 20
214.413770614803866
 30
0.0
 11
645.7043309323920539
 21
214.413770614803866
 31
0.0
  0
LINE
  5
DA
100
AcDbEntity
100
AcDbLine
  8
0
 62
256
370
-1
  6
ByLayer
 10
635.7043309323922813
 20
186.413770614803866
 30
0.0
 11
645.7043309323922813
 21
186.413770614803866
 31
0.0
  0
LINE
  5
DB
100
AcDbEntity
100
AcDbLine
  8
0
 62
256
370
-1
  6
ByLayer
 10
635.7043309323920539
 20
234.413770614803866
 30
0.0
 11
645.7043309323920539
 21
234.413770614803866
 31
0.0
  0
LINE
  5
DC
100
AcDbEntity
100
AcDbLine
  8
0
 62
256
370
-1
  6
ByLayer
 10
635.7043309323920539
 20
166.4137706148037523
 30
0.0
 11
645.7043309323920539
 21
166.413770614803866
 31
0.0
  0
LINE
  5
DD
100
AcDbEntity
100
AcDbLine
  8
0
 62
256
370
-1
  6
ByLayer
 10
645.7043309323920539
 20
166.413770614803866
 30
0.0
 11
645.7043309323922813
 21
186.413770614803866
 31
0.0
  0
LINE
  5
DE
100
AcDbEntity
100
AcDbLine
  8
0
 62
256
370
-1
  6
ByLayer
 10
635.7043309323920539
 20
166.4137706148037523
 30
0.0
 11
635.7043309323922813
 21
186.413770614803866
 31
0.0
  0
LINE
  5
DF
100
AcDbEntity
100
AcDbLine
  8
0
 62
256
370
-1
  6
ByLayer
 10
635.7043309323920539
 20
214.413770614803866
 30
0.0
 11
635.7043309323920539
 21
234.413770614803866
 31
0.0
  0
LINE
  5
E0
100
AcDbEntity
100
AcDbLine
  8
0
 62
256
370
-1
  6
ByLayer
 10
645.7043309323920539
 20
214.413770614803866
 30
0.0
 11
645.7043309323920539
 21
234.413770614803866
 31
0.0
  0
LINE
  5
E1
100
AcDbEntity
100
AcDbLine
  8
0
 62
256
370
-1
  6
ByLayer
 10
631.7043309323920539
 20
166.413770614803866
 30
0.0
 11
631.7043309323920539
 21
186.413770614803866
 31
0.0
  0
LINE
  5
E2
100
AcDbEntity
100
AcDbLine
  8
0
 62
256
370
-1
  6
ByLayer
 10
649.7043309323920539
 20
166.413770614803866
 30
0.0
 11
649.7043309323920539
 21
186.413770614803866
 31
0.0
  0
LINE
  5
E3
100
AcDbEntity
100
AcDbLine
  8
0
 62
256
370
-1
  6
ByLayer
 10
649.7043309323920539
 20
214.413770614803866
 30
0.0
 11
649.7043309323920539
 21
234.413770614803866
 31
0.0
  0
LINE
  5
E4
100
AcDbEntity
100
AcDbLine
  8
0
 62
256
370
-1
  6
ByLayer
 10
631.7043309323922813
 20
214.413770614803866
 30
0.0
 11
631.7043309323922813
 21
234.413770614803866
 31
0.0
  0
LINE
  5
E5
100
AcDbEntity
100
AcDbLine
  8
0
 62
256
370
-1
  6
ByLayer
 10
659.7043309323920539
 20
166.413770614803866
 30
0.0
 11
659.7043309323920539
 21
186.4137706148037523
 31
0.0
  0
LINE
  5
E6
100
AcDbEntity
100
AcDbLine
  8
0
 62
256
370
-1
  6
ByLayer
 10
659.7043309323922813
 20
190.413770614803866
 30
0.0
 11
659.7043309323920539
 21
210.413770614803866
 31
0.0
  0
LINE
  5
E7
100
AcDbEntity
100
AcDbLine
  8
0
 62
256
370
-1
  6
ByLayer
 10
659.7043309323920539
 20
214.413770614803866
 30
0.0
 11
659.7043309323920539
 21
234.413770614803866
 31
0.0
  0
LINE
  5
E8
100
AcDbEntity
100
AcDbLine
  8
0
 62
256
370
-1
  6
ByLayer
 10
621.7043309323920539
 20
166.4137706148037523
 30
0.0
 11
621.7043309323920539
 21
186.413770614803866
 31
0.0
  0
LINE
  5
E9
100
AcDbEntity
100
AcDbLine
  8
0
 62
256
370
-1
  6
ByLayer
 10
621.7043309323920539
 20
190.413770614803866
 30
0.0
 11
621.7043309323920539
 21
210.413770614803866
 31
0.0
  0
LINE
  5
EA
100
AcDbEntity
100
AcDbLine
  8
0
 62
256
370
-1
  6
ByLayer
 10
621.7043309323920539
 20
214.413770614803866
 30
0.0
 11
621.7043309323922813
 21
234.413770614803866
 31
0.0
  0
LINE
  5
EB
100
AcDbEntity
100
AcDbLine
  8
0
 62
256
370
-1
  6
ByLayer
 10
649.7043309323920539
 20
166.413770614803866
 30
0.0
 11
659.7043309323920539
 21
166.413770614803866
 31
0.0
  0
LINE
  5
EC
100
AcDbEntity
100
AcDbLine
  8
0
 62
256
370
-1
  6
ByLayer
 10
621.7043309323920539
 20
166.4137706148037523
 30
0.0
 11
631.7043309323920539
 21
166.413770614803866
 31
0.0
  0
LINE
  5
ED
100
AcDbEntity
100
AcDbLine
  8
0
 62
256
370
-1
  6
ByLayer
 10
621.7043309323920539
 20
186.413770614803866
 30
0.0
 11
631.7043309323920539
 21
186.413770614803866
 31
0.0
  0
LINE
  5
EE
100
AcDbEntity
100
AcDbLine
  8
0
 62
256
370
-1
  6
ByLayer
 10
649.7043309323920539
 20
186.413770614803866
 30
0.0
 11
659.7043309323920539
 21
186.4137706148037523
 31
0.0
  0
LINE
  5
EF
100
AcDbEntity
100
AcDbLine
  8
0
 62
256
370
-1
  6
ByLayer
 10
621.7043309323920539
 20
190.413770614803866
 30
0.0
 11
631.7043309323922813
 21
190.413770614803866
 31
0.0
  0
LINE
  5
F0
100
AcDbEntity
100
AcDbLine
  8
0
 62
256
370
-1
  6
ByLayer
 10
649.7043309323920539
 20
190.413770614803866
 30
0.0
 11
659.7043309323922813
 21
190.413770614803866
 31
0.0
  0
LINE
  5
F1
100
AcDbEntity
100
AcDbLine
  8
0
 62
256
370
-1
  6
ByLayer
 10
621.7043309323920539
 20
210.413770614803866
 30
0.0
 11
631.7043309323920539
 21
210.413770614803866
 31
0.0
  0
LINE
  5
F2
100
AcDbEntity
100
AcDbLine
  8
0
 62
256
370
-1
  6
ByLayer
 10
649.7043309323922813
 20
210.413770614803866
 30
0.0
 11
659.7043309323920539
 21
210.413770614803866
 31
0.0
  0
LINE
  5
F3
100
AcDbEntity
100
AcDbLine
  8
0
 62
256
370
-1
  6
ByLayer
 10
621.7043309323920539
 20
214.413770614803866
 30
0.0
 11
631.7043309323922813
 21
214.413770614803866
 31
0.0
  0
LINE
  5
F4
100
AcDbEntity
100
AcDbLine
  8
0
 62
256
370
-1
  6
ByLayer
 10
649.7043309323920539
 20
214.413770614803866
 30
0.0
 11
659.7043309323920539
 21
214.413770614803866
 31
0.0
  0
LINE
  5
F5
100
AcDbEntity
100
AcDbLine
  8
0
 62
256
370
-1
  6
ByLayer
 10
621.7043309323922813
 20
234.413770614803866
 30
0.0
 11
631.7043309323920539
 21
234.413770614803866
 31
0.0
  0
LINE
  5
F6
100
AcDbEntity
100
AcDbLine
  8
0
 62
256
370
-1
  6
ByLayer
 10
649.7043309323920539
 20
234.413770614803866
 30
0.0
 11
659.7043309323920539
 21
234.413770614803866
 31
0.0
  0
LINE
  5
F7
100
AcDbEntity
100
AcDbLine
  8
0
 62
256
370
-1
  6
ByLayer
 10
663.7043309323922813
 20
190.3393686153862063
 30
0.0
 11
663.7043309323920539
 21
210.3393686153864337
 31
0.0
  0
LINE
  5
F8
100
AcDbEntity
100
AcDbLine
  8
0
 62
256
370
-1
  6
ByLayer
 10
673.7043309323920539
 20
190.3393686153862063
 30
0.0
 11
673.7043309323920539
 21
210.3393686153862063
 31
0.0
  0
LINE
  5
F9
100
AcDbEntity
100
AcDbLine
  8
0
 62
256
370
-1
  6
ByLayer
 10
677.7043309323920539
 20
190.3393686153862063
 30
0.0
 11
677.7043309323920539
 21
210.3393686153864337
 31
0.0
  0
LINE
  5
FA
100
AcDbEntity
100
AcDbLine
  8
0
 62
256
370
-1
  6
ByLayer
 10
659.7043309323920539
 20
190.3393686153862063
 30
0.0
 11
659.7043309323920539
 21
210.3393686153864337
 31
0.0
  0
LINE
  5
FB
100
AcDbEntity
100
AcDbLine
  8
0
 62
256
370
-1
  6
ByLayer
 10
663.7043309323922813
 20
190.3393686153862063
 30
0.0
 11
673.7043309323920539
 21
190.3393686153862063
 31
0.0
  0
LINE
  5
FC
100
AcDbEntity
100
AcDbLine
  8
0
 62
256
370
-1
  6
ByLayer
 10
663.7043309323920539
 20
210.3393686153864337
 30
0.0
 11
673.7043309323920539
 21
210.3393686153862063
 31
0.0
  0
LINE
  5
FD
100
AcDbEntity
100
AcDbLine
  8
0
 62
256
370
-1
  6
ByLayer
 10
663.7043309323920539
 20
214.3393686153864337
 30
0.0
 11
673.7043309323920539
 21
214.3393686153864337
 31
0.0
  0
LINE
  5
FE
100
AcDbEntity
100
AcDbLine
  8
0
 62
256
370
-1
  6
ByLayer
 10
663.7043309323922813
 20
186.3393686153862063
 30
0.0
 11
673.7043309323920539
 21
186.3393686153864337
 31
0.0
  0
LINE
  5
FF
100
AcDbEntity
100
AcDbLine
  8
0
 62
256
370
-1
  6
ByLayer
 10
663.7043309323922813
 20
234.33936861538632
 30
0.0
 11
673.7043309323920539
 21
234.3393686153862063
 31
0.0
  0
LINE
  5
100
100
AcDbEntity
100
AcDbLine
  8
0
 62
256
370
-1
  6
ByLayer
 10
663.7043309323920539
 20
166.3393686153862063
 30
0.0
 11
673.7043309323920539
 21
166.3393686153864337
 31
0.0
  0
LINE
  5
101
100
AcDbEntity
100
AcDbLine
  8
0
 62
256
370
-1
  6
ByLayer
 10
673.7043309323920539
 20
166.3393686153864337
 30
0.0
 11
673.7043309323920539
 21
186.3393686153864337
 31
0.0
  0
LINE
  5
102
100
AcDbEntity
100
AcDbLine
  8
0
 62
256
370
-1
  6
ByLayer
 10
663.7043309323920539
 20
166.3393686153862063
 30
0.0
 11
663.7043309323922813
 21
186.3393686153862063
 31
0.0
  0
LINE
  5
103
100
AcDbEntity
100
AcDbLine
  8
0
 62
256
370
-1
  6
ByLayer
 10
663.7043309323920539
 20
214.3393686153864337
 30
0.0
 11
663.7043309323922813
 21
234.33936861538632
 31
0.0
  0
LINE
  5
104
100
AcDbEntity
100
AcDbLine
  8
0
 62
256
370
-1
  6
ByLayer
 10
673.7043309323920539
 20
214.3393686153864337
 30
0.0
 11
673.7043309323920539
 21
234.3393686153862063
 31
0.0
  0
LINE
  5
105
100
AcDbEntity
100
AcDbLine
  8
0
 62
256
370
-1
  6
ByLayer
 10
659.7043309323920539
 20
166.3393686153864337
 30
0.0
 11
659.7043309323920539
 21
186.3393686153862063
 31
0.0
  0
LINE
  5
106
100
AcDbEntity
100
AcDbLine
  8
0
 62
256
370
-1
  6
ByLayer
 10
677.7043309323920539
 20
166.3393686153864337
 30
0.0
 11
677.7043309323920539
 21
186.3393686153862063
 31
0.0
  0
LINE
  5
107
100
AcDbEntity
100
AcDbLine
  8
0
 62
256
370
-1
  6
ByLayer
 10
677.7043309323920539
 20
214.3393686153864337
 30
0.0
 11
677.7043309323922813
 21
234.3393686153862063
 31
0.0
  0
LINE
  5
108
100
AcDbEntity
100
AcDbLine
  8
0
 62
256
370
-1
  6
ByLayer
 10
659.7043309323922813
 20
214.3393686153862063
 30
0.0
 11
659.7043309323920539
 21
234.3393686153862063
 31
0.0
  0
LINE
  5
109
100
AcDbEntity
100
AcDbLine
  8
0
 62
256
370
-1
  6
ByLayer
 10
687.7043309323920539
 20
166.3393686153864337
 30
0.0
 11
687.7043309323920539
 21
186.3393686153864337
 31
0.0
  0
LINE
  5
10A
100
AcDbEntity
100
AcDbLine
  8
0
 62
256
370
-1
  6
ByLayer
 10
687.7043309323920539
 20
190.3393686153862063
 30
0.0
 11
687.7043309323920539
 21
210.3393686153862063
 31
0.0
  0
LINE
  5
10B
100
AcDbEntity
100
AcDbLine
  8
0
 62
256
370
-1
  6
ByLayer
 10
687.7043309323920539
 20
214.3393686153862063
 30
0.0
 11
687.7043309323920539
 21
234.3393686153862063
 31
0.0
  0
LINE
  5
10C
100
AcDbEntity
100
AcDbLine
  8
0
 62
256
370
-1
  6
ByLayer
 10
649.7043309323920539
 20
166.3393686153862063
 30
0.0
 11
649.7043309323920539
 21
186.3393686153864337
 31
0.0
  0
LINE
  5
10D
100
AcDbEntity
100
AcDbLine
  8
0
 62
256
370
-1
  6
ByLayer
 10
649.7043309323920539
 20
190.3393686153862063
 30
0.0
 11
649.7043309323920539
 21
210.3393686153862063
 31
0.0
  0
LINE
  5
10E
100
AcDbEntity
100
AcDbLine
  8
0
 62
256
370
-1
  6
ByLayer
 10
649.7043309323922813
 20
214.3393686153864337
 30
0.0
 11
649.7043309323920539
 21
234.3393686153864337
 31
0.0
  0
LINE
  5
10F
100
AcDbEntity
100
AcDbLine
  8
0
 62
256
370
-1
  6
ByLayer
 10
677.7043309323920539
 20
166.3393686153864337
 30
0.0
 11
687.7043309323920539
 21
166.3393686153864337
 31
0.0
  0
LINE
  5
110
100
AcDbEntity
100
AcDbLine
  8
0
 62
256
370
-1
  6
ByLayer
 10
649.7043309323920539
 20
166.3393686153862063
 30
0.0
 11
659.7043309323920539
 21
166.3393686153864337
 31
0.0
  0
LINE
  5
111
100
AcDbEntity
100
AcDbLine
  8
0
 62
256
370
-1
  6
ByLayer
 10
649.7043309323920539
 20
186.3393686153864337
 30
0.0
 11
659.7043309323920539
 21
186.3393686153862063
 31
0.0
  0
LINE
  5
112
100
AcDbEntity
100
AcDbLine
  8
0
 62
256
370
-1
  6
ByLayer
 10
677.7043309323920539
 20
186.3393686153862063
 30
0.0
 11
687.7043309323920539
 21
186.3393686153864337
 31
0.0
  0
LINE
  5
113
100
AcDbEntity
100
AcDbLine
  8
0
 62
256
370
-1
  6
ByLayer
 10
649.7043309323920539
 20
190.3393686153862063
 30
0.0
 11
659.7043309323920539
 21
190.3393686153862063
 31
0.0
  0
LINE
  5
114
100
AcDbEntity
100
AcDbLine
  8
0
 62
256
370
-1
  6
ByLayer
 10
677.7043309323920539
 20
190.3393686153862063
 30
0.0
 11
687.7043309323920539
 21
190.3393686153862063
 31
0.0
  0
LINE
  5
115
100
AcDbEntity
100
AcDbLine
  8
0
 62
256
370
-1
  6
ByLayer
 10
649.7043309323920539
 20
210.3393686153862063
 30
0.0
 11
659.7043309323920539
 21
210.3393686153864337
 31
0.0
  0
LINE
  5
116
100
AcDbEntity
100
AcDbLine
  8
0
 62
256
370
-1
  6
ByLayer
 10
677.7043309323920539
 20
210.3393686153864337
 30
0.0
 11
687.7043309323920539
 21
210.3393686153862063
 31
0.0
  0
LINE
  5
117
100
AcDbEntity
100
AcDbLine
  8
0
 62
256
370
-1
  6
ByLayer
 10
649.7043309323922813
 20
214.3393686153864337
 30
0.0
 11
659.7043309323922813
 21
214.3393686153862063
 31
0.0
  0
LINE
  5
118
100
AcDbEntity
100
AcDbLine
  8
0
 62
256
370
-1
  6
ByLayer
 10
677.7043309323920539
 20
214.3393686153864337
 30
0.0
 11
687.7043309323920539
 21
214.3393686153862063
 31
0.0
  0
LINE
  5
119
100
AcDbEntity
100
AcDbLine
  8
0
 62
256
370
-1
  6
ByLayer
 10
649.7043309323922813
 20
234.3393686153864337
 30
0.0
 11
659.7043309323920539
 21
234.3393686153862063
 31
0.0
  0
LINE
  5
11A
100
AcDbEntity
100
AcDbLine
  8
0
 62
256
370
-1
  6
ByLayer
 10
677.7043309323922813
 20
234.3393686153862063
 30
0.0
 11
687.7043309323920539
 21
234.3393686153862063
 31
0.0
  0
LINE
  5
11B
100
AcDbEntity
100
AcDbLine
  8
0
 62
256
370
-1
  6
ByLayer
 10
607.7043309323920539
 20
190.413770614803866
 30
0.0
 11
607.7043309323922813
 21
210.413770614803866
 31
0.0
  0
LINE
  5
11C
100
AcDbEntity
100
AcDbLine
  8
0
 62
256
370
-1
  6
ByLayer
 10
617.7043309323920539
 20
190.413770614803866
 30
0.0
 11
617.7043309323920539
 21
210.413770614803866
 31
0.0
  0
LINE
  5
11D
100
AcDbEntity
100
AcDbLine
  8
0
 62
256
370
-1
  6
ByLayer
 10
621.7043309323920539
 20
190.413770614803866
 30
0.0
 11
621.7043309323920539
 21
210.413770614803866
 31
0.0
  0
LINE
  5
11E
100
AcDbEntity
100
AcDbLine
  8
0
 62
256
370
-1
  6
ByLayer
 10
607.7043309323920539
 20
190.413770614803866
 30
0.0
 11
617.7043309323920539
 21
190.413770614803866
 31
0.0
  0
LINE
  5
11F
100
AcDbEntity
100
AcDbLine
  8
0
 62
256
370
-1
  6
ByLayer
 10
607.7043309323922813
 20
210.413770614803866
 30
0.0
 11
617.7043309323920539
 21
210.413770614803866
 31
0.0
  0
LINE
  5
120
100
AcDbEntity
100
AcDbLine
  8
0
 62
256
370
-1
  6
ByLayer
 10
607.7043309323920539
 20
214.4137706148037523
 30
0.0
 11
617.7043309323920539
 21
214.413770614803866
 31
0.0
  0
LINE
  5
121
100
AcDbEntity
100
AcDbLine
  8
0
 62
256
370
-1
  6
ByLayer
 10
607.7043309323920539
 20
186.413770614803866
 30
0.0
 11
617.7043309323920539
 21
186.413770614803866
 31
0.0
  0
LINE
  5
122
100
AcDbEntity
100
AcDbLine
  8
0
 62
256
370
-1
  6
ByLayer
 10
607.7043309323920539
 20
234.4137706148039797
 30
0.0
 11
617.7043309323920539
 21
234.413770614803866
 31
0.0
  0
LINE
  5
123
100
AcDbEntity
100
AcDbLine
  8
0
 62
256
370
-1
  6
ByLayer
 10
607.7043309323920539
 20
166.413770614803866
 30
0.0
 11
617.7043309323920539
 21
166.413770614803866
 31
0.0
  0
LINE
  5
124
100
AcDbEntity
100
AcDbLine
  8
0
 62
256
370
-1
  6
ByLayer
 10
617.7043309323920539
 20
166.413770614803866
 30
0.0
 11
617.7043309323920539
 21
186.413770614803866
 31
0.0
  0
LINE
  5
125
100
AcDbEntity
100
AcDbLine
  8
0
 62
256
370
-1
  6
ByLayer
 10
607.7043309323920539
 20
166.413770614803866
 30
0.0
 11
607.7043309323920539
 21
186.413770614803866
 31
0.0
  0
LINE
  5
126
100
AcDbEntity
100
AcDbLine
  8
0
 62
256
370
-1
  6
ByLayer
 10
607.7043309323920539
 20
214.4137706148037523
 30
0.0
 11
607.7043309323920539
 21
234.4137706148039797
 31
0.0
  0
LINE
  5
127
100
AcDbEntity
100
AcDbLine
  8
0
 62
256
370
-1
  6
ByLayer
 10
617.7043309323920539
 20
214.413770614803866
 30
0.0
 11
617.7043309323920539
 21
234.413770614803866
 31
0.0
  0
LINE
  5
128
100
AcDbEntity
100
AcDbLine
  8
0
 62
256
370
-1
  6
ByLayer
 10
621.7043309323920539
 20
166.4137706148037523
 30
0.0
 11
621.7043309323920539
 21
186.413770614803866
 31
0.0
  0
LINE
  5
129
100
AcDbEntity
100
AcDbLine
  8
0
 62
256
370
-1
  6
ByLayer
 10
621.7043309323920539
 20
214.413770614803866
 30
0.0
 11
621.7043309323922813
 21
234.413770614803866
 31
0.0
  0
LINE
  5
12A
100
AcDbEntity
100
AcDbLine
  8
0
 62
256
370
-1
  6
ByLayer
 10
631.7043309323920539
 20
166.413770614803866
 30
0.0
 11
631.7043309323920539
 21
186.413770614803866
 31
0.0
  0
LINE
  5
12B
100
AcDbEntity
100
AcDbLine
  8
0
 62
256
370
-1
  6
ByLayer
 10
631.7043309323922813
 20
190.413770614803866
 30
0.0
 11
631.7043309323920539
 21
210.413770614803866
 31
0.0
  0
LINE
  5
12C
100
AcDbEntity
100
AcDbLine
  8
0
 62
256
370
-1
  6
ByLayer
 10
631.7043309323922813
 20
214.413770614803866
 30
0.0
 11
631.7043309323922813
 21
234.413770614803866
 31
0.0
  0
LINE
  5
12D
100
AcDbEntity
100
AcDbLine
  8
0
 62
256
370
-1
  6
ByLayer
 10
621.7043309323920539
 20
166.4137706148037523
 30
0.0
 11
631.7043309323920539
 21
166.413770614803866
 31
0.0
  0
LINE
  5
12E
100
AcDbEntity
100
AcDbLine
  8
0
 62
256
370
-1
  6
ByLayer
 10
621.7043309323920539
 20
186.413770614803866
 30
0.0
 11
631.7043309323920539
 21
186.413770614803866
 31
0.0
  0
LINE
  5
12F
100
AcDbEntity
100
AcDbLine
  8
0
 62
256
370
-1
  6
ByLayer
 10
621.7043309323920539
 20
190.413770614803866
 30
0.0
 11
631.7043309323922813
 21
190.413770614803866
 31
0.0
  0
LINE
  5
130
100
AcDbEntity
100
AcDbLine
  8
0
 62
256
370
-1
  6
ByLayer
 10
621.7043309323920539
 20
210.413770614803866
 30
0.0
 11
631.7043309323920539
 21
210.413770614803866
 31
0.0
  0
LINE
  5
131
100
AcDbEntity
100
AcDbLine
  8
0
 62
256
370
-1
  6
ByLayer
 10
621.7043309323920539
 20
214.413770614803866
 30
0.0
 11
631.7043309323922813
 21
214.413770614803866
 31
0.0
  0
LINE
  5
132
100
AcDbEntity
100
AcDbLine
  8
0
 62
256
370
-1
  6
ByLayer
 10
621.7043309323920539
 20
234.413770614803866
 30
0.0
 11
631.7043309323922813
 21
234.413770614803866
 31
0.0
  0
LINE
  5
133
100
AcDbEntity
100
AcDbLine
  8
0
 62
256
370
-1
  6
ByLayer
 10
971.7043309323922813
 20
189.96735861829859
 30
0.0
 11
971.7043309323922813
 21
209.96735861829859
 31
0.0
  0
LINE
  5
134
100
AcDbEntity
100
AcDbLine
  8
0
 62
256
370
-1
  6
ByLayer
 10
981.7043309323922813
 20
189.96735861829859
 30
0.0
 11
981.7043309323922813
 21
209.96735861829859
 31
0.0
  0
LINE
  5
135
100
AcDbEntity
100
AcDbLine
  8
0
 62
256
370
-1
  6
ByLayer
 10
985.7043309323922813
 20
189.96735861829859
 30
0.0
 11
985.7043309323922813
 21
209.96735861829859
 31
0.0
  0
LINE
  5
136
100
AcDbEntity
100
AcDbLine
  8
0
 62
256
370
-1
  6
ByLayer
 10
967.7043309323920539
 20
189.96735861829859
 30
0.0
 11
967.7043309323920539
 21
209.96735861829859
 31
0.0
  0
LINE
  5
137
100
AcDbEntity
100
AcDbLine
  8
0
 62
256
370
-1
  6
ByLayer
 10
971.7043309323922813
 20
189.96735861829859
 30
0.0
 11
981.7043309323922813
 21
189.96735861829859
 31
0.0
  0
LINE
  5
138
100
AcDbEntity
100
AcDbLine
  8
0
 62
256
370
-1
  6
ByLayer
 10
971.7043309323922813
 20
209.96735861829859
 30
0.0
 11
981.7043309323922813
 21
209.96735861829859
 31
0.0
  0
LINE
  5
139
100
AcDbEntity
100
AcDbLine
  8
0
 62
256
370
-1
  6
ByLayer
 10
971.7043309323922813
 20
213.96735861829859
 30
0.0
 11
981.7043309323922813
 21
213.96735861829859
 31
0.0
  0
LINE
  5
13A
100
AcDbEntity
100
AcDbLine
  8
0
 62
256
370
-1
  6
ByLayer
 10
971.7043309323922813
 20
185.96735861829859
 30
0.0
 11
981.7043309323922813
 21
185.96735861829859
 31
0.0
  0
LINE
  5
13B
100
AcDbEntity
100
AcDbLine
  8
0
 62
256
370
-1
  6
ByLayer
 10
971.7043309323920539
 20
233.96735861829859
 30
0.0
 11
981.7043309323922813
 21
233.96735861829859
 31
0.0
  0
LINE
  5
13C
100
AcDbEntity
100
AcDbLine
  8
0
 62
256
370
-1
  6
ByLayer
 10
971.7043309323922813
 20
165.96735861829859
 30
0.0
 11
981.7043309323922813
 21
165.96735861829859
 31
0.0
  0
LINE
  5
13D
100
AcDbEntity
100
AcDbLine
  8
0
 62
256
370
-1
  6
ByLayer
 10
981.7043309323922813
 20
165.96735861829859
 30
0.0
 11
981.7043309323922813
 21
185.96735861829859
 31
0.0
  0
LINE
  5
13E
100
AcDbEntity
100
AcDbLine
  8
0
 62
256
370
-1
  6
ByLayer
 10
971.7043309323922813
 20
165.96735861829859
 30
0.0
 11
971.7043309323922813
 21
185.96735861829859
 31
0.0
  0
LINE
  5
13F
100
AcDbEntity
100
AcDbLine
  8
0
 62
256
370
-1
  6
ByLayer
 10
971.7043309323922813
 20
213.96735861829859
 30
0.0
 11
971.7043309323920539
 21
233.96735861829859
 31
0.0
  0
LINE
  5
140
100
AcDbEntity
100
AcDbLine
  8
0
 62
256
370
-1
  6
ByLayer
 10
981.7043309323922813
 20
213.96735861829859
 30
0.0
 11
981.7043309323922813
 21
233.96735861829859
 31
0.0
  0
LINE
  5
141
100
AcDbEntity
100
AcDbLine
  8
0
 62
256
370
-1
  6
ByLayer
 10
967.7043309323920539
 20
165.96735861829859
 30
0.0
 11
967.7043309323920539
 21
185.9673586182984764
 31
0.0
  0
LINE
  5
142
100
AcDbEntity
100
AcDbLine
  8
0
 62
256
370
-1
  6
ByLayer
 10
985.7043309323920539
 20
165.9673586182984764
 30
0.0
 11
985.7043309323922813
 21
185.96735861829859
 31
0.0
  0
LINE
  5
143
100
AcDbEntity
100
AcDbLine
  8
0
 62
256
370
-1
  6
ByLayer
 10
985.7043309323920539
 20
213.96735861829859
 30
0.0
 11
985.7043309323922813
 21
233.96735861829859
 31
0.0
  0
LINE
  5
144
100
AcDbEntity
100
AcDbLine
  8
0
 62
256
370
-1
  6
ByLayer
 10
967.7043309323922813
 20
213.96735861829859
 30
0.0
 11
967.7043309323922813
 21
233.96735861829859
 31
0.0
  0
LINE
  5
145
100
AcDbEntity
100
AcDbLine
  8
0
 62
256
370
-1
  6
ByLayer
 10
995.7043309323922813
 20
165.96735861829859
 30
0.0
 11
995.7043309323920539
 21
185.96735861829859
 31
0.0
  0
LINE
  5
146
100
AcDbEntity
100
AcDbLine
  8
0
 62
256
370
-1
  6
ByLayer
 10
995.7043309323922813
 20
189.9673586182983627
 30
0.0
 11
995.7043309323922813
 21
209.96735861829859
 31
0.0
  0
LINE
  5
147
100
AcDbEntity
100
AcDbLine
  8
0
 62
256
370
-1
  6
ByLayer
 10
995.7043309323922813
 20
213.96735861829859
 30
0.0
 11
995.7043309323922813
 21
233.96735861829859
 31
0.0
  0
LINE
  5
148
100
AcDbEntity
100
AcDbLine
  8
0
 62
256
370
-1
  6
ByLayer
 10
957.7043309323920539
 20
165.96735861829859
 30
0.0
 11
957.7043309323922813
 21
185.96735861829859
 31
0.0
  0
LINE
  5
149
100
AcDbEntity
100
AcDbLine
  8
0
 62
256
370
-1
  6
ByLayer
 10
957.7043309323920539
 20
189.96735861829859
 30
0.0
 11
957.7043309323922813
 21
209.96735861829859
 31
0.0
  0
LINE
  5
14A
100
AcDbEntity
100
AcDbLine
  8
0
 62
256
370
-1
  6
ByLayer
 10
957.7043309323922813
 20
213.96735861829859
 30
0.0
 11
957.7043309323920539
 21
233.96735861829859
 31
0.0
  0
LINE
  5
14B
100
AcDbEntity
100
AcDbLine
  8
0
 62
256
370
-1
  6
ByLayer
 10
985.7043309323920539
 20
165.9673586182984764
 30
0.0
 11
995.7043309323922813
 21
165.96735861829859
 31
0.0
  0
LINE
  5
14C
100
AcDbEntity
100
AcDbLine
  8
0
 62
256
370
-1
  6
ByLayer
 10
957.7043309323920539
 20
165.96735861829859
 30
0.0
 11
967.7043309323920539
 21
165.96735861829859
 31
0.0
  0
LINE
  5
14D
100
AcDbEntity
100
AcDbLine
  8
0
 62
256
370
-1
  6
ByLayer
 10
957.7043309323922813
 20
185.96735861829859
 30
0.0
 11
967.7043309323920539
 21
185.9673586182984764
 31
0.0
  0
LINE
  5
14E
100
AcDbEntity
100
AcDbLine
  8
0
 62
256
370
-1
  6
ByLayer
 10
985.7043309323922813
 20
185.96735861829859
 30
0.0
 11
995.7043309323920539
 21
185.96735861829859
 31
0.0
  0
LINE
  5
14F
100
AcDbEntity
100
AcDbLine
  8
0
 62
256
370
-1
  6
ByLayer
 10
957.7043309323920539
 20
189.96735861829859
 30
0.0
 11
967.7043309323920539
 21
189.96735861829859
 31
0.0
  0
LINE
  5
150
100
AcDbEntity
100
AcDbLine
  8
0
 62
256
370
-1
  6
ByLayer
 10
985.7043309323922813
 20
189.96735861829859
 30
0.0
 11
995.7043309323922813
 21
189.9673586182983627
 31
0.0
  0
LINE
  5
151
100
AcDbEntity
100
AcDbLine
  8
0
 62
256
370
-1
  6
ByLayer
 10
957.7043309323922813
 20
209.96735861829859
 30
0.0
 11
967.7043309323920539
 21
209.96735861829859
 31
0.0
  0
LINE
  5
152
100
AcDbEntity
100
AcDbLine
  8
0
 62
256
370
-1
  6
ByLayer
 10
985.7043309323922813
 20
209.96735861829859
 30
0.0
 11
995.7043309323922813
 21
209.96735861829859
 31
0.0
  0
LINE
  5
153
100
AcDbEntity
100
AcDbLine
  8
0
 62
256
370
-1
  6
ByLayer
 10
957.7043309323922813
 20
213.96735861829859
 30
0.0
 11
967.7043309323922813
 21
213.96735861829859
 31
0.0
  0
LINE
  5
154
100
AcDbEntity
100
AcDbLine
  8
0
 62
256
370
-1
  6
ByLayer
 10
985.7043309323920539
 20
213.96735861829859
 30
0.0
 11
995.7043309323922813
 21
213.96735861829859
 31
0.0
  0
LINE
  5
155
100
AcDbEntity
100
AcDbLine
  8
0
 62
256
370
-1
  6
ByLayer
 10
957.7043309323920539
 20
233.96735861829859
 30
0.0
 11
967.7043309323922813
 21
233.96735861829859
 31
0.0
  0
LINE
  5
156
100
AcDbEntity
100
AcDbLine
  8
0
 62
256
370
-1
  6
ByLayer
 10
985.7043309323922813
 20
233.96735861829859
 30
0.0
 11
995.7043309323922813
 21
233.96735861829859
 31
0.0
  0
LINE
  5
157
100
AcDbEntity
100
AcDbLine
  8
0
 62
256
370
-1
  6
ByLayer
 10
999.7043309323920539
 20
189.8929566188808167
 30
0.0
 11
999.7043309323920539
 21
209.8929566188809304
 31
0.0
  0
LINE
  5
158
100
AcDbEntity
100
AcDbLine
  8
0
 62
256
370
-1
  6
ByLayer
 10
1009.7043309323922813
 20
189.8929566188809304
 30
0.0
 11
1009.7043309323922813
 21
209.8929566188809304
 31
0.0
  0
LINE
  5
159
100
AcDbEntity
100
AcDbLine
  8
0
 62
256
370
-1
  6
ByLayer
 10
1013.7043309323922813
 20
189.8929566188809304
 30
0.0
 11
1013.7043309323922813
 21
209.8929566188809304
 31
0.0
  0
LINE
  5
15A
100
AcDbEntity
100
AcDbLine
  8
0
 62
256
370
-1
  6
ByLayer
 10
995.7043309323922813
 20
189.8929566188809304
 30
0.0
 11
995.7043309323920539
 21
209.8929566188811577
 31
0.0
  0
LINE
  5
15B
100
AcDbEntity
100
AcDbLine
  8
0
 62
256
370
-1
  6
ByLayer
 10
999.7043309323920539
 20
189.8929566188808167
 30
0.0
 11
1009.7043309323922813
 21
189.8929566188809304
 31
0.0
  0
LINE
  5
15C
100
AcDbEntity
100
AcDbLine
  8
0
 62
256
370
-1
  6
ByLayer
 10
999.7043309323920539
 20
209.8929566188809304
 30
0.0
 11
1009.7043309323922813
 21
209.8929566188809304
 31
0.0
  0
LINE
  5
15D
100
AcDbEntity
100
AcDbLine
  8
0
 62
256
370
-1
  6
ByLayer
 10
999.7043309323922813
 20
213.8929566188810441
 30
0.0
 11
1009.7043309323922813
 21
213.8929566188809304
 31
0.0
  0
LINE
  5
15E
100
AcDbEntity
100
AcDbLine
  8
0
 62
256
370
-1
  6
ByLayer
 10
999.7043309323922813
 20
185.8929566188809304
 30
0.0
 11
1009.7043309323922813
 21
185.8929566188811577
 31
0.0
  0
LINE
  5
15F
100
AcDbEntity
100
AcDbLine
  8
0
 62
256
370
-1
  6
ByLayer
 10
999.7043309323922813
 20
233.8929566188809304
 30
0.0
 11
1009.7043309323922813
 21
233.8929566188808167
 31
0.0
  0
LINE
  5
160
100
AcDbEntity
100
AcDbLine
  8
0
 62
256
370
-1
  6
ByLayer
 10
999.7043309323920539
 20
165.8929566188809304
 30
0.0
 11
1009.7043309323920539
 21
165.8929566188808167
 31
0.0
  0
LINE
  5
161
100
AcDbEntity
100
AcDbLine
  8
0
 62
256
370
-1
  6
ByLayer
 10
1009.7043309323920539
 20
165.8929566188808167
 30
0.0
 11
1009.7043309323922813
 21
185.8929566188811577
 31
0.0
  0
LINE
  5
162
100
AcDbEntity
100
AcDbLine
  8
0
 62
256
370
-1
  6
ByLayer
 10
999.7043309323920539
 20
165.8929566188809304
 30
0.0
 11
999.7043309323922813
 21
185.8929566188809304
 31
0.0
  0
LINE
  5
163
100
AcDbEntity
100
AcDbLine
  8
0
 62
256
370
-1
  6
ByLayer
 10
999.7043309323922813
 20
213.8929566188810441
 30
0.0
 11
999.7043309323922813
 21
233.8929566188809304
 31
0.0
  0
LINE
  5
164
100
AcDbEntity
100
AcDbLine
  8
0
 62
256
370
-1
  6
ByLayer
 10
1009.7043309323922813
 20
213.8929566188809304
 30
0.0
 11
1009.7043309323922813
 21
233.8929566188808167
 31
0.0
  0
LINE
  5
165
100
AcDbEntity
100
AcDbLine
  8
0
 62
256
370
-1
  6
ByLayer
 10
995.7043309323920539
 20
165.8929566188810441
 30
0.0
 11
995.7043309323920539
 21
185.8929566188810441
 31
0.0
  0
LINE
  5
166
100
AcDbEntity
100
AcDbLine
  8
0
 62
256
370
-1
  6
ByLayer
 10
1013.7043309323922813
 20
165.8929566188811577
 30
0.0
 11
1013.7043309323922813
 21
185.8929566188809304
 31
0.0
  0
LINE
  5
167
100
AcDbEntity
100
AcDbLine
  8
0
 62
256
370
-1
  6
ByLayer
 10
1013.7043309323922813
 20
213.8929566188809304
 30
0.0
 11
1013.7043309323920539
 21
233.8929566188808167
 31
0.0
  0
LINE
  5
168
100
AcDbEntity
100
AcDbLine
  8
0
 62
256
370
-1
  6
ByLayer
 10
995.7043309323920539
 20
213.8929566188809304
 30
0.0
 11
995.7043309323922813
 21
233.8929566188805893
 31
0.0
  0
LINE
  5
169
100
AcDbEntity
100
AcDbLine
  8
0
 62
256
370
-1
  6
ByLayer
 10
1023.7043309323920539
 20
165.8929566188811577
 30
0.0
 11
1023.7043309323920539
 21
185.8929566188810441
 31
0.0
  0
LINE
  5
16A
100
AcDbEntity
100
AcDbLine
  8
0
 62
256
370
-1
  6
ByLayer
 10
1023.7043309323922813
 20
189.8929566188809304
 30
0.0
 11
1023.7043309323920539
 21
209.8929566188808167
 31
0.0
  0
LINE
  5
16B
100
AcDbEntity
100
AcDbLine
  8
0
 62
256
370
-1
  6
ByLayer
 10
1023.7043309323922813
 20
213.8929566188808167
 30
0.0
 11
1023.7043309323922813
 21
233.8929566188809304
 31
0.0
  0
LINE
  5
16C
100
AcDbEntity
100
AcDbLine
  8
0
 62
256
370
-1
  6
ByLayer
 10
985.7043309323922813
 20
165.8929566188809304
 30
0.0
 11
985.7043309323922813
 21
185.8929566188809304
 31
0.0
  0
LINE
  5
16D
100
AcDbEntity
100
AcDbLine
  8
0
 62
256
370
-1
  6
ByLayer
 10
985.7043309323920539
 20
189.8929566188809304
 30
0.0
 11
985.7043309323922813
 21
209.892956618880703
 31
0.0
  0
LINE
  5
16E
100
AcDbEntity
100
AcDbLine
  8
0
 62
256
370
-1
  6
ByLayer
 10
985.7043309323922813
 20
213.8929566188809304
 30
0.0
 11
985.7043309323922813
 21
233.8929566188809304
 31
0.0
  0
LINE
  5
16F
100
AcDbEntity
100
AcDbLine
  8
0
 62
256
370
-1
  6
ByLayer
 10
1013.7043309323922813
 20
165.8929566188811577
 30
0.0
 11
1023.7043309323920539
 21
165.8929566188811577
 31
0.0
  0
LINE
  5
170
100
AcDbEntity
100
AcDbLine
  8
0
 62
256
370
-1
  6
ByLayer
 10
985.7043309323922813
 20
165.8929566188809304
 30
0.0
 11
995.7043309323920539
 21
165.8929566188810441
 31
0.0
  0
LINE
  5
171
100
AcDbEntity
100
AcDbLine
  8
0
 62
256
370
-1
  6
ByLayer
 10
985.7043309323922813
 20
185.8929566188809304
 30
0.0
 11
995.7043309323920539
 21
185.8929566188810441
 31
0.0
  0
LINE
  5
172
100
AcDbEntity
100
AcDbLine
  8
0
 62
256
370
-1
  6
ByLayer
 10
1013.7043309323922813
 20
185.8929566188809304
 30
0.0
 11
1023.7043309323920539
 21
185.8929566188810441
 31
0.0
  0
LINE
  5
173
100
AcDbEntity
100
AcDbLine
  8
0
 62
256
370
-1
  6
ByLayer
 10
985.7043309323920539
 20
189.8929566188809304
 30
0.0
 11
995.7043309323922813
 21
189.8929566188809304
 31
0.0
  0
LINE
  5
174
100
AcDbEntity
100
AcDbLine
  8
0
 62
256
370
-1
  6
ByLayer
 10
1013.7043309323922813
 20
189.8929566188809304
 30
0.0
 11
1023.7043309323922813
 21
189.8929566188809304
 31
0.0
  0
LINE
  5
175
100
AcDbEntity
100
AcDbLine
  8
0
 62
256
370
-1
  6
ByLayer
 10
985.7043309323922813
 20
209.892956618880703
 30
0.0
 11
995.7043309323920539
 21
209.8929566188811577
 31
0.0
  0
LINE
  5
176
100
AcDbEntity
100
AcDbLine
  8
0
 62
256
370
-1
  6
ByLayer
 10
1013.7043309323922813
 20
209.8929566188809304
 30
0.0
 11
1023.7043309323920539
 21
209.8929566188808167
 31
0.0
  0
LINE
  5
177
100
AcDbEntity
100
AcDbLine
  8
0
 62
256
370
-1
  6
ByLayer
 10
985.7043309323922813
 20
213.8929566188809304
 30
0.0
 11
995.7043309323920539
 21
213.8929566188809304
 31
0.0
  0
LINE
  5
178
100
AcDbEntity
100
AcDbLine
  8
0
 62
256
370
-1
  6
ByLayer
 10
1013.7043309323922813
 20
213.8929566188809304
 30
0.0
 11
1023.7043309323922813
 21
213.8929566188808167
 31
0.0
  0
LINE
  5
179
100
AcDbEntity
100
AcDbLine
  8
0
 62
256
370
-1
  6
ByLayer
 10
985.7043309323922813
 20
233.8929566188809304
 30
0.0
 11
995.7043309323922813
 21
233.8929566188805893
 31
0.0
  0
LINE
  5
17A
100
AcDbEntity
100
AcDbLine
  8
0
 62
256
370
-1
  6
ByLayer
 10
1013.7043309323920539
 20
233.8929566188808167
 30
0.0
 11
1023.7043309323922813
 21
233.8929566188809304
 31
0.0
  0
LINE
  5
17B
100
AcDbEntity
100
AcDbLine
  8
0
 62
256
370
-1
  6
ByLayer
 10
915.7043309323920539
 20
190.0417606177160224
 30
0.0
 11
915.7043309323922813
 21
210.0417606177160224
 31
0.0
  0
LINE
  5
17C
100
AcDbEntity
100
AcDbLine
  8
0
 62
256
370
-1
  6
ByLayer
 10
925.7043309323920539
 20
190.0417606177160224
 30
0.0
 11
925.7043309323922813
 21
210.0417606177160224
 31
0.0
  0
LINE
  5
17D
100
AcDbEntity
100
AcDbLine
  8
0
 62
256
370
-1
  6
ByLayer
 10
929.7043309323922813
 20
190.0417606177162497
 30
0.0
 11
929.7043309323922813
 21
210.0417606177160224
 31
0.0
  0
LINE
  5
17E
100
AcDbEntity
100
AcDbLine
  8
0
 62
256
370
-1
  6
ByLayer
 10
911.7043309323922813
 20
190.0417606177162497
 30
0.0
 11
911.7043309323925087
 21
210.0417606177160224
 31
0.0
  0
LINE
  5
17F
100
AcDbEntity
100
AcDbLine
  8
0
 62
256
370
-1
  6
ByLayer
 10
915.7043309323920539
 20
190.0417606177160224
 30
0.0
 11
925.7043309323920539
 21
190.0417606177160224
 31
0.0
  0
LINE
  5
180
100
AcDbEntity
100
AcDbLine
  8
0
 62
256
370
-1
  6
ByLayer
 10
915.7043309323922813
 20
210.0417606177160224
 30
0.0
 11
925.7043309323922813
 21
210.0417606177160224
 31
0.0
  0
LINE
  5
181
100
AcDbEntity
100
AcDbLine
  8
0
 62
256
370
-1
  6
ByLayer
 10
915.7043309323925087
 20
214.0417606177160224
 30
0.0
 11
925.7043309323925087
 21
214.0417606177160224
 31
0.0
  0
LINE
  5
182
100
AcDbEntity
100
AcDbLine
  8
0
 62
256
370
-1
  6
ByLayer
 10
915.7043309323920539
 20
186.0417606177160224
 30
0.0
 11
925.7043309323941003
 21
186.0417606177162497
 31
0.0
  0
LINE
  5
183
100
AcDbEntity
100
AcDbLine
  8
0
 62
256
370
-1
  6
ByLayer
 10
915.7043309323925087
 20
234.0417606177162497
 30
0.0
 11
925.7043309323925087
 21
234.0417606177160224
 31
0.0
  0
LINE
  5
184
100
AcDbEntity
100
AcDbLine
  8
0
 62
256
370
-1
  6
ByLayer
 10
915.7043309323922813
 20
166.0417606177162497
 30
0.0
 11
925.7043309323911444
 21
166.0417606177160224
 31
0.0
  0
LINE
  5
185
100
AcDbEntity
100
AcDbLine
  8
0
 62
256
370
-1
  6
ByLayer
 10
925.7043309323911444
 20
166.0417606177160224
 30
0.0
 11
925.7043309323941003
 21
186.0417606177162497
 31
0.0
  0
LINE
  5
186
100
AcDbEntity
100
AcDbLine
  8
0
 62
256
370
-1
  6
ByLayer
 10
915.7043309323922813
 20
166.0417606177162497
 30
0.0
 11
915.7043309323920539
 21
186.0417606177160224
 31
0.0
  0
LINE
  5
187
100
AcDbEntity
100
AcDbLine
  8
0
 62
256
370
-1
  6
ByLayer
 10
915.7043309323925087
 20
214.0417606177160224
 30
0.0
 11
915.7043309323925087
 21
234.0417606177162497
 31
0.0
  0
LINE
  5
188
100
AcDbEntity
100
AcDbLine
  8
0
 62
256
370
-1
  6
ByLayer
 10
925.7043309323925087
 20
214.0417606177160224
 30
0.0
 11
925.7043309323925087
 21
234.0417606177160224
 31
0.0
  0
LINE
  5
189
100
AcDbEntity
100
AcDbLine
  8
0
 62
256
370
-1
  6
ByLayer
 10
911.7043309323920539
 20
166.0417606177160224
 30
0.0
 11
911.7043309323918265
 21
186.0417606177160224
 31
0.0
  0
LINE
  5
18A
100
AcDbEntity
100
AcDbLine
  8
0
 62
256
370
-1
  6
ByLayer
 10
929.7043309323922813
 20
166.0417606177160224
 30
0.0
 11
929.7043309323922813
 21
186.0417606177160224
 31
0.0
  0
LINE
  5
18B
100
AcDbEntity
100
AcDbLine
  8
0
 62
256
370
-1
  6
ByLayer
 10
929.7043309323920539
 20
214.0417606177160224
 30
0.0
 11
929.7043309323920539
 21
234.0417606177160224
 31
0.0
  0
LINE
  5
18C
100
AcDbEntity
100
AcDbLine
  8
0
 62
256
370
-1
  6
ByLayer
 10
911.7043309323920539
 20
214.0417606177160224
 30
0.0
 11
911.7043309323920539
 21
234.0417606177160224
 31
0.0
  0
LINE
  5
18D
100
AcDbEntity
100
AcDbLine
  8
0
 62
256
370
-1
  6
ByLayer
 10
939.7043309323920539
 20
166.0417606177160224
 30
0.0
 11
939.7043309323920539
 21
186.0417606177160224
 31
0.0
  0
LINE
  5
18E
100
AcDbEntity
100
AcDbLine
  8
0
 62
256
370
-1
  6
ByLayer
 10
939.7043309323920539
 20
190.0417606177160224
 30
0.0
 11
939.7043309323920539
 21
210.0417606177162497
 31
0.0
  0
LINE
  5
18F
100
AcDbEntity
100
AcDbLine
  8
0
 62
256
370
-1
  6
ByLayer
 10
939.7043309323925087
 20
214.0417606177160224
 30
0.0
 11
939.7043309323922813
 21
234.0417606177160224
 31
0.0
  0
LINE
  5
190
100
AcDbEntity
100
AcDbLine
  8
0
 62
256
370
-1
  6
ByLayer
 10
901.7043309323920539
 20
166.0417606177160224
 30
0.0
 11
901.7043309323922813
 21
186.0417606177162497
 31
0.0
  0
LINE
  5
191
100
AcDbEntity
100
AcDbLine
  8
0
 62
256
370
-1
  6
ByLayer
 10
901.7043309323922813
 20
190.0417606177160224
 30
0.0
 11
901.7043309323922813
 21
210.0417606177160224
 31
0.0
  0
LINE
  5
192
100
AcDbEntity
100
AcDbLine
  8
0
 62
256
370
-1
  6
ByLayer
 10
901.7043309323920539
 20
214.0417606177162497
 30
0.0
 11
901.7043309323922813
 21
234.0417606177160224
 31
0.0
  0
LINE
  5
193
100
AcDbEntity
100
AcDbLine
  8
0
 62
256
370
-1
  6
ByLayer
 10
929.7043309323922813
 20
166.0417606177160224
 30
0.0
 11
939.7043309323920539
 21
166.0417606177160224
 31
0.0
  0
LINE
  5
194
100
AcDbEntity
100
AcDbLine
  8
0
 62
256
370
-1
  6
ByLayer
 10
901.7043309323920539
 20
166.0417606177160224
 30
0.0
 11
911.7043309323920539
 21
166.0417606177160224
 31
0.0
  0
LINE
  5
195
100
AcDbEntity
100
AcDbLine
  8
0
 62
256
370
-1
  6
ByLayer
 10
901.7043309323922813
 20
186.0417606177162497
 30
0.0
 11
911.7043309323918265
 21
186.0417606177160224
 31
0.0
  0
LINE
  5
196
100
AcDbEntity
100
AcDbLine
  8
0
 62
256
370
-1
  6
ByLayer
 10
929.7043309323922813
 20
186.0417606177160224
 30
0.0
 11
939.7043309323920539
 21
186.0417606177160224
 31
0.0
  0
LINE
  5
197
100
AcDbEntity
100
AcDbLine
  8
0
 62
256
370
-1
  6
ByLayer
 10
901.7043309323922813
 20
190.0417606177160224
 30
0.0
 11
911.7043309323922813
 21
190.0417606177162497
 31
0.0
  0
LINE
  5
198
100
AcDbEntity
100
AcDbLine
  8
0
 62
256
370
-1
  6
ByLayer
 10
929.7043309323922813
 20
190.0417606177162497
 30
0.0
 11
939.7043309323920539
 21
190.0417606177160224
 31
0.0
  0
LINE
  5
199
100
AcDbEntity
100
AcDbLine
  8
0
 62
256
370
-1
  6
ByLayer
 10
901.7043309323922813
 20
210.0417606177160224
 30
0.0
 11
911.7043309323925087
 21
210.0417606177160224
 31
0.0
  0
LINE
  5
19A
100
AcDbEntity
100
AcDbLine
  8
0
 62
256
370
-1
  6
ByLayer
 10
929.7043309323922813
 20
210.0417606177160224
 30
0.0
 11
939.7043309323920539
 21
210.0417606177162497
 31
0.0
  0
LINE
  5
19B
100
AcDbEntity
100
AcDbLine
  8
0
 62
256
370
-1
  6
ByLayer
 10
901.7043309323920539
 20
214.0417606177162497
 30
0.0
 11
911.7043309323920539
 21
214.0417606177160224
 31
0.0
  0
LINE
  5
19C
100
AcDbEntity
100
AcDbLine
  8
0
 62
256
370
-1
  6
ByLayer
 10
929.7043309323920539
 20
214.0417606177160224
 30
0.0
 11
939.7043309323925087
 21
214.0417606177160224
 31
0.0
  0
LINE
  5
19D
100
AcDbEntity
100
AcDbLine
  8
0
 62
256
370
-1
  6
ByLayer
 10
901.7043309323922813
 20
234.0417606177160224
 30
0.0
 11
911.7043309323920539
 21
234.0417606177160224
 31
0.0
  0
LINE
  5
19E
100
AcDbEntity
100
AcDbLine
  8
0
 62
256
370
-1
  6
ByLayer
 10
929.7043309323920539
 20
234.0417606177160224
 30
0.0
 11
939.7043309323922813
 21
234.0417606177160224
 31
0.0
  0
LINE
  5
19F
100
AcDbEntity
100
AcDbLine
  8
0
 62
256
370
-1
  6
ByLayer
 10
943.7043309323920539
 20
189.96735861829859
 30
0.0
 11
943.7043309323922813
 21
209.96735861829859
 31
0.0
  0
LINE
  5
1A0
100
AcDbEntity
100
AcDbLine
  8
0
 62
256
370
-1
  6
ByLayer
 10
953.7043309323922813
 20
189.96735861829859
 30
0.0
 11
953.7043309323920539
 21
209.96735861829859
 31
0.0
  0
LINE
  5
1A1
100
AcDbEntity
100
AcDbLine
  8
0
 62
256
370
-1
  6
ByLayer
 10
957.7043309323920539
 20
189.96735861829859
 30
0.0
 11
957.7043309323922813
 21
209.96735861829859
 31
0.0
  0
LINE
  5
1A2
100
AcDbEntity
100
AcDbLine
  8
0
 62
256
370
-1
  6
ByLayer
 10
939.7043309323920539
 20
189.96735861829859
 30
0.0
 11
939.7043309323922813
 21
209.96735861829859
 31
0.0
  0
LINE
  5
1A3
100
AcDbEntity
100
AcDbLine
  8
0
 62
256
370
-1
  6
ByLayer
 10
943.7043309323920539
 20
189.96735861829859
 30
0.0
 11
953.7043309323922813
 21
189.96735861829859
 31
0.0
  0
LINE
  5
1A4
100
AcDbEntity
100
AcDbLine
  8
0
 62
256
370
-1
  6
ByLayer
 10
943.7043309323922813
 20
209.96735861829859
 30
0.0
 11
953.7043309323920539
 21
209.96735861829859
 31
0.0
  0
LINE
  5
1A5
100
AcDbEntity
100
AcDbLine
  8
0
 62
256
370
-1
  6
ByLayer
 10
943.7043309323920539
 20
213.96735861829859
 30
0.0
 11
953.7043309323922813
 21
213.96735861829859
 31
0.0
  0
LINE
  5
1A6
100
AcDbEntity
100
AcDbLine
  8
0
 62
256
370
-1
  6
ByLayer
 10
943.7043309323925087
 20
185.96735861829859
 30
0.0
 11
953.7043309323922813
 21
185.96735861829859
 31
0.0
  0
LINE
  5
1A7
100
AcDbEntity
100
AcDbLine
  8
0
 62
256
370
-1
  6
ByLayer
 10
943.7043309323920539
 20
233.96735861829859
 30
0.0
 11
953.7043309323922813
 21
233.96735861829859
 31
0.0
  0
LINE
  5
1A8
100
AcDbEntity
100
AcDbLine
  8
0
 62
256
370
-1
  6
ByLayer
 10
943.7043309323922813
 20
165.96735861829859
 30
0.0
 11
953.7043309323920539
 21
165.96735861829859
 31
0.0
  0
LINE
  5
1A9
100
AcDbEntity
100
AcDbLine
  8
0
 62
256
370
-1
  6
ByLayer
 10
953.7043309323920539
 20
165.96735861829859
 30
0.0
 11
953.7043309323922813
 21
185.96735861829859
 31
0.0
  0
LINE
  5
1AA
100
AcDbEntity
100
AcDbLine
  8
0
 62
256
370
-1
  6
ByLayer
 10
943.7043309323922813
 20
165.96735861829859
 30
0.0
 11
943.7043309323925087
 21
185.96735861829859
 31
0.0
  0
LINE
  5
1AB
100
AcDbEntity
100
AcDbLine
  8
0
 62
256
370
-1
  6
ByLayer
 10
943.7043309323920539
 20
213.96735861829859
 30
0.0
 11
943.7043309323920539
 21
233.96735861829859
 31
0.0
  0
LINE
  5
1AC
100
AcDbEntity
100
AcDbLine
  8
0
 62
256
370
-1
  6
ByLayer
 10
953.7043309323922813
 20
213.96735861829859
 30
0.0
 11
953.7043309323922813
 21
233.96735861829859
 31
0.0
  0
LINE
  5
1AD
100
AcDbEntity
100
AcDbLine
  8
0
 62
256
370
-1
  6
ByLayer
 10
939.7043309323920539
 20
165.96735861829859
 30
0.0
 11
939.7043309323922813
 21
185.96735861829859
 31
0.0
  0
LINE
  5
1AE
100
AcDbEntity
100
AcDbLine
  8
0
 62
256
370
-1
  6
ByLayer
 10
957.7043309323920539
 20
165.96735861829859
 30
0.0
 11
957.7043309323922813
 21
185.96735861829859
 31
0.0
  0
LINE
  5
1AF
100
AcDbEntity
100
AcDbLine
  8
0
 62
256
370
-1
  6
ByLayer
 10
957.7043309323922813
 20
213.96735861829859
 30
0.0
 11
957.7043309323920539
 21
233.96735861829859
 31
0.0
  0
LINE
  5
1B0
100
AcDbEntity
100
AcDbLine
  8
0
 62
256
370
-1
  6
ByLayer
 10
939.7043309323922813
 20
213.96735861829859
 30
0.0
 11
939.7043309323922813
 21
233.96735861829859
 31
0.0
  0
LINE
  5
1B1
100
AcDbEntity
100
AcDbLine
  8
0
 62
256
370
-1
  6
ByLayer
 10
967.7043309323920539
 20
165.96735861829859
 30
0.0
 11
967.7043309323920539
 21
185.9673586182984764
 31
0.0
  0
LINE
  5
1B2
100
AcDbEntity
100
AcDbLine
  8
0
 62
256
370
-1
  6
ByLayer
 10
967.7043309323920539
 20
189.96735861829859
 30
0.0
 11
967.7043309323920539
 21
209.96735861829859
 31
0.0
  0
LINE
  5
1B3
100
AcDbEntity
100
AcDbLine
  8
0
 62
256
370
-1
  6
ByLayer
 10
967.7043309323922813
 20
213.96735861829859
 30
0.0
 11
967.7043309323922813
 21
233.96735861829859
 31
0.0
  0
LINE
  5
1B4
100
AcDbEntity
100
AcDbLine
  8
0
 62
256
370
-1
  6
ByLayer
 10
929.7043309323918265
 20
165.96735861829859
 30
0.0
 11
929.7043309323925087
 21
185.96735861829859
 31
0.0
  0
LINE
  5
1B5
100
AcDbEntity
100
AcDbLine
  8
0
 62
256
370
-1
  6
ByLayer
 10
929.7043309323920539
 20
189.96735861829859
 30
0.0
 11
929.704330932392736
 21
209.96735861829859
 31
0.0
  0
LINE
  5
1B6
100
AcDbEntity
100
AcDbLine
  8
0
 62
256
370
-1
  6
ByLayer
 10
929.7043309323920539
 20
213.96735861829859
 30
0.0
 11
929.7043309323922813
 21
233.96735861829859
 31
0.0
  0
LINE
  5
1B7
100
AcDbEntity
100
AcDbLine
  8
0
 62
256
370
-1
  6
ByLayer
 10
957.7043309323920539
 20
165.96735861829859
 30
0.0
 11
967.7043309323920539
 21
165.96735861829859
 31
0.0
  0
LINE
  5
1B8
100
AcDbEntity
100
AcDbLine
  8
0
 62
256
370
-1
  6
ByLayer
 10
929.7043309323918265
 20
165.96735861829859
 30
0.0
 11
939.7043309323920539
 21
165.96735861829859
 31
0.0
  0
LINE
  5
1B9
100
AcDbEntity
100
AcDbLine
  8
0
 62
256
370
-1
  6
ByLayer
 10
929.7043309323925087
 20
185.96735861829859
 30
0.0
 11
939.7043309323922813
 21
185.96735861829859
 31
0.0
  0
LINE
  5
1BA
100
AcDbEntity
100
AcDbLine
  8
0
 62
256
370
-1
  6
ByLayer
 10
957.7043309323922813
 20
185.96735861829859
 30
0.0
 11
967.7043309323920539
 21
185.9673586182984764
 31
0.0
  0
LINE
  5
1BB
100
AcDbEntity
100
AcDbLine
  8
0
 62
256
370
-1
  6
ByLayer
 10
929.7043309323920539
 20
189.96735861829859
 30
0.0
 11
939.7043309323920539
 21
189.96735861829859
 31
0.0
  0
LINE
  5
1BC
100
AcDbEntity
100
AcDbLine
  8
0
 62
256
370
-1
  6
ByLayer
 10
957.7043309323920539
 20
189.96735861829859
 30
0.0
 11
967.7043309323920539
 21
189.96735861829859
 31
0.0
  0
LINE
  5
1BD
100
AcDbEntity
100
AcDbLine
  8
0
 62
256
370
-1
  6
ByLayer
 10
929.704330932392736
 20
209.96735861829859
 30
0.0
 11
939.7043309323922813
 21
209.96735861829859
 31
0.0
  0
LINE
  5
1BE
100
AcDbEntity
100
AcDbLine
  8
0
 62
256
370
-1
  6
ByLayer
 10
957.7043309323922813
 20
209.96735861829859
 30
0.0
 11
967.7043309323920539
 21
209.96735861829859
 31
0.0
  0
LINE
  5
1BF
100
AcDbEntity
100
AcDbLine
  8
0
 62
256
370
-1
  6
ByLayer
 10
929.7043309323920539
 20
213.96735861829859
 30
0.0
 11
939.7043309323922813
 21
213.96735861829859
 31
0.0
  0
LINE
  5
1C0
100
AcDbEntity
100
AcDbLine
  8
0
 62
256
370
-1
  6
ByLayer
 10
957.7043309323922813
 20
213.96735861829859
 30
0.0
 11
967.7043309323922813
 21
213.96735861829859
 31
0.0
  0
LINE
  5
1C1
100
AcDbEntity
100
AcDbLine
  8
0
 62
256
370
-1
  6
ByLayer
 10
929.7043309323922813
 20
233.96735861829859
 30
0.0
 11
939.7043309323922813
 21
233.96735861829859
 31
0.0
  0
LINE
  5
1C2
100
AcDbEntity
100
AcDbLine
  8
0
 62
256
370
-1
  6
ByLayer
 10
957.7043309323920539
 20
233.96735861829859
 30
0.0
 11
967.7043309323922813
 21
233.96735861829859
 31
0.0
  0
LINE
  5
1C3
100
AcDbEntity
100
AcDbLine
  8
0
 62
256
370
-1
  6
ByLayer
 10
859.7043309323920539
 20
190.116162617133682
 30
0.0
 11
859.7043309323920539
 21
210.116162617133682
 31
0.0
  0
LINE
  5
1C4
100
AcDbEntity
100
AcDbLine
  8
0
 62
256
370
-1
  6
ByLayer
 10
869.7043309323922813
 20
190.116162617133682
 30
0.0
 11
869.7043309323922813
 21
210.116162617133682
 31
0.0
  0
LINE
  5
1C5
100
AcDbEntity
100
AcDbLine
  8
0
 62
256
370
-1
  6
ByLayer
 10
873.7043309323925087
 20
190.116162617133682
 30
0.0
 11
873.7043309323922813
 21
210.116162617133682
 31
0.0
  0
LINE
  5
1C6
100
AcDbEntity
100
AcDbLine
  8
0
 62
256
370
-1
  6
ByLayer
 10
855.7043309323922813
 20
190.116162617133682
 30
0.0
 11
855.7043309323920539
 21
210.116162617133682
 31
0.0
  0
LINE
  5
1C7
100
AcDbEntity
100
AcDbLine
  8
0
 62
256
370
-1
  6
ByLayer
 10
859.7043309323920539
 20
190.116162617133682
 30
0.0
 11
869.7043309323922813
 21
190.116162617133682
 31
0.0
  0
LINE
  5
1C8
100
AcDbEntity
100
AcDbLine
  8
0
 62
256
370
-1
  6
ByLayer
 10
859.7043309323920539
 20
210.116162617133682
 30
0.0
 11
869.7043309323922813
 21
210.116162617133682
 31
0.0
  0
LINE
  5
1C9
100
AcDbEntity
100
AcDbLine
  8
0
 62
256
370
-1
  6
ByLayer
 10
859.7043309323922813
 20
214.116162617133682
 30
0.0
 11
869.7043309323922813
 21
214.116162617133682
 31
0.0
  0
LINE
  5
1CA
100
AcDbEntity
100
AcDbLine
  8
0
 62
256
370
-1
  6
ByLayer
 10
859.7043309323922813
 20
186.116162617133682
 30
0.0
 11
869.7043309323922813
 21
186.116162617133682
 31
0.0
  0
LINE
  5
1CB
100
AcDbEntity
100
AcDbLine
  8
0
 62
256
370
-1
  6
ByLayer
 10
859.7043309323922813
 20
234.116162617133682
 30
0.0
 11
869.7043309323922813
 21
234.116162617133682
 31
0.0
  0
LINE
  5
1CC
100
AcDbEntity
100
AcDbLine
  8
0
 62
256
370
-1
  6
ByLayer
 10
859.7043309323922813
 20
166.116162617133682
 30
0.0
 11
869.7043309323920539
 21
166.116162617133682
 31
0.0
  0
LINE
  5
1CD
100
AcDbEntity
100
AcDbLine
  8
0
 62
256
370
-1
  6
ByLayer
 10
869.7043309323920539
 20
166.116162617133682
 30
0.0
 11
869.7043309323922813
 21
186.116162617133682
 31
0.0
  0
LINE
  5
1CE
100
AcDbEntity
100
AcDbLine
  8
0
 62
256
370
-1
  6
ByLayer
 10
859.7043309323922813
 20
166.116162617133682
 30
0.0
 11
859.7043309323922813
 21
186.116162617133682
 31
0.0
  0
LINE
  5
1CF
100
AcDbEntity
100
AcDbLine
  8
0
 62
256
370
-1
  6
ByLayer
 10
859.7043309323922813
 20
214.116162617133682
 30
0.0
 11
859.7043309323922813
 21
234.116162617133682
 31
0.0
  0
LINE
  5
1D0
100
AcDbEntity
100
AcDbLine
  8
0
 62
256
370
-1
  6
ByLayer
 10
869.7043309323922813
 20
214.116162617133682
 30
0.0
 11
869.7043309323922813
 21
234.116162617133682
 31
0.0
  0
LINE
  5
1D1
100
AcDbEntity
100
AcDbLine
  8
0
 62
256
370
-1
  6
ByLayer
 10
855.7043309323920539
 20
166.116162617133682
 30
0.0
 11
855.7043309323922813
 21
186.116162617133682
 31
0.0
  0
LINE
  5
1D2
100
AcDbEntity
100
AcDbLine
  8
0
 62
256
370
-1
  6
ByLayer
 10
873.7043309323920539
 20
166.116162617133682
 30
0.0
 11
873.7043309323920539
 21
186.116162617133682
 31
0.0
  0
LINE
  5
1D3
100
AcDbEntity
100
AcDbLine
  8
0
 62
256
370
-1
  6
ByLayer
 10
873.7043309323922813
 20
214.116162617133682
 30
0.0
 11
873.7043309323922813
 21
234.116162617133682
 31
0.0
  0
LINE
  5
1D4
100
AcDbEntity
100
AcDbLine
  8
0
 62
256
370
-1
  6
ByLayer
 10
855.7043309323922813
 20
214.1161626171335683
 30
0.0
 11
855.7043309323922813
 21
234.116162617133682
 31
0.0
  0
LINE
  5
1D5
100
AcDbEntity
100
AcDbLine
  8
0
 62
256
370
-1
  6
ByLayer
 10
883.7043309323920539
 20
166.116162617133682
 30
0.0
 11
883.7043309323922813
 21
186.116162617133682
 31
0.0
  0
LINE
  5
1D6
100
AcDbEntity
100
AcDbLine
  8
0
 62
256
370
-1
  6
ByLayer
 10
883.7043309323922813
 20
190.116162617133682
 30
0.0
 11
883.7043309323920539
 21
210.116162617133682
 31
0.0
  0
LINE
  5
1D7
100
AcDbEntity
100
AcDbLine
  8
0
 62
256
370
-1
  6
ByLayer
 10
883.7043309323925087
 20
214.116162617133682
 30
0.0
 11
883.7043309323922813
 21
234.116162617133682
 31
0.0
  0
LINE
  5
1D8
100
AcDbEntity
100
AcDbLine
  8
0
 62
256
370
-1
  6
ByLayer
 10
845.7043309323920539
 20
166.116162617133682
 30
0.0
 11
845.7043309323920539
 21
186.116162617133682
 31
0.0
  0
LINE
  5
1D9
100
AcDbEntity
100
AcDbLine
  8
0
 62
256
370
-1
  6
ByLayer
 10
845.7043309323920539
 20
190.116162617133682
 30
0.0
 11
845.7043309323922813
 21
210.116162617133682
 31
0.0
  0
LINE
  5
1DA
100
AcDbEntity
100
AcDbLine
  8
0
 62
256
370
-1
  6
ByLayer
 10
845.7043309323922813
 20
214.116162617133682
 30
0.0
 11
845.7043309323922813
 21
234.116162617133682
 31
0.0
  0
LINE
  5
1DB
100
AcDbEntity
100
AcDbLine
  8
0
 62
256
370
-1
  6
ByLayer
 10
873.7043309323920539
 20
166.116162617133682
 30
0.0
 11
883.7043309323920539
 21
166.116162617133682
 31
0.0
  0
LINE
  5
1DC
100
AcDbEntity
100
AcDbLine
  8
0
 62
256
370
-1
  6
ByLayer
 10
845.7043309323920539
 20
166.116162617133682
 30
0.0
 11
855.7043309323920539
 21
166.116162617133682
 31
0.0
  0
LINE
  5
1DD
100
AcDbEntity
100
AcDbLine
  8
0
 62
256
370
-1
  6
ByLayer
 10
845.7043309323920539
 20
186.116162617133682
 30
0.0
 11
855.7043309323920539
 21
186.116162617133682
 31
0.0
  0
LINE
  5
1DE
100
AcDbEntity
100
AcDbLine
  8
0
 62
256
370
-1
  6
ByLayer
 10
873.7043309323920539
 20
186.116162617133682
 30
0.0
 11
883.7043309323922813
 21
186.116162617133682
 31
0.0
  0
LINE
  5
1DF
100
AcDbEntity
100
AcDbLine
  8
0
 62
256
370
-1
  6
ByLayer
 10
845.7043309323920539
 20
190.116162617133682
 30
0.0
 11
855.7043309323922813
 21
190.116162617133682
 31
0.0
  0
LINE
  5
1E0
100
AcDbEntity
100
AcDbLine
  8
0
 62
256
370
-1
  6
ByLayer
 10
873.7043309323925087
 20
190.116162617133682
 30
0.0
 11
883.7043309323922813
 21
190.116162617133682
 31
0.0
  0
LINE
  5
1E1
100
AcDbEntity
100
AcDbLine
  8
0
 62
256
370
-1
  6
ByLayer
 10
845.7043309323922813
 20
210.116162617133682
 30
0.0
 11
855.7043309323920539
 21
210.116162617133682
 31
0.0
  0
LINE
  5
1E2
100
AcDbEntity
100
AcDbLine
  8
0
 62
256
370
-1
  6
ByLayer
 10
873.7043309323922813
 20
210.116162617133682
 30
0.0
 11
883.7043309323920539
 21
210.116162617133682
 31
0.0
  0
LINE
  5
1E3
100
AcDbEntity
100
AcDbLine
  8
0
 62
256
370
-1
  6
ByLayer
 10
845.7043309323922813
 20
214.116162617133682
 30
0.0
 11
855.7043309323922813
 21
214.1161626171335683
 31
0.0
  0
LINE
  5
1E4
100
AcDbEntity
100
AcDbLine
  8
0
 62
256
370
-1
  6
ByLayer
 10
873.7043309323922813
 20
214.116162617133682
 30
0.0
 11
883.7043309323925087
 21
214.116162617133682
 31
0.0
  0
LINE
  5
1E5
100
AcDbEntity
100
AcDbLine
  8
0
 62
256
370
-1
  6
ByLayer
 10
845.7043309323922813
 20
234.116162617133682
 30
0.0
 11
855.7043309323922813
 21
234.116162617133682
 31
0.0
  0
LINE
  5
1E6
100
AcDbEntity
100
AcDbLine
  8
0
 62
256
370
-1
  6
ByLayer
 10
873.7043309323922813
 20
234.116162617133682
 30
0.0
 11
883.7043309323922813
 21
234.116162617133682
 31
0.0
  0
LINE
  5
1E7
100
AcDbEntity
100
AcDbLine
  8
0
 62
256
370
-1
  6
ByLayer
 10
887.7043309323922813
 20
190.0417606177160224
 30
0.0
 11
887.7043309323922813
 21
210.0417606177162497
 31
0.0
  0
LINE
  5
1E8
100
AcDbEntity
100
AcDbLine
  8
0
 62
256
370
-1
  6
ByLayer
 10
897.7043309323920539
 20
190.0417606177160224
 30
0.0
 11
897.7043309323922813
 21
210.0417606177160224
 31
0.0
  0
LINE
  5
1E9
100
AcDbEntity
100
AcDbLine
  8
0
 62
256
370
-1
  6
ByLayer
 10
901.7043309323922813
 20
190.0417606177160224
 30
0.0
 11
901.7043309323922813
 21
210.0417606177160224
 31
0.0
  0
LINE
  5
1EA
100
AcDbEntity
100
AcDbLine
  8
0
 62
256
370
-1
  6
ByLayer
 10
883.7043309323922813
 20
190.0417606177160224
 30
0.0
 11
883.7043309323922813
 21
210.0417606177162497
 31
0.0
  0
LINE
  5
1EB
100
AcDbEntity
100
AcDbLine
  8
0
 62
256
370
-1
  6
ByLayer
 10
887.7043309323922813
 20
190.0417606177160224
 30
0.0
 11
897.7043309323920539
 21
190.0417606177160224
 31
0.0
  0
LINE
  5
1EC
100
AcDbEntity
100
AcDbLine
  8
0
 62
256
370
-1
  6
ByLayer
 10
887.7043309323922813
 20
210.0417606177162497
 30
0.0
 11
897.7043309323922813
 21
210.0417606177160224
 31
0.0
  0
LINE
  5
1ED
100
AcDbEntity
100
AcDbLine
  8
0
 62
256
370
-1
  6
ByLayer
 10
887.7043309323922813
 20
214.0417606177160224
 30
0.0
 11
897.7043309323922813
 21
214.0417606177160224
 31
0.0
  0
LINE
  5
1EE
100
AcDbEntity
100
AcDbLine
  8
0
 62
256
370
-1
  6
ByLayer
 10
887.7043309323922813
 20
186.0417606177160224
 30
0.0
 11
897.7043309323922813
 21
186.0417606177160224
 31
0.0
  0
LINE
  5
1EF
100
AcDbEntity
100
AcDbLine
  8
0
 62
256
370
-1
  6
ByLayer
 10
887.7043309323922813
 20
234.0417606177160224
 30
0.0
 11
897.7043309323920539
 21
234.0417606177160224
 31
0.0
  0
LINE
  5
1F0
100
AcDbEntity
100
AcDbLine
  8
0
 62
256
370
-1
  6
ByLayer
 10
887.7043309323920539
 20
166.0417606177162497
 30
0.0
 11
897.7043309323922813
 21
166.0417606177160224
 31
0.0
  0
LINE
  5
1F1
100
AcDbEntity
100
AcDbLine
  8
0
 62
256
370
-1
  6
ByLayer
 10
897.7043309323922813
 20
166.0417606177160224
 30
0.0
 11
897.7043309323922813
 21
186.0417606177160224
 31
0.0
  0
LINE
  5
1F2
100
AcDbEntity
100
AcDbLine
  8
0
 62
256
370
-1
  6
ByLayer
 10
887.7043309323920539
 20
166.0417606177162497
 30
0.0
 11
887.7043309323922813
 21
186.0417606177160224
 31
0.0
  0
LINE
  5
1F3
100
AcDbEntity
100
AcDbLine
  8
0
 62
256
370
-1
  6
ByLayer
 10
887.7043309323922813
 20
214.0417606177160224
 30
0.0
 11
887.7043309323922813
 21
234.0417606177160224
 31
0.0
  0
LINE
  5
1F4
100
AcDbEntity
100
AcDbLine
  8
0
 62
256
370
-1
  6
ByLayer
 10
897.7043309323922813
 20
214.0417606177160224
 30
0.0
 11
897.7043309323920539
 21
234.0417606177160224
 31
0.0
  0
LINE
  5
1F5
100
AcDbEntity
100
AcDbLine
  8
0
 62
256
370
-1
  6
ByLayer
 10
883.7043309323922813
 20
166.0417606177160224
 30
0.0
 11
883.7043309323920539
 21
186.0417606177160224
 31
0.0
  0
LINE
  5
1F6
100
AcDbEntity
100
AcDbLine
  8
0
 62
256
370
-1
  6
ByLayer
 10
901.7043309323920539
 20
166.0417606177160224
 30
0.0
 11
901.7043309323922813
 21
186.0417606177162497
 31
0.0
  0
LINE
  5
1F7
100
AcDbEntity
100
AcDbLine
  8
0
 62
256
370
-1
  6
ByLayer
 10
901.7043309323920539
 20
214.0417606177162497
 30
0.0
 11
901.7043309323922813
 21
234.0417606177160224
 31
0.0
  0
LINE
  5
1F8
100
AcDbEntity
100
AcDbLine
  8
0
 62
256
370
-1
  6
ByLayer
 10
883.7043309323920539
 20
214.0417606177160224
 30
0.0
 11
883.7043309323922813
 21
234.0417606177160224
 31
0.0
  0
LINE
  5
1F9
100
AcDbEntity
100
AcDbLine
  8
0
 62
256
370
-1
  6
ByLayer
 10
911.7043309323920539
 20
166.0417606177160224
 30
0.0
 11
911.7043309323918265
 21
186.0417606177160224
 31
0.0
  0
LINE
  5
1FA
100
AcDbEntity
100
AcDbLine
  8
0
 62
256
370
-1
  6
ByLayer
 10
911.7043309323922813
 20
190.0417606177162497
 30
0.0
 11
911.7043309323925087
 21
210.0417606177160224
 31
0.0
  0
LINE
  5
1FB
100
AcDbEntity
100
AcDbLine
  8
0
 62
256
370
-1
  6
ByLayer
 10
911.7043309323920539
 20
214.0417606177160224
 30
0.0
 11
911.7043309323920539
 21
234.0417606177160224
 31
0.0
  0
LINE
  5
1FC
100
AcDbEntity
100
AcDbLine
  8
0
 62
256
370
-1
  6
ByLayer
 10
873.7043309323922813
 20
166.0417606177160224
 30
0.0
 11
873.7043309323922813
 21
186.0417606177160224
 31
0.0
  0
LINE
  5
1FD
100
AcDbEntity
100
AcDbLine
  8
0
 62
256
370
-1
  6
ByLayer
 10
873.7043309323922813
 20
190.0417606177160224
 30
0.0
 11
873.7043309323920539
 21
210.0417606177160224
 31
0.0
  0
LINE
  5
1FE
100
AcDbEntity
100
AcDbLine
  8
0
 62
256
370
-1
  6
ByLayer
 10
873.7043309323922813
 20
214.0417606177162497
 30
0.0
 11
873.7043309323922813
 21
234.0417606177160224
 31
0.0
  0
LINE
  5
1FF
100
AcDbEntity
100
AcDbLine
  8
0
 62
256
370
-1
  6
ByLayer
 10
901.7043309323920539
 20
166.0417606177160224
 30
0.0
 11
911.7043309323920539
 21
166.0417606177160224
 31
0.0
  0
LINE
  5
200
100
AcDbEntity
100
AcDbLine
  8
0
 62
256
370
-1
  6
ByLayer
 10
873.7043309323922813
 20
166.0417606177160224
 30
0.0
 11
883.7043309323922813
 21
166.0417606177160224
 31
0.0
  0
LINE
  5
201
100
AcDbEntity
100
AcDbLine
  8
0
 62
256
370
-1
  6
ByLayer
 10
873.7043309323920539
 20
186.0417606177160224
 30
0.0
 11
883.7043309323922813
 21
186.0417606177162497
 31
0.0
  0
LINE
  5
202
100
AcDbEntity
100
AcDbLine
  8
0
 62
256
370
-1
  6
ByLayer
 10
901.7043309323922813
 20
186.0417606177162497
 30
0.0
 11
911.7043309323918265
 21
186.0417606177160224
 31
0.0
  0
LINE
  5
203
100
AcDbEntity
100
AcDbLine
  8
0
 62
256
370
-1
  6
ByLayer
 10
873.7043309323920539
 20
190.0417606177160224
 30
0.0
 11
883.7043309323922813
 21
190.0417606177160224
 31
0.0
  0
LINE
  5
204
100
AcDbEntity
100
AcDbLine
  8
0
 62
256
370
-1
  6
ByLayer
 10
901.7043309323922813
 20
190.0417606177160224
 30
0.0
 11
911.7043309323922813
 21
190.0417606177162497
 31
0.0
  0
LINE
  5
205
100
AcDbEntity
100
AcDbLine
  8
0
 62
256
370
-1
  6
ByLayer
 10
873.7043309323920539
 20
210.0417606177160224
 30
0.0
 11
883.7043309323922813
 21
210.0417606177162497
 31
0.0
  0
LINE
  5
206
100
AcDbEntity
100
AcDbLine
  8
0
 62
256
370
-1
  6
ByLayer
 10
901.7043309323922813
 20
210.0417606177160224
 30
0.0
 11
911.7043309323925087
 21
210.0417606177160224
 31
0.0
  0
LINE
  5
207
100
AcDbEntity
100
AcDbLine
  8
0
 62
256
370
-1
  6
ByLayer
 10
873.7043309323922813
 20
214.0417606177162497
 30
0.0
 11
883.7043309323920539
 21
214.0417606177160224
 31
0.0
  0
LINE
  5
208
100
AcDbEntity
100
AcDbLine
  8
0
 62
256
370
-1
  6
ByLayer
 10
901.7043309323920539
 20
214.0417606177162497
 30
0.0
 11
911.7043309323920539
 21
214.0417606177160224
 31
0.0
  0
LINE
  5
209
100
AcDbEntity
100
AcDbLine
  8
0
 62
256
370
-1
  6
ByLayer
 10
873.7043309323922813
 20
234.0417606177160224
 30
0.0
 11
883.7043309323922813
 21
234.0417606177160224
 31
0.0
  0
LINE
  5
20A
100
AcDbEntity
100
AcDbLine
  8
0
 62
256
370
-1
  6
ByLayer
 10
901.7043309323922813
 20
234.0417606177160224
 30
0.0
 11
911.7043309323920539
 21
234.0417606177160224
 31
0.0
  0
LINE
  5
20B
100
AcDbEntity
100
AcDbLine
  8
0
 62
256
370
-1
  6
ByLayer
 10
803.7043309323922813
 20
190.1905646165511143
 30
0.0
 11
803.7043309323922813
 21
210.1905646165511143
 31
0.0
  0
LINE
  5
20C
100
AcDbEntity
100
AcDbLine
  8
0
 62
256
370
-1
  6
ByLayer
 10
813.7043309323922813
 20
190.1905646165510007
 30
0.0
 11
813.7043309323922813
 21
210.1905646165511143
 31
0.0
  0
LINE
  5
20D
100
AcDbEntity
100
AcDbLine
  8
0
 62
256
370
-1
  6
ByLayer
 10
817.7043309323922813
 20
190.1905646165511143
 30
0.0
 11
817.7043309323922813
 21
210.1905646165511143
 31
0.0
  0
LINE
  5
20E
100
AcDbEntity
100
AcDbLine
  8
0
 62
256
370
-1
  6
ByLayer
 10
799.7043309323922813
 20
190.1905646165511143
 30
0.0
 11
799.7043309323922813
 21
210.1905646165511143
 31
0.0
  0
LINE
  5
20F
100
AcDbEntity
100
AcDbLine
  8
0
 62
256
370
-1
  6
ByLayer
 10
803.7043309323922813
 20
190.1905646165511143
 30
0.0
 11
813.7043309323922813
 21
190.1905646165510007
 31
0.0
  0
LINE
  5
210
100
AcDbEntity
100
AcDbLine
  8
0
 62
256
370
-1
  6
ByLayer
 10
803.7043309323922813
 20
210.1905646165511143
 30
0.0
 11
813.7043309323922813
 21
210.1905646165511143
 31
0.0
  0
LINE
  5
211
100
AcDbEntity
100
AcDbLine
  8
0
 62
256
370
-1
  6
ByLayer
 10
803.7043309323922813
 20
214.1905646165511143
 30
0.0
 11
813.7043309323922813
 21
214.1905646165511143
 31
0.0
  0
LINE
  5
212
100
AcDbEntity
100
AcDbLine
  8
0
 62
256
370
-1
  6
ByLayer
 10
803.7043309323922813
 20
186.1905646165510007
 30
0.0
 11
813.7043309323922813
 21
186.1905646165511143
 31
0.0
  0
LINE
  5
213
100
AcDbEntity
100
AcDbLine
  8
0
 62
256
370
-1
  6
ByLayer
 10
803.7043309323922813
 20
234.1905646165511143
 30
0.0
 11
813.7043309323922813
 21
234.1905646165510007
 31
0.0
  0
LINE
  5
214
100
AcDbEntity
100
AcDbLine
  8
0
 62
256
370
-1
  6
ByLayer
 10
803.7043309323922813
 20
166.1905646165511143
 30
0.0
 11
813.7043309323922813
 21
166.1905646165511143
 31
0.0
  0
LINE
  5
215
100
AcDbEntity
100
AcDbLine
  8
0
 62
256
370
-1
  6
ByLayer
 10
813.7043309323922813
 20
166.1905646165511143
 30
0.0
 11
813.7043309323922813
 21
186.1905646165511143
 31
0.0
  0
LINE
  5
216
100
AcDbEntity
100
AcDbLine
  8
0
 62
256
370
-1
  6
ByLayer
 10
803.7043309323922813
 20
166.1905646165511143
 30
0.0
 11
803.7043309323922813
 21
186.1905646165510007
 31
0.0
  0
LINE
  5
217
100
AcDbEntity
100
AcDbLine
  8
0
 62
256
370
-1
  6
ByLayer
 10
803.7043309323922813
 20
214.1905646165511143
 30
0.0
 11
803.7043309323922813
 21
234.1905646165511143
 31
0.0
  0
LINE
  5
218
100
AcDbEntity
100
AcDbLine
  8
0
 62
256
370
-1
  6
ByLayer
 10
813.7043309323922813
 20
214.1905646165511143
 30
0.0
 11
813.7043309323922813
 21
234.1905646165510007
 31
0.0
  0
LINE
  5
219
100
AcDbEntity
100
AcDbLine
  8
0
 62
256
370
-1
  6
ByLayer
 10
799.7043309323922813
 20
166.1905646165511143
 30
0.0
 11
799.7043309323922813
 21
186.1905646165511143
 31
0.0
  0
LINE
  5
21A
100
AcDbEntity
100
AcDbLine
  8
0
 62
256
370
-1
  6
ByLayer
 10
817.7043309323922813
 20
166.1905646165511143
 30
0.0
 11
817.7043309323920539
 21
186.1905646165511143
 31
0.0
  0
LINE
  5
21B
100
AcDbEntity
100
AcDbLine
  8
0
 62
256
370
-1
  6
ByLayer
 10
817.7043309323922813
 20
214.1905646165511143
 30
0.0
 11
817.7043309323922813
 21
234.1905646165511143
 31
0.0
  0
LINE
  5
21C
100
AcDbEntity
100
AcDbLine
  8
0
 62
256
370
-1
  6
ByLayer
 10
799.7043309323922813
 20
214.1905646165510007
 30
0.0
 11
799.7043309323922813
 21
234.1905646165511143
 31
0.0
  0
LINE
  5
21D
100
AcDbEntity
100
AcDbLine
  8
0
 62
256
370
-1
  6
ByLayer
 10
827.7043309323922813
 20
166.1905646165511143
 30
0.0
 11
827.7043309323922813
 21
186.1905646165511143
 31
0.0
  0
LINE
  5
21E
100
AcDbEntity
100
AcDbLine
  8
0
 62
256
370
-1
  6
ByLayer
 10
827.7043309323920539
 20
190.1905646165511143
 30
0.0
 11
827.7043309323922813
 21
210.1905646165511143
 31
0.0
  0
LINE
  5
21F
100
AcDbEntity
100
AcDbLine
  8
0
 62
256
370
-1
  6
ByLayer
 10
827.7043309323922813
 20
214.1905646165511143
 30
0.0
 11
827.7043309323922813
 21
234.1905646165511143
 31
0.0
  0
LINE
  5
220
100
AcDbEntity
100
AcDbLine
  8
0
 62
256
370
-1
  6
ByLayer
 10
789.7043309323922813
 20
166.1905646165511143
 30
0.0
 11
789.7043309323922813
 21
186.1905646165513417
 31
0.0
  0
LINE
  5
221
100
AcDbEntity
100
AcDbLine
  8
0
 62
256
370
-1
  6
ByLayer
 10
789.7043309323920539
 20
190.1905646165511143
 30
0.0
 11
789.7043309323922813
 21
210.1905646165511143
 31
0.0
  0
LINE
  5
222
100
AcDbEntity
100
AcDbLine
  8
0
 62
256
370
-1
  6
ByLayer
 10
789.7043309323922813
 20
214.1905646165510007
 30
0.0
 11
789.7043309323922813
 21
234.1905646165510007
 31
0.0
  0
LINE
  5
223
100
AcDbEntity
100
AcDbLine
  8
0
 62
256
370
-1
  6
ByLayer
 10
817.7043309323922813
 20
166.1905646165511143
 30
0.0
 11
827.7043309323922813
 21
166.1905646165511143
 31
0.0
  0
LINE
  5
224
100
AcDbEntity
100
AcDbLine
  8
0
 62
256
370
-1
  6
ByLayer
 10
789.7043309323922813
 20
166.1905646165511143
 30
0.0
 11
799.7043309323922813
 21
166.1905646165511143
 31
0.0
  0
LINE
  5
225
100
AcDbEntity
100
AcDbLine
  8
0
 62
256
370
-1
  6
ByLayer
 10
789.7043309323922813
 20
186.1905646165513417
 30
0.0
 11
799.7043309323922813
 21
186.1905646165511143
 31
0.0
  0
LINE
  5
226
100
AcDbEntity
100
AcDbLine
  8
0
 62
256
370
-1
  6
ByLayer
 10
817.7043309323920539
 20
186.1905646165511143
 30
0.0
 11
827.7043309323922813
 21
186.1905646165513417
 31
0.0
  0
LINE
  5
227
100
AcDbEntity
100
AcDbLine
  8
0
 62
256
370
-1
  6
ByLayer
 10
789.7043309323920539
 20
190.1905646165511143
 30
0.0
 11
799.7043309323922813
 21
190.1905646165511143
 31
0.0
  0
LINE
  5
228
100
AcDbEntity
100
AcDbLine
  8
0
 62
256
370
-1
  6
ByLayer
 10
817.7043309323922813
 20
190.1905646165511143
 30
0.0
 11
827.7043309323920539
 21
190.1905646165511143
 31
0.0
  0
LINE
  5
229
100
AcDbEntity
100
AcDbLine
  8
0
 62
256
370
-1
  6
ByLayer
 10
789.7043309323922813
 20
210.1905646165511143
 30
0.0
 11
799.7043309323922813
 21
210.1905646165511143
 31
0.0
  0
LINE
  5
22A
100
AcDbEntity
100
AcDbLine
  8
0
 62
256
370
-1
  6
ByLayer
 10
817.7043309323922813
 20
210.1905646165511143
 30
0.0
 11
827.7043309323922813
 21
210.1905646165511143
 31
0.0
  0
LINE
  5
22B
100
AcDbEntity
100
AcDbLine
  8
0
 62
256
370
-1
  6
ByLayer
 10
789.7043309323922813
 20
214.1905646165510007
 30
0.0
 11
799.7043309323922813
 21
214.1905646165510007
 31
0.0
  0
LINE
  5
22C
100
AcDbEntity
100
AcDbLine
  8
0
 62
256
370
-1
  6
ByLayer
 10
817.7043309323922813
 20
214.1905646165511143
 30
0.0
 11
827.7043309323922813
 21
214.1905646165511143
 31
0.0
  0
LINE
  5
22D
100
AcDbEntity
100
AcDbLine
  8
0
 62
256
370
-1
  6
ByLayer
 10
789.7043309323922813
 20
234.1905646165510007
 30
0.0
 11
799.7043309323922813
 21
234.1905646165511143
 31
0.0
  0
LINE
  5
22E
100
AcDbEntity
100
AcDbLine
  8
0
 62
256
370
-1
  6
ByLayer
 10
817.7043309323922813
 20
234.1905646165511143
 30
0.0
 11
827.7043309323922813
 21
234.1905646165511143
 31
0.0
  0
LINE
  5
22F
100
AcDbEntity
100
AcDbLine
  8
0
 62
256
370
-1
  6
ByLayer
 10
831.7043309323922813
 20
190.116162617133682
 30
0.0
 11
831.7043309323922813
 21
210.116162617133682
 31
0.0
  0
LINE
  5
230
100
AcDbEntity
100
AcDbLine
  8
0
 62
256
370
-1
  6
ByLayer
 10
841.7043309323922813
 20
190.116162617133682
 30
0.0
 11
841.7043309323920539
 21
210.116162617133682
 31
0.0
  0
LINE
  5
231
100
AcDbEntity
100
AcDbLine
  8
0
 62
256
370
-1
  6
ByLayer
 10
845.7043309323920539
 20
190.116162617133682
 30
0.0
 11
845.7043309323922813
 21
210.116162617133682
 31
0.0
  0
LINE
  5
232
100
AcDbEntity
100
AcDbLine
  8
0
 62
256
370
-1
  6
ByLayer
 10
827.7043309323920539
 20
190.116162617133682
 30
0.0
 11
827.7043309323922813
 21
210.116162617133682
 31
0.0
  0
LINE
  5
233
100
AcDbEntity
100
AcDbLine
  8
0
 62
256
370
-1
  6
ByLayer
 10
831.7043309323922813
 20
190.116162617133682
 30
0.0
 11
841.7043309323922813
 21
190.116162617133682
 31
0.0
  0
LINE
  5
234
100
AcDbEntity
100
AcDbLine
  8
0
 62
256
370
-1
  6
ByLayer
 10
831.7043309323922813
 20
210.116162617133682
 30
0.0
 11
841.7043309323920539
 21
210.116162617133682
 31
0.0
  0
LINE
  5
235
100
AcDbEntity
100
AcDbLine
  8
0
 62
256
370
-1
  6
ByLayer
 10
831.7043309323922813
 20
214.116162617133682
 30
0.0
 11
841.7043309323922813
 21
214.1161626171335683
 31
0.0
  0
LINE
  5
236
100
AcDbEntity
100
AcDbLine
  8
0
 62
256
370
-1
  6
ByLayer
 10
831.7043309323922813
 20
186.116162617133682
 30
0.0
 11
841.7043309323920539
 21
186.116162617133682
 31
0.0
  0
LINE
  5
237
100
AcDbEntity
100
AcDbLine
  8
0
 62
256
370
-1
  6
ByLayer
 10
831.7043309323922813
 20
234.116162617133682
 30
0.0
 11
841.7043309323922813
 21
234.1161626171335683
 31
0.0
  0
LINE
  5
238
100
AcDbEntity
100
AcDbLine
  8
0
 62
256
370
-1
  6
ByLayer
 10
831.7043309323922813
 20
166.116162617133682
 30
0.0
 11
841.7043309323922813
 21
166.116162617133682
 31
0.0
  0
LINE
  5
239
100
AcDbEntity
100
AcDbLine
  8
0
 62
256
370
-1
  6
ByLayer
 10
841.7043309323922813
 20
166.116162617133682
 30
0.0
 11
841.7043309323920539
 21
186.116162617133682
 31
0.0
  0
LINE
  5
23A
100
AcDbEntity
100
AcDbLine
  8
0
 62
256
370
-1
  6
ByLayer
 10
831.7043309323922813
 20
166.116162617133682
 30
0.0
 11
831.7043309323922813
 21
186.116162617133682
 31
0.0
  0
LINE
  5
23B
100
AcDbEntity
100
AcDbLine
  8
0
 62
256
370
-1
  6
ByLayer
 10
831.7043309323922813
 20
214.116162617133682
 30
0.0
 11
831.7043309323922813
 21
234.116162617133682
 31
0.0
  0
LINE
  5
23C
100
AcDbEntity
100
AcDbLine
  8
0
 62
256
370
-1
  6
ByLayer
 10
841.7043309323922813
 20
214.1161626171335683
 30
0.0
 11
841.7043309323922813
 21
234.1161626171335683
 31
0.0
  0
LINE
  5
23D
100
AcDbEntity
100
AcDbLine
  8
0
 62
256
370
-1
  6
ByLayer
 10
827.7043309323922813
 20
166.116162617133682
 30
0.0
 11
827.7043309323922813
 21
186.116162617133682
 31
0.0
  0
LINE
  5
23E
100
AcDbEntity
100
AcDbLine
  8
0
 62
256
370
-1
  6
ByLayer
 10
845.7043309323920539
 20
166.116162617133682
 30
0.0
 11
845.7043309323920539
 21
186.116162617133682
 31
0.0
  0
LINE
  5
23F
100
AcDbEntity
100
AcDbLine
  8
0
 62
256
370
-1
  6
ByLayer
 10
845.7043309323922813
 20
214.116162617133682
 30
0.0
 11
845.7043309323922813
 21
234.116162617133682
 31
0.0
  0
LINE
  5
240
100
AcDbEntity
100
AcDbLine
  8
0
 62
256
370
-1
  6
ByLayer
 10
827.7043309323922813
 20
214.116162617133682
 30
0.0
 11
827.7043309323922813
 21
234.116162617133682
 31
0.0
  0
LINE
  5
241
100
AcDbEntity
100
AcDbLine
  8
0
 62
256
370
-1
  6
ByLayer
 10
855.7043309323920539
 20
166.116162617133682
 30
0.0
 11
855.7043309323922813
 21
186.116162617133682
 31
0.0
  0
LINE
  5
242
100
AcDbEntity
100
AcDbLine
  8
0
 62
256
370
-1
  6
ByLayer
 10
855.7043309323922813
 20
190.116162617133682
 30
0.0
 11
855.7043309323920539
 21
210.116162617133682
 31
0.0
  0
LINE
  5
243
100
AcDbEntity
100
AcDbLine
  8
0
 62
256
370
-1
  6
ByLayer
 10
855.7043309323922813
 20
214.1161626171335683
 30
0.0
 11
855.7043309323922813
 21
234.116162617133682
 31
0.0
  0
LINE
  5
244
100
AcDbEntity
100
AcDbLine
  8
0
 62
256
370
-1
  6
ByLayer
 10
817.7043309323922813
 20
166.116162617133682
 30
0.0
 11
817.7043309323922813
 21
186.1161626171335683
 31
0.0
  0
LINE
  5
245
100
AcDbEntity
100
AcDbLine
  8
0
 62
256
370
-1
  6
ByLayer
 10
817.7043309323922813
 20
190.116162617133682
 30
0.0
 11
817.7043309323922813
 21
210.116162617133682
 31
0.0
  0
LINE
  5
246
100
AcDbEntity
100
AcDbLine
  8
0
 62
256
370
-1
  6
ByLayer
 10
817.7043309323920539
 20
214.116162617133682
 30
0.0
 11
817.7043309323922813
 21
234.1161626171335683
 31
0.0
  0
LINE
  5
247
100
AcDbEntity
100
AcDbLine
  8
0
 62
256
370
-1
  6
ByLayer
 10
845.7043309323920539
 20
166.116162617133682
 30
0.0
 11
855.7043309323920539
 21
166.116162617133682
 31
0.0
  0
LINE
  5
248
100
AcDbEntity
100
AcDbLine
  8
0
 62
256
370
-1
  6
ByLayer
 10
817.7043309323922813
 20
166.116162617133682
 30
0.0
 11
827.7043309323922813
 21
166.116162617133682
 31
0.0
  0
LINE
  5
249
100
AcDbEntity
100
AcDbLine
  8
0
 62
256
370
-1
  6
ByLayer
 10
817.7043309323922813
 20
186.1161626171335683
 30
0.0
 11
827.7043309323922813
 21
186.116162617133682
 31
0.0
  0
LINE
  5
24A
100
AcDbEntity
100
AcDbLine
  8
0
 62
256
370
-1
  6
ByLayer
 10
845.7043309323920539
 20
186.116162617133682
 30
0.0
 11
855.7043309323922813
 21
186.116162617133682
 31
0.0
  0
LINE
  5
24B
100
AcDbEntity
100
AcDbLine
  8
0
 62
256
370
-1
  6
ByLayer
 10
817.7043309323922813
 20
190.116162617133682
 30
0.0
 11
827.7043309323920539
 21
190.116162617133682
 31
0.0
  0
LINE
  5
24C
100
AcDbEntity
100
AcDbLine
  8
0
 62
256
370
-1
  6
ByLayer
 10
845.7043309323920539
 20
190.116162617133682
 30
0.0
 11
855.7043309323922813
 21
190.116162617133682
 31
0.0
  0
LINE
  5
24D
100
AcDbEntity
100
AcDbLine
  8
0
 62
256
370
-1
  6
ByLayer
 10
817.7043309323922813
 20
210.116162617133682
 30
0.0
 11
827.7043309323922813
 21
210.116162617133682
 31
0.0
  0
LINE
  5
24E
100
AcDbEntity
100
AcDbLine
  8
0
 62
256
370
-1
  6
ByLayer
 10
845.7043309323922813
 20
210.116162617133682
 30
0.0
 11
855.7043309323920539
 21
210.116162617133682
 31
0.0
  0
LINE
  5
24F
100
AcDbEntity
100
AcDbLine
  8
0
 62
256
370
-1
  6
ByLayer
 10
817.7043309323920539
 20
214.116162617133682
 30
0.0
 11
827.7043309323922813
 21
214.116162617133682
 31
0.0
  0
LINE
  5
250
100
AcDbEntity
100
AcDbLine
  8
0
 62
256
370
-1
  6
ByLayer
 10
845.7043309323922813
 20
214.116162617133682
 30
0.0
 11
855.7043309323922813
 21
214.1161626171335683
 31
0.0
  0
LINE
  5
251
100
AcDbEntity
100
AcDbLine
  8
0
 62
256
370
-1
  6
ByLayer
 10
817.7043309323922813
 20
234.1161626171335683
 30
0.0
 11
827.7043309323922813
 21
234.116162617133682
 31
0.0
  0
LINE
  5
252
100
AcDbEntity
100
AcDbLine
  8
0
 62
256
370
-1
  6
ByLayer
 10
845.7043309323922813
 20
234.116162617133682
 30
0.0
 11
855.7043309323922813
 21
234.116162617133682
 31
0.0
  0
LINE
  5
253
100
AcDbEntity
100
AcDbLine
  8
0
 62
256
370
-1
  6
ByLayer
 10
1083.704330932392395
 20
189.8185546194634981
 30
0.0
 11
1083.7043309323919402
 21
209.8185546194634981
 31
0.0
  0
LINE
  5
254
100
AcDbEntity
100
AcDbLine
  8
0
 62
256
370
-1
  6
ByLayer
 10
1093.7043309323919402
 20
189.8185546194628159
 30
0.0
 11
1093.704330932392395
 21
209.8185546194632707
 31
0.0
  0
LINE
  5
255
100
AcDbEntity
100
AcDbLine
  8
0
 62
256
370
-1
  6
ByLayer
 10
1097.7043309323919402
 20
189.8185546194634981
 30
0.0
 11
1097.7043309323919402
 21
209.8185546194633844
 31
0.0
  0
LINE
  5
256
100
AcDbEntity
100
AcDbLine
  8
0
 62
256
370
-1
  6
ByLayer
 10
1079.7043309323919402
 20
189.8185546194633844
 30
0.0
 11
1079.704330932392395
 21
209.8185546194632707
 31
0.0
  0
LINE
  5
257
100
AcDbEntity
100
AcDbLine
  8
0
 62
256
370
-1
  6
ByLayer
 10
1083.704330932392395
 20
189.8185546194634981
 30
0.0
 11
1093.7043309323919402
 21
189.8185546194628159
 31
0.0
  0
LINE
  5
258
100
AcDbEntity
100
AcDbLine
  8
0
 62
256
370
-1
  6
ByLayer
 10
1083.7043309323919402
 20
209.8185546194634981
 30
0.0
 11
1093.704330932392395
 21
209.8185546194632707
 31
0.0
  0
LINE
  5
259
100
AcDbEntity
100
AcDbLine
  8
0
 62
256
370
-1
  6
ByLayer
 10
1083.7043309323919402
 20
213.8185546194629296
 30
0.0
 11
1093.704330932392395
 21
213.818554619463157
 31
0.0
  0
LINE
  5
25A
100
AcDbEntity
100
AcDbLine
  8
0
 62
256
370
-1
  6
ByLayer
 10
1083.7043309323919402
 20
185.8185546194633844
 30
0.0
 11
1093.7043309323919402
 21
185.818554619463157
 31
0.0
  0
LINE
  5
25B
100
AcDbEntity
100
AcDbLine
  8
0
 62
256
370
-1
  6
ByLayer
 10
1083.7043309323919402
 20
233.8185546194632707
 30
0.0
 11
1093.704330932392395
 21
233.8185546194634981
 31
0.0
  0
LINE
  5
25C
100
AcDbEntity
100
AcDbLine
  8
0
 62
256
370
-1
  6
ByLayer
 10
1083.704330932392395
 20
165.8185546194632707
 30
0.0
 11
1093.7043309323919402
 21
165.8185546194633844
 31
0.0
  0
LINE
  5
25D
100
AcDbEntity
100
AcDbLine
  8
0
 62
256
370
-1
  6
ByLayer
 10
1093.7043309323919402
 20
165.8185546194633844
 30
0.0
 11
1093.7043309323919402
 21
185.818554619463157
 31
0.0
  0
LINE
  5
25E
100
AcDbEntity
100
AcDbLine
  8
0
 62
256
370
-1
  6
ByLayer
 10
1083.704330932392395
 20
165.8185546194632707
 30
0.0
 11
1083.7043309323919402
 21
185.8185546194633844
 31
0.0
  0
LINE
  5
25F
100
AcDbEntity
100
AcDbLine
  8
0
 62
256
370
-1
  6
ByLayer
 10
1083.7043309323919402
 20
213.8185546194629296
 30
0.0
 11
1083.7043309323919402
 21
233.8185546194632707
 31
0.0
  0
LINE
  5
260
100
AcDbEntity
100
AcDbLine
  8
0
 62
256
370
-1
  6
ByLayer
 10
1093.704330932392395
 20
213.818554619463157
 30
0.0
 11
1093.704330932392395
 21
233.8185546194634981
 31
0.0
  0
LINE
  5
261
100
AcDbEntity
100
AcDbLine
  8
0
 62
256
370
-1
  6
ByLayer
 10
1079.7043309323919402
 20
165.8185546194632707
 30
0.0
 11
1079.7043309323919402
 21
185.8185546194633844
 31
0.0
  0
LINE
  5
262
100
AcDbEntity
100
AcDbLine
  8
0
 62
256
370
-1
  6
ByLayer
 10
1097.7043309323919402
 20
165.818554619463157
 30
0.0
 11
1097.704330932392395
 21
185.8185546194634981
 31
0.0
  0
LINE
  5
263
100
AcDbEntity
100
AcDbLine
  8
0
 62
256
370
-1
  6
ByLayer
 10
1097.7043309323919402
 20
213.8185546194629296
 30
0.0
 11
1097.704330932392395
 21
233.8185546194630433
 31
0.0
  0
LINE
  5
264
100
AcDbEntity
100
AcDbLine
  8
0
 62
256
370
-1
  6
ByLayer
 10
1079.7043309323919402
 20
213.818554619463157
 30
0.0
 11
1079.704330932392395
 21
233.8185546194632707
 31
0.0
  0
LINE
  5
265
100
AcDbEntity
100
AcDbLine
  8
0
 62
256
370
-1
  6
ByLayer
 10
1107.704330932392395
 20
165.8185546194630433
 30
0.0
 11
1107.7043309323919402
 21
185.818554619463157
 31
0.0
  0
LINE
  5
266
100
AcDbEntity
100
AcDbLine
  8
0
 62
256
370
-1
  6
ByLayer
 10
1107.7043309323919402
 20
189.818554619463157
 30
0.0
 11
1107.7043309323919402
 21
209.8185546194633844
 31
0.0
  0
LINE
  5
267
100
AcDbEntity
100
AcDbLine
  8
0
 62
256
370
-1
  6
ByLayer
 10
1107.7043309323919402
 20
213.8185546194632707
 30
0.0
 11
1107.704330932392395
 21
233.8185546194630433
 31
0.0
  0
LINE
  5
268
100
AcDbEntity
100
AcDbLine
  8
0
 62
256
370
-1
  6
ByLayer
 10
1069.7043309323919402
 20
165.818554619463157
 30
0.0
 11
1069.704330932392395
 21
185.8185546194634981
 31
0.0
  0
LINE
  5
269
100
AcDbEntity
100
AcDbLine
  8
0
 62
256
370
-1
  6
ByLayer
 10
1069.7043309323919402
 20
189.8185546194634981
 30
0.0
 11
1069.7043309323919402
 21
209.8185546194634981
 31
0.0
  0
LINE
  5
26A
100
AcDbEntity
100
AcDbLine
  8
0
 62
256
370
-1
  6
ByLayer
 10
1069.7043309323919402
 20
213.818554619463157
 30
0.0
 11
1069.704330932392395
 21
233.818554619463157
 31
0.0
  0
LINE
  5
26B
100
AcDbEntity
100
AcDbLine
  8
0
 62
256
370
-1
  6
ByLayer
 10
1097.7043309323919402
 20
165.818554619463157
 30
0.0
 11
1107.704330932392395
 21
165.8185546194630433
 31
0.0
  0
LINE
  5
26C
100
AcDbEntity
100
AcDbLine
  8
0
 62
256
370
-1
  6
ByLayer
 10
1069.7043309323919402
 20
165.818554619463157
 30
0.0
 11
1079.7043309323919402
 21
165.8185546194632707
 31
0.0
  0
LINE
  5
26D
100
AcDbEntity
100
AcDbLine
  8
0
 62
256
370
-1
  6
ByLayer
 10
1069.704330932392395
 20
185.8185546194634981
 30
0.0
 11
1079.7043309323919402
 21
185.8185546194633844
 31
0.0
  0
LINE
  5
26E
100
AcDbEntity
100
AcDbLine
  8
0
 62
256
370
-1
  6
ByLayer
 10
1097.704330932392395
 20
185.8185546194634981
 30
0.0
 11
1107.7043309323919402
 21
185.818554619463157
 31
0.0
  0
LINE
  5
26F
100
AcDbEntity
100
AcDbLine
  8
0
 62
256
370
-1
  6
ByLayer
 10
1069.7043309323919402
 20
189.8185546194634981
 30
0.0
 11
1079.7043309323919402
 21
189.8185546194633844
 31
0.0
  0
LINE
  5
270
100
AcDbEntity
100
AcDbLine
  8
0
 62
256
370
-1
  6
ByLayer
 10
1097.7043309323919402
 20
189.8185546194634981
 30
0.0
 11
1107.7043309323919402
 21
189.818554619463157
 31
0.0
  0
LINE
  5
271
100
AcDbEntity
100
AcDbLine
  8
0
 62
256
370
-1
  6
ByLayer
 10
1069.7043309323919402
 20
209.8185546194634981
 30
0.0
 11
1079.704330932392395
 21
209.8185546194632707
 31
0.0
  0
LINE
  5
272
100
AcDbEntity
100
AcDbLine
  8
0
 62
256
370
-1
  6
ByLayer
 10
1097.7043309323919402
 20
209.8185546194633844
 30
0.0
 11
1107.7043309323919402
 21
209.8185546194633844
 31
0.0
  0
LINE
  5
273
100
AcDbEntity
100
AcDbLine
  8
0
 62
256
370
-1
  6
ByLayer
 10
1069.7043309323919402
 20
213.818554619463157
 30
0.0
 11
1079.7043309323919402
 21
213.818554619463157
 31
0.0
  0
LINE
  5
274
100
AcDbEntity
100
AcDbLine
  8
0
 62
256
370
-1
  6
ByLayer
 10
1097.7043309323919402
 20
213.8185546194629296
 30
0.0
 11
1107.7043309323919402
 21
213.8185546194632707
 31
0.0
  0
LINE
  5
275
100
AcDbEntity
100
AcDbLine
  8
0
 62
256
370
-1
  6
ByLayer
 10
1069.704330932392395
 20
233.818554619463157
 30
0.0
 11
1079.7043309323919402
 21
233.8185546194629296
 31
0.0
  0
LINE
  5
276
100
AcDbEntity
100
AcDbLine
  8
0
 62
256
370
-1
  6
ByLayer
 10
1097.704330932392395
 20
233.8185546194630433
 30
0.0
 11
1107.704330932392395
 21
233.8185546194630433
 31
0.0
  0
LINE
  5
277
100
AcDbEntity
100
AcDbLine
  8
0
 62
256
370
-1
  6
ByLayer
 10
1111.7043309323919402
 20
189.7441526200454973
 30
0.0
 11
1111.704330932392395
 21
209.744152620045611
 31
0.0
  0
LINE
  5
278
100
AcDbEntity
100
AcDbLine
  8
0
 62
256
370
-1
  6
ByLayer
 10
1121.704330932392395
 20
189.7441526200458384
 30
0.0
 11
1121.7043309323919402
 21
209.7441526200454973
 31
0.0
  0
LINE
  5
279
100
AcDbEntity
100
AcDbLine
  8
0
 62
256
370
-1
  6
ByLayer
 10
1107.7043309323919402
 20
189.7441526200454973
 30
0.0
 11
1107.7043309323919402
 21
209.7441526200458384
 31
0.0
  0
LINE
  5
27A
100
AcDbEntity
100
AcDbLine
  8
0
 62
256
370
-1
  6
ByLayer
 10
1111.7043309323919402
 20
189.7441526200454973
 30
0.0
 11
1121.704330932392395
 21
189.7441526200458384
 31
0.0
  0
LINE
  5
27B
100
AcDbEntity
100
AcDbLine
  8
0
 62
256
370
-1
  6
ByLayer
 10
1111.704330932392395
 20
209.744152620045611
 30
0.0
 11
1121.7043309323919402
 21
209.7441526200454973
 31
0.0
  0
LINE
  5
27C
100
AcDbEntity
100
AcDbLine
  8
0
 62
256
370
-1
  6
ByLayer
 10
1111.7043309323919402
 20
213.744152620045611
 30
0.0
 11
1121.7043309323919402
 21
213.7441526200457247
 31
0.0
  0
LINE
  5
27D
100
AcDbEntity
100
AcDbLine
  8
0
 62
256
370
-1
  6
ByLayer
 10
1111.7043309323919402
 20
185.7441526200452699
 30
0.0
 11
1121.704330932392395
 21
185.7441526200457247
 31
0.0
  0
LINE
  5
27E
100
AcDbEntity
100
AcDbLine
  8
0
 62
256
370
-1
  6
ByLayer
 10
1111.704330932392395
 20
233.7441526200458384
 30
0.0
 11
1121.7043309323919402
 21
233.7441526200458384
 31
0.0
  0
LINE
  5
27F
100
AcDbEntity
100
AcDbLine
  8
0
 62
256
370
-1
  6
ByLayer
 10
1111.7043309323919402
 20
165.7441526200454973
 30
0.0
 11
1121.7043309323919402
 21
165.7441526200460657
 31
0.0
  0
LINE
  5
280
100
AcDbEntity
100
AcDbLine
  8
0
 62
256
370
-1
  6
ByLayer
 10
1121.7043309323919402
 20
165.7441526200460657
 30
0.0
 11
1121.704330932392395
 21
185.7441526200457247
 31
0.0
  0
LINE
  5
281
100
AcDbEntity
100
AcDbLine
  8
0
 62
256
370
-1
  6
ByLayer
 10
1111.7043309323919402
 20
165.7441526200454973
 30
0.0
 11
1111.7043309323919402
 21
185.7441526200452699
 31
0.0
  0
LINE
  5
282
100
AcDbEntity
100
AcDbLine
  8
0
 62
256
370
-1
  6
ByLayer
 10
1111.7043309323919402
 20
213.744152620045611
 30
0.0
 11
1111.704330932392395
 21
233.7441526200458384
 31
0.0
  0
LINE
  5
283
100
AcDbEntity
100
AcDbLine
  8
0
 62
256
370
-1
  6
ByLayer
 10
1121.7043309323919402
 20
213.7441526200457247
 30
0.0
 11
1121.7043309323919402
 21
233.7441526200458384
 31
0.0
  0
LINE
  5
284
100
AcDbEntity
100
AcDbLine
  8
0
 62
256
370
-1
  6
ByLayer
 10
1107.7043309323919402
 20
165.744152620045611
 30
0.0
 11
1107.7043309323919402
 21
185.7441526200458384
 31
0.0
  0
LINE
  5
285
100
AcDbEntity
100
AcDbLine
  8
0
 62
256
370
-1
  6
ByLayer
 10
1107.7043309323919402
 20
213.7441526200458384
 30
0.0
 11
1107.7043309323919402
 21
233.7441526200458384
 31
0.0
  0
LINE
  5
286
100
AcDbEntity
100
AcDbLine
  8
0
 62
256
370
-1
  6
ByLayer
 10
1097.704330932392395
 20
165.744152620045611
 30
0.0
 11
1097.7043309323919402
 21
185.7441526200457247
 31
0.0
  0
LINE
  5
287
100
AcDbEntity
100
AcDbLine
  8
0
 62
256
370
-1
  6
ByLayer
 10
1097.7043309323919402
 20
189.744152620045611
 30
0.0
 11
1097.704330932392395
 21
209.7441526200458384
 31
0.0
  0
LINE
  5
288
100
AcDbEntity
100
AcDbLine
  8
0
 62
256
370
-1
  6
ByLayer
 10
1097.7043309323919402
 20
213.7441526200454973
 30
0.0
 11
1097.7043309323919402
 21
233.7441526200454973
 31
0.0
  0
LINE
  5
289
100
AcDbEntity
100
AcDbLine
  8
0
 62
256
370
-1
  6
ByLayer
 10
1097.704330932392395
 20
165.744152620045611
 30
0.0
 11
1107.7043309323919402
 21
165.744152620045611
 31
0.0
  0
LINE
  5
28A
100
AcDbEntity
100
AcDbLine
  8
0
 62
256
370
-1
  6
ByLayer
 10
1097.7043309323919402
 20
185.7441526200457247
 30
0.0
 11
1107.7043309323919402
 21
185.7441526200458384
 31
0.0
  0
LINE
  5
28B
100
AcDbEntity
100
AcDbLine
  8
0
 62
256
370
-1
  6
ByLayer
 10
1097.7043309323919402
 20
189.744152620045611
 30
0.0
 11
1107.7043309323919402
 21
189.7441526200454973
 31
0.0
  0
LINE
  5
28C
100
AcDbEntity
100
AcDbLine
  8
0
 62
256
370
-1
  6
ByLayer
 10
1097.704330932392395
 20
209.7441526200458384
 30
0.0
 11
1107.7043309323919402
 21
209.7441526200458384
 31
0.0
  0
LINE
  5
28D
100
AcDbEntity
100
AcDbLine
  8
0
 62
256
370
-1
  6
ByLayer
 10
1097.7043309323919402
 20
213.7441526200454973
 30
0.0
 11
1107.7043309323919402
 21
213.7441526200458384
 31
0.0
  0
LINE
  5
28E
100
AcDbEntity
100
AcDbLine
  8
0
 62
256
370
-1
  6
ByLayer
 10
1097.704330932392395
 20
233.7441526200457247
 30
0.0
 11
1107.7043309323919402
 21
233.7441526200458384
 31
0.0
  0
LINE
  5
28F
100
AcDbEntity
100
AcDbLine
  8
0
 62
256
370
-1
  6
ByLayer
 10
1027.704330932392395
 20
189.8929566188811577
 30
0.0
 11
1027.704330932392395
 21
209.8929566188809304
 31
0.0
  0
LINE
  5
290
100
AcDbEntity
100
AcDbLine
  8
0
 62
256
370
-1
  6
ByLayer
 10
1037.7043309323919402
 20
189.8929566188809304
 30
0.0
 11
1037.704330932392395
 21
209.8929566188809304
 31
0.0
  0
LINE
  5
291
100
AcDbEntity
100
AcDbLine
  8
0
 62
256
370
-1
  6
ByLayer
 10
1041.704330932392395
 20
189.8929566188809304
 30
0.0
 11
1041.704330932392395
 21
209.8929566188809304
 31
0.0
  0
LINE
  5
292
100
AcDbEntity
100
AcDbLine
  8
0
 62
256
370
-1
  6
ByLayer
 10
1023.7043309323922813
 20
189.8929566188809304
 30
0.0
 11
1023.7043309323920539
 21
209.8929566188808167
 31
0.0
  0
LINE
  5
293
100
AcDbEntity
100
AcDbLine
  8
0
 62
256
370
-1
  6
ByLayer
 10
1027.704330932392395
 20
189.8929566188811577
 30
0.0
 11
1037.7043309323919402
 21
189.8929566188809304
 31
0.0
  0
LINE
  5
294
100
AcDbEntity
100
AcDbLine
  8
0
 62
256
370
-1
  6
ByLayer
 10
1027.704330932392395
 20
209.8929566188809304
 30
0.0
 11
1037.704330932392395
 21
209.8929566188809304
 31
0.0
  0
LINE
  5
295
100
AcDbEntity
100
AcDbLine
  8
0
 62
256
370
-1
  6
ByLayer
 10
1027.704330932392395
 20
213.8929566188809304
 30
0.0
 11
1037.7043309323919402
 21
213.8929566188811577
 31
0.0
  0
LINE
  5
296
100
AcDbEntity
100
AcDbLine
  8
0
 62
256
370
-1
  6
ByLayer
 10
1027.704330932392395
 20
185.8929566188809304
 30
0.0
 11
1037.7043309323919402
 21
185.8929566188809304
 31
0.0
  0
LINE
  5
297
100
AcDbEntity
100
AcDbLine
  8
0
 62
256
370
-1
  6
ByLayer
 10
1027.704330932392395
 20
233.8929566188809304
 30
0.0
 11
1037.7043309323919402
 21
233.8929566188809304
 31
0.0
  0
LINE
  5
298
100
AcDbEntity
100
AcDbLine
  8
0
 62
256
370
-1
  6
ByLayer
 10
1027.704330932392395
 20
165.8929566188811577
 30
0.0
 11
1037.7043309323919402
 21
165.8929566188811577
 31
0.0
  0
LINE
  5
299
100
AcDbEntity
100
AcDbLine
  8
0
 62
256
370
-1
  6
ByLayer
 10
1037.7043309323919402
 20
165.8929566188811577
 30
0.0
 11
1037.7043309323919402
 21
185.8929566188809304
 31
0.0
  0
LINE
  5
29A
100
AcDbEntity
100
AcDbLine
  8
0
 62
256
370
-1
  6
ByLayer
 10
1027.704330932392395
 20
165.8929566188811577
 30
0.0
 11
1027.704330932392395
 21
185.8929566188809304
 31
0.0
  0
LINE
  5
29B
100
AcDbEntity
100
AcDbLine
  8
0
 62
256
370
-1
  6
ByLayer
 10
1027.704330932392395
 20
213.8929566188809304
 30
0.0
 11
1027.704330932392395
 21
233.8929566188809304
 31
0.0
  0
LINE
  5
29C
100
AcDbEntity
100
AcDbLine
  8
0
 62
256
370
-1
  6
ByLayer
 10
1037.7043309323919402
 20
213.8929566188811577
 30
0.0
 11
1037.7043309323919402
 21
233.8929566188809304
 31
0.0
  0
LINE
  5
29D
100
AcDbEntity
100
AcDbLine
  8
0
 62
256
370
-1
  6
ByLayer
 10
1023.7043309323920539
 20
165.8929566188811577
 30
0.0
 11
1023.7043309323920539
 21
185.8929566188810441
 31
0.0
  0
LINE
  5
29E
100
AcDbEntity
100
AcDbLine
  8
0
 62
256
370
-1
  6
ByLayer
 10
1041.7043309323919402
 20
165.8929566188808167
 30
0.0
 11
1041.7043309323919402
 21
185.892956618880703
 31
0.0
  0
LINE
  5
29F
100
AcDbEntity
100
AcDbLine
  8
0
 62
256
370
-1
  6
ByLayer
 10
1041.7043309323919402
 20
213.8929566188810441
 30
0.0
 11
1041.7043309323919402
 21
233.8929566188809304
 31
0.0
  0
LINE
  5
2A0
100
AcDbEntity
100
AcDbLine
  8
0
 62
256
370
-1
  6
ByLayer
 10
1023.7043309323922813
 20
213.8929566188808167
 30
0.0
 11
1023.7043309323922813
 21
233.8929566188809304
 31
0.0
  0
LINE
  5
2A1
100
AcDbEntity
100
AcDbLine
  8
0
 62
256
370
-1
  6
ByLayer
 10
1051.704330932392395
 20
165.8929566188809304
 30
0.0
 11
1051.7043309323919402
 21
185.8929566188811577
 31
0.0
  0
LINE
  5
2A2
100
AcDbEntity
100
AcDbLine
  8
0
 62
256
370
-1
  6
ByLayer
 10
1051.7043309323919402
 20
189.8929566188808167
 30
0.0
 11
1051.704330932392395
 21
209.8929566188809304
 31
0.0
  0
LINE
  5
2A3
100
AcDbEntity
100
AcDbLine
  8
0
 62
256
370
-1
  6
ByLayer
 10
1051.704330932392395
 20
213.8929566188809304
 30
0.0
 11
1051.7043309323919402
 21
233.8929566188809304
 31
0.0
  0
LINE
  5
2A4
100
AcDbEntity
100
AcDbLine
  8
0
 62
256
370
-1
  6
ByLayer
 10
1013.7043309323922813
 20
165.8929566188811577
 30
0.0
 11
1013.7043309323922813
 21
185.8929566188809304
 31
0.0
  0
LINE
  5
2A5
100
AcDbEntity
100
AcDbLine
  8
0
 62
256
370
-1
  6
ByLayer
 10
1013.7043309323922813
 20
189.8929566188809304
 30
0.0
 11
1013.7043309323922813
 21
209.8929566188809304
 31
0.0
  0
LINE
  5
2A6
100
AcDbEntity
100
AcDbLine
  8
0
 62
256
370
-1
  6
ByLayer
 10
1013.7043309323922813
 20
213.8929566188809304
 30
0.0
 11
1013.7043309323920539
 21
233.8929566188808167
 31
0.0
  0
LINE
  5
2A7
100
AcDbEntity
100
AcDbLine
  8
0
 62
256
370
-1
  6
ByLayer
 10
1041.7043309323919402
 20
165.8929566188808167
 30
0.0
 11
1051.704330932392395
 21
165.8929566188809304
 31
0.0
  0
LINE
  5
2A8
100
AcDbEntity
100
AcDbLine
  8
0
 62
256
370
-1
  6
ByLayer
 10
1013.7043309323922813
 20
165.8929566188811577
 30
0.0
 11
1023.7043309323920539
 21
165.8929566188811577
 31
0.0
  0
LINE
  5
2A9
100
AcDbEntity
100
AcDbLine
  8
0
 62
256
370
-1
  6
ByLayer
 10
1013.7043309323922813
 20
185.8929566188809304
 30
0.0
 11
1023.7043309323920539
 21
185.8929566188810441
 31
0.0
  0
LINE
  5
2AA
100
AcDbEntity
100
AcDbLine
  8
0
 62
256
370
-1
  6
ByLayer
 10
1041.7043309323919402
 20
185.892956618880703
 30
0.0
 11
1051.7043309323919402
 21
185.8929566188811577
 31
0.0
  0
LINE
  5
2AB
100
AcDbEntity
100
AcDbLine
  8
0
 62
256
370
-1
  6
ByLayer
 10
1013.7043309323922813
 20
189.8929566188809304
 30
0.0
 11
1023.7043309323922813
 21
189.8929566188809304
 31
0.0
  0
LINE
  5
2AC
100
AcDbEntity
100
AcDbLine
  8
0
 62
256
370
-1
  6
ByLayer
 10
1041.704330932392395
 20
189.8929566188809304
 30
0.0
 11
1051.7043309323919402
 21
189.8929566188808167
 31
0.0
  0
LINE
  5
2AD
100
AcDbEntity
100
AcDbLine
  8
0
 62
256
370
-1
  6
ByLayer
 10
1013.7043309323922813
 20
209.8929566188809304
 30
0.0
 11
1023.7043309323920539
 21
209.8929566188808167
 31
0.0
  0
LINE
  5
2AE
100
AcDbEntity
100
AcDbLine
  8
0
 62
256
370
-1
  6
ByLayer
 10
1041.704330932392395
 20
209.8929566188809304
 30
0.0
 11
1051.704330932392395
 21
209.8929566188809304
 31
0.0
  0
LINE
  5
2AF
100
AcDbEntity
100
AcDbLine
  8
0
 62
256
370
-1
  6
ByLayer
 10
1013.7043309323922813
 20
213.8929566188809304
 30
0.0
 11
1023.7043309323922813
 21
213.8929566188808167
 31
0.0
  0
LINE
  5
2B0
100
AcDbEntity
100
AcDbLine
  8
0
 62
256
370
-1
  6
ByLayer
 10
1041.7043309323919402
 20
213.8929566188810441
 30
0.0
 11
1051.704330932392395
 21
213.8929566188809304
 31
0.0
  0
LINE
  5
2B1
100
AcDbEntity
100
AcDbLine
  8
0
 62
256
370
-1
  6
ByLayer
 10
1013.7043309323920539
 20
233.8929566188808167
 30
0.0
 11
1023.7043309323922813
 21
233.8929566188809304
 31
0.0
  0
LINE
  5
2B2
100
AcDbEntity
100
AcDbLine
  8
0
 62
256
370
-1
  6
ByLayer
 10
1041.7043309323919402
 20
233.8929566188809304
 30
0.0
 11
1051.7043309323919402
 21
233.8929566188809304
 31
0.0
  0
LINE
  5
2B3
100
AcDbEntity
100
AcDbLine
  8
0
 62
256
370
-1
  6
ByLayer
 10
1055.7043309323919402
 20
189.8185546194634981
 30
0.0
 11
1055.7043309323919402
 21
209.8185546194632707
 31
0.0
  0
LINE
  5
2B4
100
AcDbEntity
100
AcDbLine
  8
0
 62
256
370
-1
  6
ByLayer
 10
1065.7043309323919402
 20
189.8185546194632707
 30
0.0
 11
1065.7043309323919402
 21
209.8185546194633844
 31
0.0
  0
LINE
  5
2B5
100
AcDbEntity
100
AcDbLine
  8
0
 62
256
370
-1
  6
ByLayer
 10
1069.7043309323919402
 20
189.8185546194634981
 30
0.0
 11
1069.7043309323919402
 21
209.8185546194634981
 31
0.0
  0
LINE
  5
2B6
100
AcDbEntity
100
AcDbLine
  8
0
 62
256
370
-1
  6
ByLayer
 10
1051.7043309323919402
 20
189.8185546194633844
 30
0.0
 11
1051.704330932392395
 21
209.8185546194634981
 31
0.0
  0
LINE
  5
2B7
100
AcDbEntity
100
AcDbLine
  8
0
 62
256
370
-1
  6
ByLayer
 10
1055.7043309323919402
 20
189.8185546194634981
 30
0.0
 11
1065.7043309323919402
 21
189.8185546194632707
 31
0.0
  0
LINE
  5
2B8
100
AcDbEntity
100
AcDbLine
  8
0
 62
256
370
-1
  6
ByLayer
 10
1055.7043309323919402
 20
209.8185546194632707
 30
0.0
 11
1065.7043309323919402
 21
209.8185546194633844
 31
0.0
  0
LINE
  5
2B9
100
AcDbEntity
100
AcDbLine
  8
0
 62
256
370
-1
  6
ByLayer
 10
1055.7043309323919402
 20
213.818554619463157
 30
0.0
 11
1065.7043309323919402
 21
213.818554619463157
 31
0.0
  0
LINE
  5
2BA
100
AcDbEntity
100
AcDbLine
  8
0
 62
256
370
-1
  6
ByLayer
 10
1055.7043309323919402
 20
185.818554619463157
 30
0.0
 11
1065.7043309323919402
 21
185.818554619463157
 31
0.0
  0
LINE
  5
2BB
100
AcDbEntity
100
AcDbLine
  8
0
 62
256
370
-1
  6
ByLayer
 10
1055.704330932392395
 20
233.818554619463157
 30
0.0
 11
1065.7043309323919402
 21
233.8185546194634981
 31
0.0
  0
LINE
  5
2BC
100
AcDbEntity
100
AcDbLine
  8
0
 62
256
370
-1
  6
ByLayer
 10
1055.7043309323919402
 20
165.8185546194633844
 30
0.0
 11
1065.7043309323919402
 21
165.8185546194634981
 31
0.0
  0
LINE
  5
2BD
100
AcDbEntity
100
AcDbLine
  8
0
 62
256
370
-1
  6
ByLayer
 10
1065.7043309323919402
 20
165.8185546194634981
 30
0.0
 11
1065.7043309323919402
 21
185.818554619463157
 31
0.0
  0
LINE
  5
2BE
100
AcDbEntity
100
AcDbLine
  8
0
 62
256
370
-1
  6
ByLayer
 10
1055.7043309323919402
 20
165.8185546194633844
 30
0.0
 11
1055.7043309323919402
 21
185.818554619463157
 31
0.0
  0
LINE
  5
2BF
100
AcDbEntity
100
AcDbLine
  8
0
 62
256
370
-1
  6
ByLayer
 10
1055.7043309323919402
 20
213.818554619463157
 30
0.0
 11
1055.704330932392395
 21
233.818554619463157
 31
0.0
  0
LINE
  5
2C0
100
AcDbEntity
100
AcDbLine
  8
0
 62
256
370
-1
  6
ByLayer
 10
1065.7043309323919402
 20
213.818554619463157
 30
0.0
 11
1065.7043309323919402
 21
233.8185546194634981
 31
0.0
  0
LINE
  5
2C1
100
AcDbEntity
100
AcDbLine
  8
0
 62
256
370
-1
  6
ByLayer
 10
1051.704330932392395
 20
165.8185546194633844
 30
0.0
 11
1051.7043309323919402
 21
185.8185546194633844
 31
0.0
  0
LINE
  5
2C2
100
AcDbEntity
100
AcDbLine
  8
0
 62
256
370
-1
  6
ByLayer
 10
1069.7043309323919402
 20
165.818554619463157
 30
0.0
 11
1069.704330932392395
 21
185.8185546194634981
 31
0.0
  0
LINE
  5
2C3
100
AcDbEntity
100
AcDbLine
  8
0
 62
256
370
-1
  6
ByLayer
 10
1069.7043309323919402
 20
213.818554619463157
 30
0.0
 11
1069.704330932392395
 21
233.818554619463157
 31
0.0
  0
LINE
  5
2C4
100
AcDbEntity
100
AcDbLine
  8
0
 62
256
370
-1
  6
ByLayer
 10
1051.704330932392395
 20
213.8185546194634981
 30
0.0
 11
1051.704330932392395
 21
233.8185546194629296
 31
0.0
  0
LINE
  5
2C5
100
AcDbEntity
100
AcDbLine
  8
0
 62
256
370
-1
  6
ByLayer
 10
1079.7043309323919402
 20
165.8185546194632707
 30
0.0
 11
1079.7043309323919402
 21
185.8185546194633844
 31
0.0
  0
LINE
  5
2C6
100
AcDbEntity
100
AcDbLine
  8
0
 62
256
370
-1
  6
ByLayer
 10
1079.7043309323919402
 20
189.8185546194633844
 30
0.0
 11
1079.704330932392395
 21
209.8185546194632707
 31
0.0
  0
LINE
  5
2C7
100
AcDbEntity
100
AcDbLine
  8
0
 62
256
370
-1
  6
ByLayer
 10
1079.7043309323919402
 20
213.818554619463157
 30
0.0
 11
1079.704330932392395
 21
233.8185546194632707
 31
0.0
  0
LINE
  5
2C8
100
AcDbEntity
100
AcDbLine
  8
0
 62
256
370
-1
  6
ByLayer
 10
1041.7043309323919402
 20
165.8185546194634981
 30
0.0
 11
1041.7043309323919402
 21
185.8185546194632707
 31
0.0
  0
LINE
  5
2C9
100
AcDbEntity
100
AcDbLine
  8
0
 62
256
370
-1
  6
ByLayer
 10
1041.7043309323919402
 20
189.818554619463157
 30
0.0
 11
1041.7043309323919402
 21
209.8185546194632707
 31
0.0
  0
LINE
  5
2CA
100
AcDbEntity
100
AcDbLine
  8
0
 62
256
370
-1
  6
ByLayer
 10
1041.704330932392395
 20
213.8185546194634981
 30
0.0
 11
1041.7043309323919402
 21
233.8185546194634981
 31
0.0
  0
LINE
  5
2CB
100
AcDbEntity
100
AcDbLine
  8
0
 62
256
370
-1
  6
ByLayer
 10
1069.7043309323919402
 20
165.818554619463157
 30
0.0
 11
1079.7043309323919402
 21
165.8185546194632707
 31
0.0
  0
LINE
  5
2CC
100
AcDbEntity
100
AcDbLine
  8
0
 62
256
370
-1
  6
ByLayer
 10
1041.7043309323919402
 20
165.8185546194634981
 30
0.0
 11
1051.704330932392395
 21
165.8185546194633844
 31
0.0
  0
LINE
  5
2CD
100
AcDbEntity
100
AcDbLine
  8
0
 62
256
370
-1
  6
ByLayer
 10
1041.7043309323919402
 20
185.8185546194632707
 30
0.0
 11
1051.7043309323919402
 21
185.8185546194633844
 31
0.0
  0
LINE
  5
2CE
100
AcDbEntity
100
AcDbLine
  8
0
 62
256
370
-1
  6
ByLayer
 10
1069.704330932392395
 20
185.8185546194634981
 30
0.0
 11
1079.7043309323919402
 21
185.8185546194633844
 31
0.0
  0
LINE
  5
2CF
100
AcDbEntity
100
AcDbLine
  8
0
 62
256
370
-1
  6
ByLayer
 10
1041.7043309323919402
 20
189.818554619463157
 30
0.0
 11
1051.7043309323919402
 21
189.8185546194633844
 31
0.0
  0
LINE
  5
2D0
100
AcDbEntity
100
AcDbLine
  8
0
 62
256
370
-1
  6
ByLayer
 10
1069.7043309323919402
 20
189.8185546194634981
 30
0.0
 11
1079.7043309323919402
 21
189.8185546194633844
 31
0.0
  0
LINE
  5
2D1
100
AcDbEntity
100
AcDbLine
  8
0
 62
256
370
-1
  6
ByLayer
 10
1041.7043309323919402
 20
209.8185546194632707
 30
0.0
 11
1051.704330932392395
 21
209.8185546194634981
 31
0.0
  0
LINE
  5
2D2
100
AcDbEntity
100
AcDbLine
  8
0
 62
256
370
-1
  6
ByLayer
 10
1069.7043309323919402
 20
209.8185546194634981
 30
0.0
 11
1079.704330932392395
 21
209.8185546194632707
 31
0.0
  0
LINE
  5
2D3
100
AcDbEntity
100
AcDbLine
  8
0
 62
256
370
-1
  6
ByLayer
 10
1041.704330932392395
 20
213.8185546194634981
 30
0.0
 11
1051.7043309323919402
 21
213.818554619463157
 31
0.0
  0
LINE
  5
2D4
100
AcDbEntity
100
AcDbLine
  8
0
 62
256
370
-1
  6
ByLayer
 10
1069.7043309323919402
 20
213.818554619463157
 30
0.0
 11
1079.7043309323919402
 21
213.818554619463157
 31
0.0
  0
LINE
  5
2D5
100
AcDbEntity
100
AcDbLine
  8
0
 62
256
370
-1
  6
ByLayer
 10
1041.7043309323919402
 20
233.8185546194634981
 30
0.0
 11
1051.704330932392395
 21
233.8185546194629296
 31
0.0
  0
LINE
  5
2D6
100
AcDbEntity
100
AcDbLine
  8
0
 62
256
370
-1
  6
ByLayer
 10
1069.7043309323919402
 20
233.8185546194634981
 30
0.0
 11
1079.704330932392395
 21
233.8185546194632707
 31
0.0
  0
LINE
  5
2D7
100
AcDbEntity
100
AcDbLine
  8
0
 62
256
370
-1
  6
ByLayer
 10
1125.7043309323919402
 20
213.7441526200457247
 30
0.0
 11
1125.7043309323919402
 21
233.7441526200458384
 31
0.0
  0
LINE
  5
2D8
100
AcDbEntity
100
AcDbLine
  8
0
 62
256
370
-1
  6
ByLayer
 10
1125.7043309323919402
 20
165.7441526200459805
 30
0.0
 11
1125.704330932392395
 21
185.7441526200456394
 31
0.0
  0
LINE
  5
2D9
100
AcDbEntity
100
AcDbLine
  8
0
 62
256
370
-1
  6
ByLayer
 10
1125.704330932392395
 20
185.7441526200456394
 30
0.0
 11
1125.7043309323919402
 21
213.7441526200457247
 31
0.0
  0
LINE
  5
2DA
100
AcDbEntity
100
AcDbLine
  8
0
 62
256
370
-1
  6
ByLayer
 10
1125.7043309323919402
 20
233.7441526200458384
 30
0.0
 11
1125.7043309323919402
 21
243.7441526200458384
 31
0.0
  0
LINE
  5
2DB
100
AcDbEntity
100
AcDbLine
  8
0
 62
256
370
-1
  6
ByLayer
 10
1125.7043309323919402
 20
165.7441526200459805
 30
0.0
 11
1125.7043309323919402
 21
155.7441526200459805
 31
0.0
  0
LINE
  5
2DC
100
AcDbEntity
100
AcDbLine
  8
0
 62
256
370
-1
  6
ByLayer
 10
1086.4804719557537283
 20
145.7783436116811231
 30
0.0
 11
1086.4804719557537283
 21
145.7783436116811231
 31
0.0
  0
LINE
  5
2DD
100
AcDbEntity
100
AcDbLine
  8
0
 62
256
370
-1
  6
ByLayer
 10
603.7043309323920539
 20
254.4137706148040365
 30
0.0
 11
617.7043309323920539
 21
254.413770614803866
 31
0.0
  0
LINE
  5
2DE
100
AcDbEntity
100
AcDbLine
  8
0
 62
256
370
-1
  6
ByLayer
 10
603.7043309323920539
 20
234.4137706148039797
 30
0.0
 11
603.7043309323920539
 21
254.4137706148040365
 31
0.0
  0
LINE
  5
2DF
100
AcDbEntity
100
AcDbLine
  8
0
 62
256
370
-1
  6
ByLayer
 10
607.7043309323918265
 20
190.4137706148039797
 30
0.0
 11
607.7043309323918265
 21
210.4137706148039797
 31
0.0
  0
LINE
  5
2E0
100
AcDbEntity
100
AcDbLine
  8
0
 62
256
370
-1
  6
ByLayer
 10
617.7043309323920539
 20
190.413770614803866
 30
0.0
 11
617.7043309323918265
 21
210.4137706148039797
 31
0.0
  0
LINE
  5
2E1
100
AcDbEntity
100
AcDbLine
  8
0
 62
256
370
-1
  6
ByLayer
 10
607.7043309323918265
 20
190.4137706148039797
 30
0.0
 11
617.7043309323920539
 21
190.413770614803866
 31
0.0
  0
LINE
  5
2E2
100
AcDbEntity
100
AcDbLine
  8
0
 62
256
370
-1
  6
ByLayer
 10
607.7043309323918265
 20
210.4137706148039797
 30
0.0
 11
617.7043309323918265
 21
210.4137706148039797
 31
0.0
  0
LINE
  5
2E3
100
AcDbEntity
100
AcDbLine
  8
0
 62
256
370
-1
  6
ByLayer
 10
607.7043309323918265
 20
214.4137706148039797
 30
0.0
 11
617.7043309323918265
 21
214.4137706148039797
 31
0.0
  0
LINE
  5
2E4
100
AcDbEntity
100
AcDbLine
  8
0
 62
256
370
-1
  6
ByLayer
 10
607.7043309323920539
 20
186.4137706148039797
 30
0.0
 11
617.7043309323920539
 21
186.4137706148039797
 31
0.0
  0
LINE
  5
2E5
100
AcDbEntity
100
AcDbLine
  8
0
 62
256
370
-1
  6
ByLayer
 10
607.7043309323918265
 20
234.4137706148039797
 30
0.0
 11
617.7043309323918265
 21
234.4137706148039797
 31
0.0
  0
LINE
  5
2E6
100
AcDbEntity
100
AcDbLine
  8
0
 62
256
370
-1
  6
ByLayer
 10
607.7043309323918265
 20
166.413770614803866
 30
0.0
 11
617.7043309323918265
 21
166.4137706148039797
 31
0.0
  0
LINE
  5
2E7
100
AcDbEntity
100
AcDbLine
  8
0
 62
256
370
-1
  6
ByLayer
 10
617.7043309323918265
 20
166.4137706148039797
 30
0.0
 11
617.7043309323920539
 21
186.4137706148039797
 31
0.0
  0
LINE
  5
2E8
100
AcDbEntity
100
AcDbLine
  8
0
 62
256
370
-1
  6
ByLayer
 10
607.7043309323918265
 20
166.413770614803866
 30
0.0
 11
607.7043309323920539
 21
186.4137706148039797
 31
0.0
  0
LINE
  5
2E9
100
AcDbEntity
100
AcDbLine
  8
0
 62
256
370
-1
  6
ByLayer
 10
607.7043309323918265
 20
214.4137706148039797
 30
0.0
 11
607.7043309323918265
 21
234.4137706148039797
 31
0.0
  0
LINE
  5
2EA
100
AcDbEntity
100
AcDbLine
  8
0
 62
256
370
-1
  6
ByLayer
 10
617.7043309323918265
 20
214.4137706148039797
 30
0.0
 11
617.7043309323918265
 21
234.4137706148039797
 31
0.0
  0
LINE
  5
2EB
100
AcDbEntity
100
AcDbLine
  8
0
 62
256
370
-1
  6
ByLayer
 10
603.7043309323920539
 20
234.4137706148039797
 30
0.0
 11
603.7043309323920539
 21
166.413770614803866
 31
0.0
  0
LINE
  5
2EC
100
AcDbEntity
100
AcDbLine
  8
0
 62
256
370
-1
  6
ByLayer
 10
603.7043309323920539
 20
166.413770614803866
 30
0.0
 11
603.7043309323920539
 21
146.4327476429953947
 31
0.0
  0
LINE
  5
2ED
100
AcDbEntity
100
AcDbLine
  8
0
 62
256
370
-1
  6
ByLayer
 10
603.7043309323920539
 20
146.4327476429953947
 30
0.0
 11
1125.7043309323919402
 21
145.7251755918539686
 31
0.0
  0
LINE
  5
2EE
100
AcDbEntity
100
AcDbLine
  8
0
 62
256
370
-1
  6
ByLayer
 10
1125.7043309323919402
 20
155.7441526200459805
 30
0.0
 11
1125.7043309323919402
 21
145.7251755918539686
 31
0.0
  0
LINE
  5
2EF
100
AcDbEntity
100
AcDbLine
  8
0
 62
256
370
-1
  6
ByLayer
 10
1125.7043309323919402
 20
243.7441526200458384
 30
0.0
 11
1125.7043309323919402
 21
253.9179992267027046
 31
0.0
  0
LINE
  5
2F0
100
AcDbEntity
100
AcDbLine
  8
0
 62
256
370
-1
  6
ByLayer
 10
615.2099854906159635
 20
254.3615216814740165
 30
0.0
 11
1125.7043309323919402
 21
253.9179992267027046
 31
0.0
  0
ENDSEC
  0
SECTION
  2
OBJECTS
  0
DICTIONARY
  5
C
100
AcDbDictionary
280
0
281
1
  3
ACAD_GROUP
350
D
  3
ACAD_LAYOUT
350
1A
  3
ACAD_MLINESTYLE
350
17
  3
ACAD_PLOTSETTINGS
350
19
  3
ACAD_PLOTSTYLENAME
350
E
  3
AcDbVariableDictionary
350
2F1
  0
DICTIONARY
  5
D
100
AcDbDictionary
280
0
281
1
  0
ACDBDICTIONARYWDFLT
  5
E
100
AcDbDictionary
281
1
  3
Normal
350
F
100
AcDbDictionaryWithDefault
340
F
  0
ACDBPLACEHOLDER
  5
F
  0
DICTIONARY
  5
17
100
AcDbDictionary
280
0
281
1
  3
Standard
350
18
  0
MLINESTYLE
  5
18
100
AcDbMlineStyle
  2
STANDARD
 70
0
  3

 62
256
 51
90.0
 52
90.0
 71
2
 49
0.5
 62
256
  6
BYLAYER
 49
-0.5
 62
256
  6
BYLAYER
  0
DICTIONARY
  5
19
100
AcDbDictionary
280
0
281
1
  0
DICTIONARY
  5
1A
100
AcDbDictionary
281
1
  3
Layout1
350
1E
  3
Layout2
350
26
  3
Model
350
22
  0
LAYOUT
  5
1E
100
AcDbPlotSettings
  1

  2
C:\Program Files\AutoCAD 2002\plotters\DWF ePlot (optimized for plotting).pc3
  4

  6

 40
0.0
 41
0.0
 42
0.0
 43
0.0
 44
0.0
 45
0.0
 46
0.0
 47
0.0
 48
0.0
 49
0.0
140
0.0
141
0.0
142
1.0
143
1.0
 70
688
 72
0
 73
0
 74
5
  7

 75
16
147
1.0
148
0.0
149
0.0
100
AcDbLayout
  1
Layout1
 70
1
 71
1
 10
0.0
 20
0.0
 11
420.0
 21
297.0
 12
0.0
 22
0.0
 32
0.0
 14
100000000000000000000.0
 24
100000000000000000000.0
 34
100000000000000000000.0
 15
-100000000000000000000.0
 25
-100000000000000000000.0
 35
-100000000000000000000.0
146
0.0
 13
0.0
 23
0.0
 33
0.0
 16
1.0
 26
0.0
 36
0.0
 17
0.0
 27
1.0
 37
0.0
 76
0
330
1B
  0
LAYOUT
  5
22
100
AcDbPlotSettings
  1

  2
C:\Program Files\AutoCAD 2002\plotters\DWF ePlot (optimized for plotting).pc3
  4

  6

 40
0.0
 41
0.0
 42
0.0
 43
0.0
 44
0.0
 45
0.0
 46
0.0
 47
0.0
 48
0.0
 49
0.0
140
0.0
141
0.0
142
1.0
143
1.0
 70
1712
 72
0
 73
0
 74
0
  7

 75
0
147
1.0
148
0.0
149
0.0
100
AcDbLayout
  1
Model
 70
1
 71
0
 10
0.0
 20
0.0
 11
12.0
 21
9.0
 12
0.0
 22
0.0
 32
0.0
 14
0.0
 24
0.0
 34
0.0
 15
0.0
 25
0.0
 35
0.0
146
0.0
 13
0.0
 23
0.0
 33
0.0
 16
1.0
 26
0.0
 36
0.0
 17
0.0
 27
1.0
 37
0.0
 76
0
330
1F
  0
LAYOUT
  5
26
100
AcDbPlotSettings
  1

  2
C:\Program Files\AutoCAD 2002\plotters\DWF ePlot (optimized for plotting).pc3
  4

  6

 40
0.0
 41
0.0
 42
0.0
 43
0.0
 44
0.0
 45
0.0
 46
0.0
 47
0.0
 48
0.0
 49
0.0
140
0.0
141
0.0
142
1.0
143
1.0
 70
688
 72
0
 73
0
 74
5
  7

 75
16
147
1.0
148
0.0
149
0.0
100
AcDbLayout
  1
Layout2
 70
1
 71
2
 10
0.0
 20
0.0
 11
12.0
 21
9.0
 12
0.0
 22
0.0
 32
0.0
 14
0.0
 24
0.0
 34
0.0
 15
0.0
 25
0.0
 35
0.0
146
0.0
 13
0.0
 23
0.0
 33
0.0
 16
1.0
 26
0.0
 36
0.0
 17
0.0
 27
1.0
 37
0.0
 76
0
330
23
  0
DICTIONARY
  5
2F1
100
AcDbDictionary
281
1
  3
DIMASSOC
350
2F3
  3
HIDETEXT
350
2F2
  0
DICTIONARYVAR
  5
2F2
100
DictionaryVariables
280
0
  1
2
  0
DICTIONARYVAR
  5
2F3
100
DictionaryVariables
280
0
  1
1
  0
ENDSEC
  0
EOF
